<svg class="displayed_equation" xmlns="http://www.w3.org/2000/svg" xmlns:xlink="http://www.w3.org/1999/xlink" width="273.57pt" height="149.68pt" viewBox="0 0 273.57 149.68" version="1.1">
    <g id="svg310135982730tikz_00001surface1">
      <path style="fill:none;stroke-width:7.9701;stroke-linecap:butt;stroke-linejoin:miter;stroke:rgb(0%,0%,0%);stroke-opacity:1;stroke-miterlimit:10;" d="M 128.984375 128.9875 L 541.953125 128.9875 L 541.953125 541.95625 L 128.984375 541.95625 Z M 128.984375 128.9875 " transform="matrix(0.1,0,0,-0.1,0,149.68)" />
      <path style="fill:none;stroke-width:7.9701;stroke-linecap:butt;stroke-linejoin:miter;stroke:rgb(0%,0%,0%);stroke-opacity:1;stroke-miterlimit:10;" d="M 128.984375 541.95625 L 541.953125 541.95625 L 541.953125 954.925 L 128.984375 954.925 Z M 128.984375 541.95625 " transform="matrix(0.1,0,0,-0.1,0,149.68)" />
      <path style="fill:none;stroke-width:7.9701;stroke-linecap:butt;stroke-linejoin:miter;stroke:rgb(0%,0%,0%);stroke-opacity:1;stroke-miterlimit:10;" d="M 128.984375 954.925 L 541.953125 954.925 L 541.953125 1367.89375 L 128.984375 1367.89375 Z M 128.984375 954.925 " transform="matrix(0.1,0,0,-0.1,0,149.68)" />
      <path style="fill:none;stroke-width:7.9701;stroke-linecap:butt;stroke-linejoin:miter;stroke:rgb(0%,0%,0%);stroke-opacity:1;stroke-miterlimit:10;" d="M 541.953125 128.9875 L 954.882813 128.9875 L 954.882813 541.95625 L 541.953125 541.95625 Z M 541.953125 128.9875 " transform="matrix(0.1,0,0,-0.1,0,149.68)" />
      <path style="fill:none;stroke-width:7.9701;stroke-linecap:butt;stroke-linejoin:miter;stroke:rgb(0%,0%,0%);stroke-opacity:1;stroke-miterlimit:10;" d="M 541.953125 541.95625 L 954.882813 541.95625 L 954.882813 954.925 L 541.953125 954.925 Z M 541.953125 541.95625 " transform="matrix(0.1,0,0,-0.1,0,149.68)" />
      <path style="fill:none;stroke-width:7.9701;stroke-linecap:butt;stroke-linejoin:miter;stroke:rgb(0%,0%,0%);stroke-opacity:1;stroke-miterlimit:10;" d="M 541.953125 954.925 L 954.882813 954.925 L 954.882813 1367.89375 L 541.953125 1367.89375 Z M 541.953125 954.925 " transform="matrix(0.1,0,0,-0.1,0,149.68)" />
      <path style="fill:none;stroke-width:7.9701;stroke-linecap:butt;stroke-linejoin:miter;stroke:rgb(0%,0%,0%);stroke-opacity:1;stroke-miterlimit:10;" d="M 954.882813 128.9875 L 1367.851563 128.9875 L 1367.851563 541.95625 L 954.882813 541.95625 Z M 954.882813 128.9875 " transform="matrix(0.1,0,0,-0.1,0,149.68)" />
      <path style="fill:none;stroke-width:7.9701;stroke-linecap:butt;stroke-linejoin:miter;stroke:rgb(0%,0%,0%);stroke-opacity:1;stroke-miterlimit:10;" d="M 954.882813 541.95625 L 1367.851563 541.95625 L 1367.851563 954.925 L 954.882813 954.925 Z M 954.882813 541.95625 " transform="matrix(0.1,0,0,-0.1,0,149.68)" />
      <path style="fill:none;stroke-width:7.9701;stroke-linecap:butt;stroke-linejoin:miter;stroke:rgb(0%,0%,0%);stroke-opacity:1;stroke-miterlimit:10;" d="M 954.882813 954.925 L 1367.851563 954.925 L 1367.851563 1367.89375 L 954.882813 1367.89375 Z M 954.882813 954.925 " transform="matrix(0.1,0,0,-0.1,0,149.68)" />
      <path style="fill:none;stroke-width:7.9701;stroke-linecap:butt;stroke-linejoin:miter;stroke:rgb(0%,0%,0%);stroke-opacity:1;stroke-miterlimit:10;" d="M 1367.851563 128.9875 L 1780.820313 128.9875 L 1780.820313 541.95625 L 1367.851563 541.95625 Z M 1367.851563 128.9875 " transform="matrix(0.1,0,0,-0.1,0,149.68)" />
      <path style="fill:none;stroke-width:7.9701;stroke-linecap:butt;stroke-linejoin:miter;stroke:rgb(0%,0%,0%);stroke-opacity:1;stroke-miterlimit:10;" d="M 1367.851563 541.95625 L 1780.820313 541.95625 L 1780.820313 954.925 L 1367.851563 954.925 Z M 1367.851563 541.95625 " transform="matrix(0.1,0,0,-0.1,0,149.68)" />
      <path style="fill:none;stroke-width:7.9701;stroke-linecap:butt;stroke-linejoin:miter;stroke:rgb(0%,0%,0%);stroke-opacity:1;stroke-miterlimit:10;" d="M 1367.851563 954.925 L 1780.820313 954.925 L 1780.820313 1367.89375 L 1367.851563 1367.89375 Z M 1367.851563 954.925 " transform="matrix(0.1,0,0,-0.1,0,149.68)" />
      <path style="fill:none;stroke-width:7.9701;stroke-linecap:butt;stroke-linejoin:miter;stroke:rgb(0%,0%,0%);stroke-opacity:1;stroke-miterlimit:10;" d="M 1780.820313 128.9875 L 2193.789063 128.9875 L 2193.789063 541.95625 L 1780.820313 541.95625 Z M 1780.820313 128.9875 " transform="matrix(0.1,0,0,-0.1,0,149.68)" />
      <path style="fill:none;stroke-width:7.9701;stroke-linecap:butt;stroke-linejoin:miter;stroke:rgb(0%,0%,0%);stroke-opacity:1;stroke-miterlimit:10;" d="M 1780.820313 541.95625 L 2193.789063 541.95625 L 2193.789063 954.925 L 1780.820313 954.925 Z M 1780.820313 541.95625 " transform="matrix(0.1,0,0,-0.1,0,149.68)" />
      <path style="fill:none;stroke-width:7.9701;stroke-linecap:butt;stroke-linejoin:miter;stroke:rgb(0%,0%,0%);stroke-opacity:1;stroke-miterlimit:10;" d="M 1780.820313 954.925 L 2193.789063 954.925 L 2193.789063 1367.89375 L 1780.820313 1367.89375 Z M 1780.820313 954.925 " transform="matrix(0.1,0,0,-0.1,0,149.68)" />
      <path style="fill:none;stroke-width:7.9701;stroke-linecap:butt;stroke-linejoin:miter;stroke:rgb(0%,0%,0%);stroke-opacity:1;stroke-miterlimit:10;" d="M 2193.789063 128.9875 L 2606.757813 128.9875 L 2606.757813 541.95625 L 2193.789063 541.95625 Z M 2193.789063 128.9875 " transform="matrix(0.1,0,0,-0.1,0,149.68)" />
      <path style="fill:none;stroke-width:7.9701;stroke-linecap:butt;stroke-linejoin:miter;stroke:rgb(0%,0%,0%);stroke-opacity:1;stroke-miterlimit:10;" d="M 2193.789063 541.95625 L 2606.757813 541.95625 L 2606.757813 954.925 L 2193.789063 954.925 Z M 2193.789063 541.95625 " transform="matrix(0.1,0,0,-0.1,0,149.68)" />
      <path style="fill:none;stroke-width:7.9701;stroke-linecap:butt;stroke-linejoin:miter;stroke:rgb(0%,0%,0%);stroke-opacity:1;stroke-miterlimit:10;" d="M 2193.789063 954.925 L 2606.757813 954.925 L 2606.757813 1367.89375 L 2193.789063 1367.89375 Z M 2193.789063 954.925 " transform="matrix(0.1,0,0,-0.1,0,149.68)" />
      <path style=" stroke:none;fill-rule:nonzero;fill:rgb(100%,94.898987%,0%);fill-opacity:1;" d="M 25.042969 107.628906 L 27.605469 115.191406 L 22.832031 121.59375 L 30.816406 121.492188 L 35.425781 128.011719 L 37.796875 120.382813 L 45.421875 118.015625 L 38.902344 113.402344 L 39.007813 105.417969 L 32.605469 110.195313 " />
      <path style="fill:none;stroke-width:7.9701;stroke-linecap:butt;stroke-linejoin:miter;stroke:rgb(0%,0%,0%);stroke-opacity:1;stroke-miterlimit:10;" d="M 250.429688 420.510938 L 276.054688 344.885938 L 228.320313 280.8625 L 308.164063 281.878125 L 354.257813 216.682813 L 377.96875 292.971875 L 454.21875 316.64375 L 389.023438 362.776563 L 390.078125 442.620313 L 326.054688 394.846875 Z M 250.429688 420.510938 " transform="matrix(0.1,0,0,-0.1,0,149.68)" />
      <path style=" stroke:none;fill-rule:nonzero;fill:rgb(100%,94.898987%,0%);fill-opacity:1;" d="M 25.042969 66.332031 L 27.605469 73.894531 L 22.832031 80.296875 L 30.816406 80.195313 L 35.425781 86.714844 L 37.796875 79.089844 L 45.421875 76.71875 L 38.902344 72.105469 L 39.007813 64.121094 L 32.605469 68.898438 " />
      <path style="fill:none;stroke-width:7.9701;stroke-linecap:butt;stroke-linejoin:miter;stroke:rgb(0%,0%,0%);stroke-opacity:1;stroke-miterlimit:10;" d="M 250.429688 833.479688 L 276.054688 757.854688 L 228.320313 693.83125 L 308.164063 694.846875 L 354.257813 629.651563 L 377.96875 705.901563 L 454.21875 729.6125 L 389.023438 775.745313 L 390.078125 855.589063 L 326.054688 807.815625 Z M 250.429688 833.479688 " transform="matrix(0.1,0,0,-0.1,0,149.68)" />
      <path style=" stroke:none;fill-rule:nonzero;fill:rgb(100%,94.898987%,0%);fill-opacity:1;" d="M 25.042969 25.035156 L 27.605469 32.601563 L 22.832031 39 L 30.816406 38.898438 L 35.425781 45.417969 L 37.796875 37.792969 L 45.421875 35.421875 L 38.902344 30.8125 L 39.007813 22.824219 L 32.605469 27.601563 " />
      <path style="fill:none;stroke-width:7.9701;stroke-linecap:butt;stroke-linejoin:miter;stroke:rgb(0%,0%,0%);stroke-opacity:1;stroke-miterlimit:10;" d="M 250.429688 1246.448438 L 276.054688 1170.784375 L 228.320313 1106.8 L 308.164063 1107.815625 L 354.257813 1042.620313 L 377.96875 1118.870313 L 454.21875 1142.58125 L 389.023438 1188.675 L 390.078125 1268.557813 L 326.054688 1220.784375 Z M 250.429688 1246.448438 " transform="matrix(0.1,0,0,-0.1,0,149.68)" />
      <path style=" stroke:none;fill-rule:nonzero;fill:rgb(100%,94.898987%,0%);fill-opacity:1;" d="M 66.339844 107.628906 L 68.902344 115.191406 L 64.128906 121.59375 L 72.113281 121.492188 L 76.722656 128.011719 L 79.09375 120.382813 L 86.71875 118.015625 L 80.199219 113.402344 L 80.300781 105.417969 L 73.902344 110.195313 " />
      <path style="fill:none;stroke-width:7.9701;stroke-linecap:butt;stroke-linejoin:miter;stroke:rgb(0%,0%,0%);stroke-opacity:1;stroke-miterlimit:10;" d="M 663.398438 420.510938 L 689.023438 344.885938 L 641.289063 280.8625 L 721.132813 281.878125 L 767.226563 216.682813 L 790.9375 292.971875 L 867.1875 316.64375 L 801.992188 362.776563 L 803.007813 442.620313 L 739.023438 394.846875 Z M 663.398438 420.510938 " transform="matrix(0.1,0,0,-0.1,0,149.68)" />
      <path style=" stroke:none;fill-rule:nonzero;fill:rgb(100%,94.898987%,0%);fill-opacity:1;" d="M 66.339844 66.332031 L 68.902344 73.894531 L 64.128906 80.296875 L 72.113281 80.195313 L 76.722656 86.714844 L 79.09375 79.089844 L 86.71875 76.71875 L 80.199219 72.105469 L 80.300781 64.121094 L 73.902344 68.898438 " />
      <path style="fill:none;stroke-width:7.9701;stroke-linecap:butt;stroke-linejoin:miter;stroke:rgb(0%,0%,0%);stroke-opacity:1;stroke-miterlimit:10;" d="M 663.398438 833.479688 L 689.023438 757.854688 L 641.289063 693.83125 L 721.132813 694.846875 L 767.226563 629.651563 L 790.9375 705.901563 L 867.1875 729.6125 L 801.992188 775.745313 L 803.007813 855.589063 L 739.023438 807.815625 Z M 663.398438 833.479688 " transform="matrix(0.1,0,0,-0.1,0,149.68)" />
      <path style=" stroke:none;fill-rule:nonzero;fill:rgb(100%,94.898987%,0%);fill-opacity:1;" d="M 66.339844 25.035156 L 68.902344 32.601563 L 64.128906 39 L 72.113281 38.898438 L 76.722656 45.417969 L 79.09375 37.792969 L 86.71875 35.421875 L 80.199219 30.8125 L 80.300781 22.824219 L 73.902344 27.601563 " />
      <path style="fill:none;stroke-width:7.9701;stroke-linecap:butt;stroke-linejoin:miter;stroke:rgb(0%,0%,0%);stroke-opacity:1;stroke-miterlimit:10;" d="M 663.398438 1246.448438 L 689.023438 1170.784375 L 641.289063 1106.8 L 721.132813 1107.815625 L 767.226563 1042.620313 L 790.9375 1118.870313 L 867.1875 1142.58125 L 801.992188 1188.675 L 803.007813 1268.557813 L 739.023438 1220.784375 Z M 663.398438 1246.448438 " transform="matrix(0.1,0,0,-0.1,0,149.68)" />
      <path style=" stroke:none;fill-rule:nonzero;fill:rgb(100%,94.898987%,0%);fill-opacity:1;" d="M 107.636719 107.628906 L 110.199219 115.191406 L 105.421875 121.59375 L 113.410156 121.492188 L 118.019531 128.011719 L 120.390625 120.382813 L 128.015625 118.015625 L 121.496094 113.402344 L 121.597656 105.417969 L 115.199219 110.195313 " />
      <path style="fill:none;stroke-width:7.9701;stroke-linecap:butt;stroke-linejoin:miter;stroke:rgb(0%,0%,0%);stroke-opacity:1;stroke-miterlimit:10;" d="M 1076.367188 420.510938 L 1101.992188 344.885938 L 1054.21875 280.8625 L 1134.101563 281.878125 L 1180.195313 216.682813 L 1203.90625 292.971875 L 1280.15625 316.64375 L 1214.960938 362.776563 L 1215.976563 442.620313 L 1151.992188 394.846875 Z M 1076.367188 420.510938 " transform="matrix(0.1,0,0,-0.1,0,149.68)" />
      <path style=" stroke:none;fill-rule:nonzero;fill:rgb(100%,94.898987%,0%);fill-opacity:1;" d="M 107.636719 66.332031 L 110.199219 73.894531 L 105.421875 80.296875 L 113.410156 80.195313 L 118.019531 86.714844 L 120.390625 79.089844 L 128.015625 76.71875 L 121.496094 72.105469 L 121.597656 64.121094 L 115.199219 68.898438 " />
      <path style="fill:none;stroke-width:7.9701;stroke-linecap:butt;stroke-linejoin:miter;stroke:rgb(0%,0%,0%);stroke-opacity:1;stroke-miterlimit:10;" d="M 1076.367188 833.479688 L 1101.992188 757.854688 L 1054.21875 693.83125 L 1134.101563 694.846875 L 1180.195313 629.651563 L 1203.90625 705.901563 L 1280.15625 729.6125 L 1214.960938 775.745313 L 1215.976563 855.589063 L 1151.992188 807.815625 Z M 1076.367188 833.479688 " transform="matrix(0.1,0,0,-0.1,0,149.68)" />
      <path style=" stroke:none;fill-rule:nonzero;fill:rgb(100%,94.898987%,0%);fill-opacity:1;" d="M 107.636719 25.035156 L 110.199219 32.601563 L 105.421875 39 L 113.410156 38.898438 L 118.019531 45.417969 L 120.390625 37.792969 L 128.015625 35.421875 L 121.496094 30.8125 L 121.597656 22.824219 L 115.199219 27.601563 " />
      <path style="fill:none;stroke-width:7.9701;stroke-linecap:butt;stroke-linejoin:miter;stroke:rgb(0%,0%,0%);stroke-opacity:1;stroke-miterlimit:10;" d="M 1076.367188 1246.448438 L 1101.992188 1170.784375 L 1054.21875 1106.8 L 1134.101563 1107.815625 L 1180.195313 1042.620313 L 1203.90625 1118.870313 L 1280.15625 1142.58125 L 1214.960938 1188.675 L 1215.976563 1268.557813 L 1151.992188 1220.784375 Z M 1076.367188 1246.448438 " transform="matrix(0.1,0,0,-0.1,0,149.68)" />
      <path style=" stroke:none;fill-rule:nonzero;fill:rgb(100%,94.898987%,0%);fill-opacity:1;" d="M 148.929688 107.628906 L 151.496094 115.191406 L 146.71875 121.59375 L 154.703125 121.492188 L 159.316406 128.011719 L 161.6875 120.382813 L 169.3125 118.015625 L 162.792969 113.402344 L 162.894531 105.417969 L 156.492188 110.195313 " />
      <path style="fill:none;stroke-width:7.9701;stroke-linecap:butt;stroke-linejoin:miter;stroke:rgb(0%,0%,0%);stroke-opacity:1;stroke-miterlimit:10;" d="M 1489.296875 420.510938 L 1514.960938 344.885938 L 1467.1875 280.8625 L 1547.03125 281.878125 L 1593.164063 216.682813 L 1616.875 292.971875 L 1693.125 316.64375 L 1627.929688 362.776563 L 1628.945313 442.620313 L 1564.921875 394.846875 Z M 1489.296875 420.510938 " transform="matrix(0.1,0,0,-0.1,0,149.68)" />
      <path style=" stroke:none;fill-rule:nonzero;fill:rgb(100%,94.898987%,0%);fill-opacity:1;" d="M 148.929688 66.332031 L 151.496094 73.894531 L 146.71875 80.296875 L 154.703125 80.195313 L 159.316406 86.714844 L 161.6875 79.089844 L 169.3125 76.71875 L 162.792969 72.105469 L 162.894531 64.121094 L 156.492188 68.898438 " />
      <path style="fill:none;stroke-width:7.9701;stroke-linecap:butt;stroke-linejoin:miter;stroke:rgb(0%,0%,0%);stroke-opacity:1;stroke-miterlimit:10;" d="M 1489.296875 833.479688 L 1514.960938 757.854688 L 1467.1875 693.83125 L 1547.03125 694.846875 L 1593.164063 629.651563 L 1616.875 705.901563 L 1693.125 729.6125 L 1627.929688 775.745313 L 1628.945313 855.589063 L 1564.921875 807.815625 Z M 1489.296875 833.479688 " transform="matrix(0.1,0,0,-0.1,0,149.68)" />
      <path style=" stroke:none;fill-rule:nonzero;fill:rgb(100%,94.898987%,0%);fill-opacity:1;" d="M 148.929688 25.035156 L 151.496094 32.601563 L 146.71875 39 L 154.703125 38.898438 L 159.316406 45.417969 L 161.6875 37.792969 L 169.3125 35.421875 L 162.792969 30.8125 L 162.894531 22.824219 L 156.492188 27.601563 " />
      <path style="fill:none;stroke-width:7.9701;stroke-linecap:butt;stroke-linejoin:miter;stroke:rgb(0%,0%,0%);stroke-opacity:1;stroke-miterlimit:10;" d="M 1489.296875 1246.448438 L 1514.960938 1170.784375 L 1467.1875 1106.8 L 1547.03125 1107.815625 L 1593.164063 1042.620313 L 1616.875 1118.870313 L 1693.125 1142.58125 L 1627.929688 1188.675 L 1628.945313 1268.557813 L 1564.921875 1220.784375 Z M 1489.296875 1246.448438 " transform="matrix(0.1,0,0,-0.1,0,149.68)" />
      <path style=" stroke:none;fill-rule:nonzero;fill:rgb(100%,94.898987%,0%);fill-opacity:1;" d="M 190.226563 107.628906 L 192.792969 115.191406 L 188.015625 121.59375 L 196 121.492188 L 200.613281 128.011719 L 202.980469 120.382813 L 210.609375 118.015625 L 204.089844 113.402344 L 204.191406 105.417969 L 197.789063 110.195313 " />
      <path style="fill:none;stroke-width:7.9701;stroke-linecap:butt;stroke-linejoin:miter;stroke:rgb(0%,0%,0%);stroke-opacity:1;stroke-miterlimit:10;" d="M 1902.265625 420.510938 L 1927.929688 344.885938 L 1880.15625 280.8625 L 1960 281.878125 L 2006.132813 216.682813 L 2029.804688 292.971875 L 2106.09375 316.64375 L 2040.898438 362.776563 L 2041.914063 442.620313 L 1977.890625 394.846875 Z M 1902.265625 420.510938 " transform="matrix(0.1,0,0,-0.1,0,149.68)" />
      <path style=" stroke:none;fill-rule:nonzero;fill:rgb(100%,94.898987%,0%);fill-opacity:1;" d="M 190.226563 66.332031 L 192.792969 73.894531 L 188.015625 80.296875 L 196 80.195313 L 200.613281 86.714844 L 202.980469 79.089844 L 210.609375 76.71875 L 204.089844 72.105469 L 204.191406 64.121094 L 197.789063 68.898438 " />
      <path style="fill:none;stroke-width:7.9701;stroke-linecap:butt;stroke-linejoin:miter;stroke:rgb(0%,0%,0%);stroke-opacity:1;stroke-miterlimit:10;" d="M 1902.265625 833.479688 L 1927.929688 757.854688 L 1880.15625 693.83125 L 1960 694.846875 L 2006.132813 629.651563 L 2029.804688 705.901563 L 2106.09375 729.6125 L 2040.898438 775.745313 L 2041.914063 855.589063 L 1977.890625 807.815625 Z M 1902.265625 833.479688 " transform="matrix(0.1,0,0,-0.1,0,149.68)" />
      <path style=" stroke:none;fill-rule:nonzero;fill:rgb(100%,94.898987%,0%);fill-opacity:1;" d="M 190.226563 25.035156 L 192.792969 32.601563 L 188.015625 39 L 196 38.898438 L 200.613281 45.417969 L 202.980469 37.792969 L 210.609375 35.421875 L 204.089844 30.8125 L 204.191406 22.824219 L 197.789063 27.601563 " />
      <path style="fill:none;stroke-width:7.9701;stroke-linecap:butt;stroke-linejoin:miter;stroke:rgb(0%,0%,0%);stroke-opacity:1;stroke-miterlimit:10;" d="M 1902.265625 1246.448438 L 1927.929688 1170.784375 L 1880.15625 1106.8 L 1960 1107.815625 L 2006.132813 1042.620313 L 2029.804688 1118.870313 L 2106.09375 1142.58125 L 2040.898438 1188.675 L 2041.914063 1268.557813 L 1977.890625 1220.784375 Z M 1902.265625 1246.448438 " transform="matrix(0.1,0,0,-0.1,0,149.68)" />
      <path style=" stroke:none;fill-rule:nonzero;fill:rgb(100%,94.898987%,0%);fill-opacity:1;" d="M 231.523438 107.628906 L 234.089844 115.191406 L 229.3125 121.59375 L 237.296875 121.492188 L 241.90625 128.011719 L 244.277344 120.382813 L 251.90625 118.015625 L 245.382813 113.402344 L 245.484375 105.417969 L 239.085938 110.195313 " />
      <path style="fill:none;stroke-width:7.9701;stroke-linecap:butt;stroke-linejoin:miter;stroke:rgb(0%,0%,0%);stroke-opacity:1;stroke-miterlimit:10;" d="M 2315.234375 420.510938 L 2340.898438 344.885938 L 2293.125 280.8625 L 2372.96875 281.878125 L 2419.0625 216.682813 L 2442.773438 292.971875 L 2519.0625 316.64375 L 2453.828125 362.776563 L 2454.84375 442.620313 L 2390.859375 394.846875 Z M 2315.234375 420.510938 " transform="matrix(0.1,0,0,-0.1,0,149.68)" />
      <path style=" stroke:none;fill-rule:nonzero;fill:rgb(100%,94.898987%,0%);fill-opacity:1;" d="M 231.523438 66.332031 L 234.089844 73.894531 L 229.3125 80.296875 L 237.296875 80.195313 L 241.90625 86.714844 L 244.277344 79.089844 L 251.90625 76.71875 L 245.382813 72.105469 L 245.484375 64.121094 L 239.085938 68.898438 " />
      <path style="fill:none;stroke-width:7.9701;stroke-linecap:butt;stroke-linejoin:miter;stroke:rgb(0%,0%,0%);stroke-opacity:1;stroke-miterlimit:10;" d="M 2315.234375 833.479688 L 2340.898438 757.854688 L 2293.125 693.83125 L 2372.96875 694.846875 L 2419.0625 629.651563 L 2442.773438 705.901563 L 2519.0625 729.6125 L 2453.828125 775.745313 L 2454.84375 855.589063 L 2390.859375 807.815625 Z M 2315.234375 833.479688 " transform="matrix(0.1,0,0,-0.1,0,149.68)" />
      <path style=" stroke:none;fill-rule:nonzero;fill:rgb(100%,94.898987%,0%);fill-opacity:1;" d="M 231.523438 25.035156 L 234.089844 32.601563 L 229.3125 39 L 237.296875 38.898438 L 241.90625 45.417969 L 244.277344 37.792969 L 251.90625 35.421875 L 245.382813 30.8125 L 245.484375 22.824219 L 239.085938 27.601563 " />
      <path style="fill:none;stroke-width:7.9701;stroke-linecap:butt;stroke-linejoin:miter;stroke:rgb(0%,0%,0%);stroke-opacity:1;stroke-miterlimit:10;" d="M 2315.234375 1246.448438 L 2340.898438 1170.784375 L 2293.125 1106.8 L 2372.96875 1107.815625 L 2419.0625 1042.620313 L 2442.773438 1118.870313 L 2519.0625 1142.58125 L 2453.828125 1188.675 L 2454.84375 1268.557813 L 2390.859375 1220.784375 Z M 2315.234375 1246.448438 " transform="matrix(0.1,0,0,-0.1,0,149.68)" />
    </g>
  </svg>