<svg class="displayed_equation" xmlns="http://www.w3.org/2000/svg" xmlns:xlink="http://www.w3.org/1999/xlink" width="144.12pt" height="301.87pt" viewBox="0 0 144.12 301.87" version="1.1">
    <g id="svg310135982730tikz_00004surface16">
      <path style="fill:none;stroke-width:7.9701;stroke-linecap:butt;stroke-linejoin:miter;stroke:rgb(0%,0%,0%);stroke-opacity:1;stroke-miterlimit:10;" d="M 128.984375 128.973437 L 523.359375 128.973437 L 523.359375 523.3875 L 128.984375 523.3875 Z M 128.984375 128.973437 " transform="matrix(0.1,0,0,-0.1,0,301.87)" />
      <path style="fill:none;stroke-width:7.9701;stroke-linecap:butt;stroke-linejoin:miter;stroke:rgb(0%,0%,0%);stroke-opacity:1;stroke-miterlimit:10;" d="M 128.984375 523.3875 L 523.359375 523.3875 L 523.359375 917.801562 L 128.984375 917.801562 Z M 128.984375 523.3875 " transform="matrix(0.1,0,0,-0.1,0,301.87)" />
      <path style="fill:none;stroke-width:7.9701;stroke-linecap:butt;stroke-linejoin:miter;stroke:rgb(0%,0%,0%);stroke-opacity:1;stroke-miterlimit:10;" d="M 128.984375 917.801562 L 523.359375 917.801562 L 523.359375 1312.176562 L 128.984375 1312.176562 Z M 128.984375 917.801562 " transform="matrix(0.1,0,0,-0.1,0,301.87)" />
      <path style="fill:none;stroke-width:7.9701;stroke-linecap:butt;stroke-linejoin:miter;stroke:rgb(0%,0%,0%);stroke-opacity:1;stroke-miterlimit:10;" d="M 128.984375 1312.176562 L 523.359375 1312.176562 L 523.359375 1706.590625 L 128.984375 1706.590625 Z M 128.984375 1312.176562 " transform="matrix(0.1,0,0,-0.1,0,301.87)" />
      <path style="fill:none;stroke-width:7.9701;stroke-linecap:butt;stroke-linejoin:miter;stroke:rgb(0%,0%,0%);stroke-opacity:1;stroke-miterlimit:10;" d="M 128.984375 1706.590625 L 523.359375 1706.590625 L 523.359375 2100.965625 L 128.984375 2100.965625 Z M 128.984375 1706.590625 " transform="matrix(0.1,0,0,-0.1,0,301.87)" />
      <path style="fill:none;stroke-width:7.9701;stroke-linecap:butt;stroke-linejoin:miter;stroke:rgb(0%,0%,0%);stroke-opacity:1;stroke-miterlimit:10;" d="M 128.984375 2100.965625 L 523.359375 2100.965625 L 523.359375 2495.379687 L 128.984375 2495.379687 Z M 128.984375 2100.965625 " transform="matrix(0.1,0,0,-0.1,0,301.87)" />
      <path style="fill:none;stroke-width:7.9701;stroke-linecap:butt;stroke-linejoin:miter;stroke:rgb(0%,0%,0%);stroke-opacity:1;stroke-miterlimit:10;" d="M 128.984375 2495.379687 L 523.359375 2495.379687 L 523.359375 2889.754687 L 128.984375 2889.754687 Z M 128.984375 2495.379687 " transform="matrix(0.1,0,0,-0.1,0,301.87)" />
      <path style="fill:none;stroke-width:7.9701;stroke-linecap:butt;stroke-linejoin:miter;stroke:rgb(0%,0%,0%);stroke-opacity:1;stroke-miterlimit:10;" d="M 523.359375 128.973437 L 917.773438 128.973437 L 917.773438 523.3875 L 523.359375 523.3875 Z M 523.359375 128.973437 " transform="matrix(0.1,0,0,-0.1,0,301.87)" />
      <path style="fill:none;stroke-width:7.9701;stroke-linecap:butt;stroke-linejoin:miter;stroke:rgb(0%,0%,0%);stroke-opacity:1;stroke-miterlimit:10;" d="M 523.359375 523.3875 L 917.773438 523.3875 L 917.773438 917.801562 L 523.359375 917.801562 Z M 523.359375 523.3875 " transform="matrix(0.1,0,0,-0.1,0,301.87)" />
      <path style="fill:none;stroke-width:7.9701;stroke-linecap:butt;stroke-linejoin:miter;stroke:rgb(0%,0%,0%);stroke-opacity:1;stroke-miterlimit:10;" d="M 523.359375 917.801562 L 917.773438 917.801562 L 917.773438 1312.176562 L 523.359375 1312.176562 Z M 523.359375 917.801562 " transform="matrix(0.1,0,0,-0.1,0,301.87)" />
      <path style="fill:none;stroke-width:7.9701;stroke-linecap:butt;stroke-linejoin:miter;stroke:rgb(0%,0%,0%);stroke-opacity:1;stroke-miterlimit:10;" d="M 523.359375 1312.176562 L 917.773438 1312.176562 L 917.773438 1706.590625 L 523.359375 1706.590625 Z M 523.359375 1312.176562 " transform="matrix(0.1,0,0,-0.1,0,301.87)" />
      <path style="fill:none;stroke-width:7.9701;stroke-linecap:butt;stroke-linejoin:miter;stroke:rgb(0%,0%,0%);stroke-opacity:1;stroke-miterlimit:10;" d="M 523.359375 1706.590625 L 917.773438 1706.590625 L 917.773438 2100.965625 L 523.359375 2100.965625 Z M 523.359375 1706.590625 " transform="matrix(0.1,0,0,-0.1,0,301.87)" />
      <path style="fill:none;stroke-width:7.9701;stroke-linecap:butt;stroke-linejoin:miter;stroke:rgb(0%,0%,0%);stroke-opacity:1;stroke-miterlimit:10;" d="M 523.359375 2100.965625 L 917.773438 2100.965625 L 917.773438 2495.379687 L 523.359375 2495.379687 Z M 523.359375 2100.965625 " transform="matrix(0.1,0,0,-0.1,0,301.87)" />
      <path style="fill:none;stroke-width:7.9701;stroke-linecap:butt;stroke-linejoin:miter;stroke:rgb(0%,0%,0%);stroke-opacity:1;stroke-miterlimit:10;" d="M 523.359375 2495.379687 L 917.773438 2495.379687 L 917.773438 2889.754687 L 523.359375 2889.754687 Z M 523.359375 2495.379687 " transform="matrix(0.1,0,0,-0.1,0,301.87)" />
      <path style="fill:none;stroke-width:7.9701;stroke-linecap:butt;stroke-linejoin:miter;stroke:rgb(0%,0%,0%);stroke-opacity:1;stroke-miterlimit:10;" d="M 917.773438 128.973437 L 1312.1875 128.973437 L 1312.1875 523.3875 L 917.773438 523.3875 Z M 917.773438 128.973437 " transform="matrix(0.1,0,0,-0.1,0,301.87)" />
      <path style="fill:none;stroke-width:7.9701;stroke-linecap:butt;stroke-linejoin:miter;stroke:rgb(0%,0%,0%);stroke-opacity:1;stroke-miterlimit:10;" d="M 917.773438 523.3875 L 1312.1875 523.3875 L 1312.1875 917.801562 L 917.773438 917.801562 Z M 917.773438 523.3875 " transform="matrix(0.1,0,0,-0.1,0,301.87)" />
      <path style="fill:none;stroke-width:7.9701;stroke-linecap:butt;stroke-linejoin:miter;stroke:rgb(0%,0%,0%);stroke-opacity:1;stroke-miterlimit:10;" d="M 917.773438 917.801562 L 1312.1875 917.801562 L 1312.1875 1312.176562 L 917.773438 1312.176562 Z M 917.773438 917.801562 " transform="matrix(0.1,0,0,-0.1,0,301.87)" />
      <path style="fill:none;stroke-width:7.9701;stroke-linecap:butt;stroke-linejoin:miter;stroke:rgb(0%,0%,0%);stroke-opacity:1;stroke-miterlimit:10;" d="M 917.773438 1312.176562 L 1312.1875 1312.176562 L 1312.1875 1706.590625 L 917.773438 1706.590625 Z M 917.773438 1312.176562 " transform="matrix(0.1,0,0,-0.1,0,301.87)" />
      <path style="fill:none;stroke-width:7.9701;stroke-linecap:butt;stroke-linejoin:miter;stroke:rgb(0%,0%,0%);stroke-opacity:1;stroke-miterlimit:10;" d="M 917.773438 1706.590625 L 1312.1875 1706.590625 L 1312.1875 2100.965625 L 917.773438 2100.965625 Z M 917.773438 1706.590625 " transform="matrix(0.1,0,0,-0.1,0,301.87)" />
      <path style="fill:none;stroke-width:7.9701;stroke-linecap:butt;stroke-linejoin:miter;stroke:rgb(0%,0%,0%);stroke-opacity:1;stroke-miterlimit:10;" d="M 917.773438 2100.965625 L 1312.1875 2100.965625 L 1312.1875 2495.379687 L 917.773438 2495.379687 Z M 917.773438 2100.965625 " transform="matrix(0.1,0,0,-0.1,0,301.87)" />
      <path style="fill:none;stroke-width:7.9701;stroke-linecap:butt;stroke-linejoin:miter;stroke:rgb(0%,0%,0%);stroke-opacity:1;stroke-miterlimit:10;" d="M 917.773438 2495.379687 L 1312.1875 2495.379687 L 1312.1875 2889.754687 L 917.773438 2889.754687 Z M 917.773438 2495.379687 " transform="matrix(0.1,0,0,-0.1,0,301.87)" />
      <path style=" stroke:none;fill-rule:nonzero;fill:rgb(100%,94.898987%,0%);fill-opacity:1;" d="M 24.113281 260.746094 L 26.679688 268.3125 L 21.902344 274.710938 L 29.886719 274.609375 L 34.5 281.128906 L 36.871094 273.503906 L 44.496094 271.132813 L 37.976563 266.519531 L 38.078125 258.535156 L 31.675781 263.3125 " />
      <path style="fill:none;stroke-width:7.9701;stroke-linecap:butt;stroke-linejoin:miter;stroke:rgb(0%,0%,0%);stroke-opacity:1;stroke-miterlimit:10;" d="M 241.132813 411.239062 L 266.796875 335.575 L 219.023438 271.590625 L 298.867188 272.60625 L 345 207.410937 L 368.710938 283.660937 L 444.960938 307.371875 L 379.765625 353.504687 L 380.78125 433.348437 L 316.757813 385.575 Z M 241.132813 411.239062 " transform="matrix(0.1,0,0,-0.1,0,301.87)" />
      <path style=" stroke:none;fill-rule:nonzero;fill:rgb(100%,94.898987%,0%);fill-opacity:1;" d="M 24.113281 221.308594 L 26.679688 228.871094 L 21.902344 235.269531 L 29.886719 235.167969 L 34.5 241.691406 L 36.871094 234.0625 L 44.496094 231.691406 L 37.976563 227.082031 L 38.078125 219.097656 L 31.675781 223.871094 " />
      <path style="fill:none;stroke-width:7.9701;stroke-linecap:butt;stroke-linejoin:miter;stroke:rgb(0%,0%,0%);stroke-opacity:1;stroke-miterlimit:10;" d="M 241.132813 805.614062 L 266.796875 729.989062 L 219.023438 666.004687 L 298.867188 667.020312 L 345 601.785937 L 368.710938 678.075 L 444.960938 701.785937 L 379.765625 747.879687 L 380.78125 827.723437 L 316.757813 779.989062 Z M 241.132813 805.614062 " transform="matrix(0.1,0,0,-0.1,0,301.87)" />
      <path style=" stroke:none;fill-rule:nonzero;fill:rgb(100%,94.898987%,0%);fill-opacity:1;" d="M 24.113281 181.867188 L 26.679688 189.429688 L 21.902344 195.832031 L 29.886719 195.730469 L 34.5 202.25 L 36.871094 194.625 L 44.496094 192.253906 L 37.976563 187.640625 L 38.078125 179.65625 L 31.675781 184.433594 " />
      <path style="fill:none;stroke-width:7.9701;stroke-linecap:butt;stroke-linejoin:miter;stroke:rgb(0%,0%,0%);stroke-opacity:1;stroke-miterlimit:10;" d="M 241.132813 1200.028125 L 266.796875 1124.403125 L 219.023438 1060.379687 L 298.867188 1061.395312 L 345 996.2 L 368.710938 1072.45 L 444.960938 1096.160937 L 379.765625 1142.29375 L 380.78125 1222.1375 L 316.757813 1174.364062 Z M 241.132813 1200.028125 " transform="matrix(0.1,0,0,-0.1,0,301.87)" />
      <path style=" stroke:none;fill-rule:nonzero;fill:rgb(100%,94.898987%,0%);fill-opacity:1;" d="M 24.113281 142.429688 L 26.679688 149.992188 L 21.902344 156.390625 L 29.886719 156.289063 L 34.5 162.808594 L 36.871094 155.183594 L 44.496094 152.8125 L 37.976563 148.203125 L 38.078125 140.21875 L 31.675781 144.992188 " />
      <path style="fill:none;stroke-width:7.9701;stroke-linecap:butt;stroke-linejoin:miter;stroke:rgb(0%,0%,0%);stroke-opacity:1;stroke-miterlimit:10;" d="M 241.132813 1594.403125 L 266.796875 1518.778125 L 219.023438 1454.79375 L 298.867188 1455.809375 L 345 1390.614062 L 368.710938 1466.864062 L 444.960938 1490.575 L 379.765625 1536.66875 L 380.78125 1616.5125 L 316.757813 1568.778125 Z M 241.132813 1594.403125 " transform="matrix(0.1,0,0,-0.1,0,301.87)" />
      <path style=" stroke:none;fill-rule:nonzero;fill:rgb(100%,94.898987%,0%);fill-opacity:1;" d="M 24.113281 102.988281 L 26.679688 110.550781 L 21.902344 116.953125 L 29.886719 116.851563 L 34.5 123.371094 L 36.871094 115.742188 L 44.496094 113.375 L 37.976563 108.761719 L 38.078125 100.777344 L 31.675781 105.554688 " />
      <path style="fill:none;stroke-width:7.9701;stroke-linecap:butt;stroke-linejoin:miter;stroke:rgb(0%,0%,0%);stroke-opacity:1;stroke-miterlimit:10;" d="M 241.132813 1988.817187 L 266.796875 1913.192187 L 219.023438 1849.16875 L 298.867188 1850.184375 L 345 1784.989062 L 368.710938 1861.278125 L 444.960938 1884.95 L 379.765625 1931.082812 L 380.78125 2010.926562 L 316.757813 1963.153125 Z M 241.132813 1988.817187 " transform="matrix(0.1,0,0,-0.1,0,301.87)" />
      <path style=" stroke:none;fill-rule:nonzero;fill:rgb(100%,94.898987%,0%);fill-opacity:1;" d="M 24.113281 63.550781 L 26.679688 71.113281 L 21.902344 77.511719 L 29.886719 77.410156 L 34.5 83.929688 L 36.871094 76.304688 L 44.496094 73.933594 L 37.976563 69.324219 L 38.078125 61.339844 L 31.675781 66.113281 " />
      <path style="fill:none;stroke-width:7.9701;stroke-linecap:butt;stroke-linejoin:miter;stroke:rgb(0%,0%,0%);stroke-opacity:1;stroke-miterlimit:10;" d="M 241.132813 2383.192187 L 266.796875 2307.567187 L 219.023438 2243.582812 L 298.867188 2244.598437 L 345 2179.403125 L 368.710938 2255.653125 L 444.960938 2279.364062 L 379.765625 2325.457812 L 380.78125 2405.301562 L 316.757813 2357.567187 Z M 241.132813 2383.192187 " transform="matrix(0.1,0,0,-0.1,0,301.87)" />
      <path style=" stroke:none;fill-rule:nonzero;fill:rgb(100%,94.898987%,0%);fill-opacity:1;" d="M 24.113281 24.109375 L 26.679688 31.671875 L 21.902344 38.074219 L 29.886719 37.972656 L 34.5 44.492188 L 36.871094 36.863281 L 44.496094 34.496094 L 37.976563 29.882813 L 38.078125 21.898438 L 31.675781 26.675781 " />
      <path style="fill:none;stroke-width:7.9701;stroke-linecap:butt;stroke-linejoin:miter;stroke:rgb(0%,0%,0%);stroke-opacity:1;stroke-miterlimit:10;" d="M 241.132813 2777.60625 L 266.796875 2701.98125 L 219.023438 2637.957812 L 298.867188 2638.973437 L 345 2573.778125 L 368.710938 2650.067187 L 444.960938 2673.739062 L 379.765625 2719.871875 L 380.78125 2799.715625 L 316.757813 2751.942187 Z M 241.132813 2777.60625 " transform="matrix(0.1,0,0,-0.1,0,301.87)" />
      <path style=" stroke:none;fill-rule:nonzero;fill:rgb(100%,94.898987%,0%);fill-opacity:1;" d="M 63.554688 260.746094 L 66.117188 268.3125 L 61.34375 274.710938 L 69.328125 274.609375 L 73.9375 281.128906 L 76.308594 273.503906 L 83.933594 271.132813 L 77.414063 266.519531 L 77.515625 258.535156 L 71.117188 263.3125 " />
      <path style="fill:none;stroke-width:7.9701;stroke-linecap:butt;stroke-linejoin:miter;stroke:rgb(0%,0%,0%);stroke-opacity:1;stroke-miterlimit:10;" d="M 635.546875 411.239062 L 661.171875 335.575 L 613.4375 271.590625 L 693.28125 272.60625 L 739.375 207.410937 L 763.085938 283.660937 L 839.335938 307.371875 L 774.140625 353.504687 L 775.15625 433.348437 L 711.171875 385.575 Z M 635.546875 411.239062 " transform="matrix(0.1,0,0,-0.1,0,301.87)" />
      <path style=" stroke:none;fill-rule:nonzero;fill:rgb(100%,94.898987%,0%);fill-opacity:1;" d="M 63.554688 221.308594 L 66.117188 228.871094 L 61.34375 235.269531 L 69.328125 235.167969 L 73.9375 241.691406 L 76.308594 234.0625 L 83.933594 231.691406 L 77.414063 227.082031 L 77.515625 219.097656 L 71.117188 223.871094 " />
      <path style="fill:none;stroke-width:7.9701;stroke-linecap:butt;stroke-linejoin:miter;stroke:rgb(0%,0%,0%);stroke-opacity:1;stroke-miterlimit:10;" d="M 635.546875 805.614062 L 661.171875 729.989062 L 613.4375 666.004687 L 693.28125 667.020312 L 739.375 601.785937 L 763.085938 678.075 L 839.335938 701.785937 L 774.140625 747.879687 L 775.15625 827.723437 L 711.171875 779.989062 Z M 635.546875 805.614062 " transform="matrix(0.1,0,0,-0.1,0,301.87)" />
      <path style=" stroke:none;fill-rule:nonzero;fill:rgb(100%,94.898987%,0%);fill-opacity:1;" d="M 63.554688 181.867188 L 66.117188 189.429688 L 61.34375 195.832031 L 69.328125 195.730469 L 73.9375 202.25 L 76.308594 194.625 L 83.933594 192.253906 L 77.414063 187.640625 L 77.515625 179.65625 L 71.117188 184.433594 " />
      <path style="fill:none;stroke-width:7.9701;stroke-linecap:butt;stroke-linejoin:miter;stroke:rgb(0%,0%,0%);stroke-opacity:1;stroke-miterlimit:10;" d="M 635.546875 1200.028125 L 661.171875 1124.403125 L 613.4375 1060.379687 L 693.28125 1061.395312 L 739.375 996.2 L 763.085938 1072.45 L 839.335938 1096.160937 L 774.140625 1142.29375 L 775.15625 1222.1375 L 711.171875 1174.364062 Z M 635.546875 1200.028125 " transform="matrix(0.1,0,0,-0.1,0,301.87)" />
      <path style=" stroke:none;fill-rule:nonzero;fill:rgb(100%,94.898987%,0%);fill-opacity:1;" d="M 63.554688 142.429688 L 66.117188 149.992188 L 61.34375 156.390625 L 69.328125 156.289063 L 73.9375 162.808594 L 76.308594 155.183594 L 83.933594 152.8125 L 77.414063 148.203125 L 77.515625 140.21875 L 71.117188 144.992188 " />
      <path style="fill:none;stroke-width:7.9701;stroke-linecap:butt;stroke-linejoin:miter;stroke:rgb(0%,0%,0%);stroke-opacity:1;stroke-miterlimit:10;" d="M 635.546875 1594.403125 L 661.171875 1518.778125 L 613.4375 1454.79375 L 693.28125 1455.809375 L 739.375 1390.614062 L 763.085938 1466.864062 L 839.335938 1490.575 L 774.140625 1536.66875 L 775.15625 1616.5125 L 711.171875 1568.778125 Z M 635.546875 1594.403125 " transform="matrix(0.1,0,0,-0.1,0,301.87)" />
      <path style=" stroke:none;fill-rule:nonzero;fill:rgb(100%,94.898987%,0%);fill-opacity:1;" d="M 63.554688 102.988281 L 66.117188 110.550781 L 61.34375 116.953125 L 69.328125 116.851563 L 73.9375 123.371094 L 76.308594 115.742188 L 83.933594 113.375 L 77.414063 108.761719 L 77.515625 100.777344 L 71.117188 105.554688 " />
      <path style="fill:none;stroke-width:7.9701;stroke-linecap:butt;stroke-linejoin:miter;stroke:rgb(0%,0%,0%);stroke-opacity:1;stroke-miterlimit:10;" d="M 635.546875 1988.817187 L 661.171875 1913.192187 L 613.4375 1849.16875 L 693.28125 1850.184375 L 739.375 1784.989062 L 763.085938 1861.278125 L 839.335938 1884.95 L 774.140625 1931.082812 L 775.15625 2010.926562 L 711.171875 1963.153125 Z M 635.546875 1988.817187 " transform="matrix(0.1,0,0,-0.1,0,301.87)" />
      <path style=" stroke:none;fill-rule:nonzero;fill:rgb(100%,94.898987%,0%);fill-opacity:1;" d="M 63.554688 63.550781 L 66.117188 71.113281 L 61.34375 77.511719 L 69.328125 77.410156 L 73.9375 83.929688 L 76.308594 76.304688 L 83.933594 73.933594 L 77.414063 69.324219 L 77.515625 61.339844 L 71.117188 66.113281 " />
      <path style="fill:none;stroke-width:7.9701;stroke-linecap:butt;stroke-linejoin:miter;stroke:rgb(0%,0%,0%);stroke-opacity:1;stroke-miterlimit:10;" d="M 635.546875 2383.192187 L 661.171875 2307.567187 L 613.4375 2243.582812 L 693.28125 2244.598437 L 739.375 2179.403125 L 763.085938 2255.653125 L 839.335938 2279.364062 L 774.140625 2325.457812 L 775.15625 2405.301562 L 711.171875 2357.567187 Z M 635.546875 2383.192187 " transform="matrix(0.1,0,0,-0.1,0,301.87)" />
      <path style=" stroke:none;fill-rule:nonzero;fill:rgb(100%,94.898987%,0%);fill-opacity:1;" d="M 63.554688 24.109375 L 66.117188 31.671875 L 61.34375 38.074219 L 69.328125 37.972656 L 73.9375 44.492188 L 76.308594 36.863281 L 83.933594 34.496094 L 77.414063 29.882813 L 77.515625 21.898438 L 71.117188 26.675781 " />
      <path style="fill:none;stroke-width:7.9701;stroke-linecap:butt;stroke-linejoin:miter;stroke:rgb(0%,0%,0%);stroke-opacity:1;stroke-miterlimit:10;" d="M 635.546875 2777.60625 L 661.171875 2701.98125 L 613.4375 2637.957812 L 693.28125 2638.973437 L 739.375 2573.778125 L 763.085938 2650.067187 L 839.335938 2673.739062 L 774.140625 2719.871875 L 775.15625 2799.715625 L 711.171875 2751.942187 Z M 635.546875 2777.60625 " transform="matrix(0.1,0,0,-0.1,0,301.87)" />
      <path style=" stroke:none;fill-rule:nonzero;fill:rgb(100%,94.898987%,0%);fill-opacity:1;" d="M 102.992188 260.746094 L 105.558594 268.3125 L 100.78125 274.710938 L 108.765625 274.609375 L 113.378906 281.128906 L 115.75 273.503906 L 123.375 271.132813 L 116.855469 266.519531 L 116.957031 258.535156 L 110.558594 263.3125 " />
      <path style="fill:none;stroke-width:7.9701;stroke-linecap:butt;stroke-linejoin:miter;stroke:rgb(0%,0%,0%);stroke-opacity:1;stroke-miterlimit:10;" d="M 1029.921875 411.239062 L 1055.585938 335.575 L 1007.8125 271.590625 L 1087.65625 272.60625 L 1133.789063 207.410937 L 1157.5 283.660937 L 1233.75 307.371875 L 1168.554688 353.504687 L 1169.570313 433.348437 L 1105.585938 385.575 Z M 1029.921875 411.239062 " transform="matrix(0.1,0,0,-0.1,0,301.87)" />
      <path style=" stroke:none;fill-rule:nonzero;fill:rgb(100%,94.898987%,0%);fill-opacity:1;" d="M 102.992188 221.308594 L 105.558594 228.871094 L 100.78125 235.269531 L 108.765625 235.167969 L 113.378906 241.691406 L 115.75 234.0625 L 123.375 231.691406 L 116.855469 227.082031 L 116.957031 219.097656 L 110.558594 223.871094 " />
      <path style="fill:none;stroke-width:7.9701;stroke-linecap:butt;stroke-linejoin:miter;stroke:rgb(0%,0%,0%);stroke-opacity:1;stroke-miterlimit:10;" d="M 1029.921875 805.614062 L 1055.585938 729.989062 L 1007.8125 666.004687 L 1087.65625 667.020312 L 1133.789063 601.785937 L 1157.5 678.075 L 1233.75 701.785937 L 1168.554688 747.879687 L 1169.570313 827.723437 L 1105.585938 779.989062 Z M 1029.921875 805.614062 " transform="matrix(0.1,0,0,-0.1,0,301.87)" />
      <path style=" stroke:none;fill-rule:nonzero;fill:rgb(100%,94.898987%,0%);fill-opacity:1;" d="M 102.992188 181.867188 L 105.558594 189.429688 L 100.78125 195.832031 L 108.765625 195.730469 L 113.378906 202.25 L 115.75 194.625 L 123.375 192.253906 L 116.855469 187.640625 L 116.957031 179.65625 L 110.558594 184.433594 " />
      <path style="fill:none;stroke-width:7.9701;stroke-linecap:butt;stroke-linejoin:miter;stroke:rgb(0%,0%,0%);stroke-opacity:1;stroke-miterlimit:10;" d="M 1029.921875 1200.028125 L 1055.585938 1124.403125 L 1007.8125 1060.379687 L 1087.65625 1061.395312 L 1133.789063 996.2 L 1157.5 1072.45 L 1233.75 1096.160937 L 1168.554688 1142.29375 L 1169.570313 1222.1375 L 1105.585938 1174.364062 Z M 1029.921875 1200.028125 " transform="matrix(0.1,0,0,-0.1,0,301.87)" />
      <path style=" stroke:none;fill-rule:nonzero;fill:rgb(100%,94.898987%,0%);fill-opacity:1;" d="M 102.992188 142.429688 L 105.558594 149.992188 L 100.78125 156.390625 L 108.765625 156.289063 L 113.378906 162.808594 L 115.75 155.183594 L 123.375 152.8125 L 116.855469 148.203125 L 116.957031 140.21875 L 110.558594 144.992188 " />
      <path style="fill:none;stroke-width:7.9701;stroke-linecap:butt;stroke-linejoin:miter;stroke:rgb(0%,0%,0%);stroke-opacity:1;stroke-miterlimit:10;" d="M 1029.921875 1594.403125 L 1055.585938 1518.778125 L 1007.8125 1454.79375 L 1087.65625 1455.809375 L 1133.789063 1390.614062 L 1157.5 1466.864062 L 1233.75 1490.575 L 1168.554688 1536.66875 L 1169.570313 1616.5125 L 1105.585938 1568.778125 Z M 1029.921875 1594.403125 " transform="matrix(0.1,0,0,-0.1,0,301.87)" />
      <path style=" stroke:none;fill-rule:nonzero;fill:rgb(100%,94.898987%,0%);fill-opacity:1;" d="M 102.992188 102.988281 L 105.558594 110.550781 L 100.78125 116.953125 L 108.765625 116.851563 L 113.378906 123.371094 L 115.75 115.742188 L 123.375 113.375 L 116.855469 108.761719 L 116.957031 100.777344 L 110.558594 105.554688 " />
      <path style="fill:none;stroke-width:7.9701;stroke-linecap:butt;stroke-linejoin:miter;stroke:rgb(0%,0%,0%);stroke-opacity:1;stroke-miterlimit:10;" d="M 1029.921875 1988.817187 L 1055.585938 1913.192187 L 1007.8125 1849.16875 L 1087.65625 1850.184375 L 1133.789063 1784.989062 L 1157.5 1861.278125 L 1233.75 1884.95 L 1168.554688 1931.082812 L 1169.570313 2010.926562 L 1105.585938 1963.153125 Z M 1029.921875 1988.817187 " transform="matrix(0.1,0,0,-0.1,0,301.87)" />
      <path style=" stroke:none;fill-rule:nonzero;fill:rgb(100%,94.898987%,0%);fill-opacity:1;" d="M 102.992188 63.550781 L 105.558594 71.113281 L 100.78125 77.511719 L 108.765625 77.410156 L 113.378906 83.929688 L 115.75 76.304688 L 123.375 73.933594 L 116.855469 69.324219 L 116.957031 61.339844 L 110.558594 66.113281 " />
      <path style="fill:none;stroke-width:7.9701;stroke-linecap:butt;stroke-linejoin:miter;stroke:rgb(0%,0%,0%);stroke-opacity:1;stroke-miterlimit:10;" d="M 1029.921875 2383.192187 L 1055.585938 2307.567187 L 1007.8125 2243.582812 L 1087.65625 2244.598437 L 1133.789063 2179.403125 L 1157.5 2255.653125 L 1233.75 2279.364062 L 1168.554688 2325.457812 L 1169.570313 2405.301562 L 1105.585938 2357.567187 Z M 1029.921875 2383.192187 " transform="matrix(0.1,0,0,-0.1,0,301.87)" />
      <path style=" stroke:none;fill-rule:nonzero;fill:rgb(100%,94.898987%,0%);fill-opacity:1;" d="M 102.992188 24.109375 L 105.558594 31.671875 L 100.78125 38.074219 L 108.765625 37.972656 L 113.378906 44.492188 L 115.75 36.863281 L 123.375 34.496094 L 116.855469 29.882813 L 116.957031 21.898438 L 110.558594 26.675781 " />
      <path style="fill:none;stroke-width:7.9701;stroke-linecap:butt;stroke-linejoin:miter;stroke:rgb(0%,0%,0%);stroke-opacity:1;stroke-miterlimit:10;" d="M 1029.921875 2777.60625 L 1055.585938 2701.98125 L 1007.8125 2637.957812 L 1087.65625 2638.973437 L 1133.789063 2573.778125 L 1157.5 2650.067187 L 1233.75 2673.739062 L 1168.554688 2719.871875 L 1169.570313 2799.715625 L 1105.585938 2751.942187 Z M 1029.921875 2777.60625 " transform="matrix(0.1,0,0,-0.1,0,301.87)" />
    </g>
  </svg>