<svg class="displayed_equation" xmlns="http://www.w3.org/2000/svg" xmlns:xlink="http://www.w3.org/1999/xlink" width="233.71pt" height="150.54pt" viewBox="0 0 233.71 150.54" version="1.1">
    <g id="svg310135982730tikz_00003surface11">
      <path style="fill:none;stroke-width:7.9701;stroke-linecap:butt;stroke-linejoin:miter;stroke:rgb(0%,0%,0%);stroke-opacity:1;stroke-miterlimit:10;" d="M 128.984375 128.99375 L 544.804688 128.99375 L 544.804688 544.814062 L 128.984375 544.814062 Z M 128.984375 128.99375 " transform="matrix(0.1,0,0,-0.1,0,150.54)" />
      <path style="fill:none;stroke-width:7.9701;stroke-linecap:butt;stroke-linejoin:miter;stroke:rgb(0%,0%,0%);stroke-opacity:1;stroke-miterlimit:10;" d="M 128.984375 544.814062 L 544.804688 544.814062 L 544.804688 960.673437 L 128.984375 960.673437 Z M 128.984375 544.814062 " transform="matrix(0.1,0,0,-0.1,0,150.54)" />
      <path style="fill:none;stroke-width:7.9701;stroke-linecap:butt;stroke-linejoin:miter;stroke:rgb(0%,0%,0%);stroke-opacity:1;stroke-miterlimit:10;" d="M 128.984375 960.673437 L 544.804688 960.673437 L 544.804688 1376.49375 L 128.984375 1376.49375 Z M 128.984375 960.673437 " transform="matrix(0.1,0,0,-0.1,0,150.54)" />
      <path style="fill:none;stroke-width:7.9701;stroke-linecap:butt;stroke-linejoin:miter;stroke:rgb(0%,0%,0%);stroke-opacity:1;stroke-miterlimit:10;" d="M 544.804688 128.99375 L 960.664063 128.99375 L 960.664063 544.814062 L 544.804688 544.814062 Z M 544.804688 128.99375 " transform="matrix(0.1,0,0,-0.1,0,150.54)" />
      <path style="fill:none;stroke-width:7.9701;stroke-linecap:butt;stroke-linejoin:miter;stroke:rgb(0%,0%,0%);stroke-opacity:1;stroke-miterlimit:10;" d="M 544.804688 544.814062 L 960.664063 544.814062 L 960.664063 960.673437 L 544.804688 960.673437 Z M 544.804688 544.814062 " transform="matrix(0.1,0,0,-0.1,0,150.54)" />
      <path style="fill:none;stroke-width:7.9701;stroke-linecap:butt;stroke-linejoin:miter;stroke:rgb(0%,0%,0%);stroke-opacity:1;stroke-miterlimit:10;" d="M 544.804688 960.673437 L 960.664063 960.673437 L 960.664063 1376.49375 L 544.804688 1376.49375 Z M 544.804688 960.673437 " transform="matrix(0.1,0,0,-0.1,0,150.54)" />
      <path style="fill:none;stroke-width:7.9701;stroke-linecap:butt;stroke-linejoin:miter;stroke:rgb(0%,0%,0%);stroke-opacity:1;stroke-miterlimit:10;" d="M 960.664063 128.99375 L 1376.484375 128.99375 L 1376.484375 544.814062 L 960.664063 544.814062 Z M 960.664063 128.99375 " transform="matrix(0.1,0,0,-0.1,0,150.54)" />
      <path style="fill:none;stroke-width:7.9701;stroke-linecap:butt;stroke-linejoin:miter;stroke:rgb(0%,0%,0%);stroke-opacity:1;stroke-miterlimit:10;" d="M 960.664063 544.814062 L 1376.484375 544.814062 L 1376.484375 960.673437 L 960.664063 960.673437 Z M 960.664063 544.814062 " transform="matrix(0.1,0,0,-0.1,0,150.54)" />
      <path style="fill:none;stroke-width:7.9701;stroke-linecap:butt;stroke-linejoin:miter;stroke:rgb(0%,0%,0%);stroke-opacity:1;stroke-miterlimit:10;" d="M 960.664063 960.673437 L 1376.484375 960.673437 L 1376.484375 1376.49375 L 960.664063 1376.49375 Z M 960.664063 960.673437 " transform="matrix(0.1,0,0,-0.1,0,150.54)" />
      <path style="fill:none;stroke-width:7.9701;stroke-linecap:butt;stroke-linejoin:miter;stroke:rgb(0%,0%,0%);stroke-opacity:1;stroke-miterlimit:10;" d="M 1376.484375 128.99375 L 1792.304688 128.99375 L 1792.304688 544.814062 L 1376.484375 544.814062 Z M 1376.484375 128.99375 " transform="matrix(0.1,0,0,-0.1,0,150.54)" />
      <path style="fill:none;stroke-width:7.9701;stroke-linecap:butt;stroke-linejoin:miter;stroke:rgb(0%,0%,0%);stroke-opacity:1;stroke-miterlimit:10;" d="M 1376.484375 544.814062 L 1792.304688 544.814062 L 1792.304688 960.673437 L 1376.484375 960.673437 Z M 1376.484375 544.814062 " transform="matrix(0.1,0,0,-0.1,0,150.54)" />
      <path style="fill:none;stroke-width:7.9701;stroke-linecap:butt;stroke-linejoin:miter;stroke:rgb(0%,0%,0%);stroke-opacity:1;stroke-miterlimit:10;" d="M 1376.484375 960.673437 L 1792.304688 960.673437 L 1792.304688 1376.49375 L 1376.484375 1376.49375 Z M 1376.484375 960.673437 " transform="matrix(0.1,0,0,-0.1,0,150.54)" />
      <path style="fill:none;stroke-width:7.9701;stroke-linecap:butt;stroke-linejoin:miter;stroke:rgb(0%,0%,0%);stroke-opacity:1;stroke-miterlimit:10;" d="M 1792.304688 128.99375 L 2208.164063 128.99375 L 2208.164063 544.814062 L 1792.304688 544.814062 Z M 1792.304688 128.99375 " transform="matrix(0.1,0,0,-0.1,0,150.54)" />
      <path style="fill:none;stroke-width:7.9701;stroke-linecap:butt;stroke-linejoin:miter;stroke:rgb(0%,0%,0%);stroke-opacity:1;stroke-miterlimit:10;" d="M 1792.304688 544.814062 L 2208.164063 544.814062 L 2208.164063 960.673437 L 1792.304688 960.673437 Z M 1792.304688 544.814062 " transform="matrix(0.1,0,0,-0.1,0,150.54)" />
      <path style="fill:none;stroke-width:7.9701;stroke-linecap:butt;stroke-linejoin:miter;stroke:rgb(0%,0%,0%);stroke-opacity:1;stroke-miterlimit:10;" d="M 1792.304688 960.673437 L 2208.164063 960.673437 L 2208.164063 1376.49375 L 1792.304688 1376.49375 Z M 1792.304688 960.673437 " transform="matrix(0.1,0,0,-0.1,0,150.54)" />
      <path style=" stroke:none;fill-rule:nonzero;fill:rgb(100%,94.898987%,0%);fill-opacity:1;" d="M 25.1875 108.347656 L 27.75 115.910156 L 22.972656 122.308594 L 30.960938 122.207031 L 35.570313 128.726563 L 37.941406 121.101563 L 45.566406 118.730469 L 39.046875 114.121094 L 39.148438 106.132813 L 32.75 110.910156 " />
      <path style="fill:none;stroke-width:7.9701;stroke-linecap:butt;stroke-linejoin:miter;stroke:rgb(0%,0%,0%);stroke-opacity:1;stroke-miterlimit:10;" d="M 251.875 421.923437 L 277.5 346.298437 L 229.726563 282.314062 L 309.609375 283.329687 L 355.703125 218.134375 L 379.414063 294.384375 L 455.664063 318.095312 L 390.46875 364.189062 L 391.484375 444.071875 L 327.5 396.298437 Z M 251.875 421.923437 " transform="matrix(0.1,0,0,-0.1,0,150.54)" />
      <path style=" stroke:none;fill-rule:nonzero;fill:rgb(100%,94.898987%,0%);fill-opacity:1;" d="M 25.1875 66.761719 L 27.75 74.324219 L 22.972656 80.726563 L 30.960938 80.625 L 35.570313 87.144531 L 37.941406 79.519531 L 45.566406 77.148438 L 39.046875 72.535156 L 39.148438 64.550781 L 32.75 69.328125 " />
      <path style="fill:none;stroke-width:7.9701;stroke-linecap:butt;stroke-linejoin:miter;stroke:rgb(0%,0%,0%);stroke-opacity:1;stroke-miterlimit:10;" d="M 251.875 837.782812 L 277.5 762.157812 L 229.726563 698.134375 L 309.609375 699.15 L 355.703125 633.954687 L 379.414063 710.204687 L 455.664063 733.915625 L 390.46875 780.048437 L 391.484375 859.892187 L 327.5 812.11875 Z M 251.875 837.782812 " transform="matrix(0.1,0,0,-0.1,0,150.54)" />
      <path style=" stroke:none;fill-rule:nonzero;fill:rgb(100%,94.898987%,0%);fill-opacity:1;" d="M 25.1875 25.179688 L 27.75 32.742188 L 22.972656 39.140625 L 30.960938 39.039063 L 35.570313 45.5625 L 37.941406 37.933594 L 45.566406 35.5625 L 39.046875 30.953125 L 39.148438 22.96875 L 32.75 27.742188 " />
      <path style="fill:none;stroke-width:7.9701;stroke-linecap:butt;stroke-linejoin:miter;stroke:rgb(0%,0%,0%);stroke-opacity:1;stroke-miterlimit:10;" d="M 251.875 1253.603125 L 277.5 1177.978125 L 229.726563 1113.99375 L 309.609375 1115.009375 L 355.703125 1049.775 L 379.414063 1126.064062 L 455.664063 1149.775 L 390.46875 1195.86875 L 391.484375 1275.7125 L 327.5 1227.978125 Z M 251.875 1253.603125 " transform="matrix(0.1,0,0,-0.1,0,150.54)" />
      <path style=" stroke:none;fill-rule:nonzero;fill:rgb(100%,94.898987%,0%);fill-opacity:1;" d="M 66.769531 108.347656 L 69.335938 115.910156 L 64.558594 122.308594 L 72.542969 122.207031 L 77.15625 128.726563 L 79.523438 121.101563 L 87.152344 118.730469 L 80.628906 114.121094 L 80.734375 106.132813 L 74.332031 110.910156 " />
      <path style="fill:none;stroke-width:7.9701;stroke-linecap:butt;stroke-linejoin:miter;stroke:rgb(0%,0%,0%);stroke-opacity:1;stroke-miterlimit:10;" d="M 667.695313 421.923437 L 693.359375 346.298437 L 645.585938 282.314062 L 725.429688 283.329687 L 771.5625 218.134375 L 795.234375 294.384375 L 871.523438 318.095312 L 806.289063 364.189062 L 807.34375 444.071875 L 743.320313 396.298437 Z M 667.695313 421.923437 " transform="matrix(0.1,0,0,-0.1,0,150.54)" />
      <path style=" stroke:none;fill-rule:nonzero;fill:rgb(100%,94.898987%,0%);fill-opacity:1;" d="M 66.769531 66.761719 L 69.335938 74.324219 L 64.558594 80.726563 L 72.542969 80.625 L 77.15625 87.144531 L 79.523438 79.519531 L 87.152344 77.148438 L 80.628906 72.535156 L 80.734375 64.550781 L 74.332031 69.328125 " />
      <path style="fill:none;stroke-width:7.9701;stroke-linecap:butt;stroke-linejoin:miter;stroke:rgb(0%,0%,0%);stroke-opacity:1;stroke-miterlimit:10;" d="M 667.695313 837.782812 L 693.359375 762.157812 L 645.585938 698.134375 L 725.429688 699.15 L 771.5625 633.954687 L 795.234375 710.204687 L 871.523438 733.915625 L 806.289063 780.048437 L 807.34375 859.892187 L 743.320313 812.11875 Z M 667.695313 837.782812 " transform="matrix(0.1,0,0,-0.1,0,150.54)" />
      <path style=" stroke:none;fill-rule:nonzero;fill:rgb(100%,94.898987%,0%);fill-opacity:1;" d="M 66.769531 25.179688 L 69.335938 32.742188 L 64.558594 39.140625 L 72.542969 39.039063 L 77.15625 45.5625 L 79.523438 37.933594 L 87.152344 35.5625 L 80.628906 30.953125 L 80.734375 22.96875 L 74.332031 27.742188 " />
      <path style="fill:none;stroke-width:7.9701;stroke-linecap:butt;stroke-linejoin:miter;stroke:rgb(0%,0%,0%);stroke-opacity:1;stroke-miterlimit:10;" d="M 667.695313 1253.603125 L 693.359375 1177.978125 L 645.585938 1113.99375 L 725.429688 1115.009375 L 771.5625 1049.775 L 795.234375 1126.064062 L 871.523438 1149.775 L 806.289063 1195.86875 L 807.34375 1275.7125 L 743.320313 1227.978125 Z M 667.695313 1253.603125 " transform="matrix(0.1,0,0,-0.1,0,150.54)" />
      <path style=" stroke:none;fill-rule:nonzero;fill:rgb(100%,94.898987%,0%);fill-opacity:1;" d="M 108.351563 108.347656 L 110.917969 115.910156 L 106.140625 122.308594 L 114.128906 122.207031 L 118.738281 128.726563 L 121.109375 121.101563 L 128.734375 118.730469 L 122.214844 114.121094 L 122.316406 106.132813 L 115.914063 110.910156 " />
      <path style="fill:none;stroke-width:7.9701;stroke-linecap:butt;stroke-linejoin:miter;stroke:rgb(0%,0%,0%);stroke-opacity:1;stroke-miterlimit:10;" d="M 1083.515625 421.923437 L 1109.179688 346.298437 L 1061.40625 282.314062 L 1141.289063 283.329687 L 1187.382813 218.134375 L 1211.09375 294.384375 L 1287.34375 318.095312 L 1222.148438 364.189062 L 1223.164063 444.071875 L 1159.140625 396.298437 Z M 1083.515625 421.923437 " transform="matrix(0.1,0,0,-0.1,0,150.54)" />
      <path style=" stroke:none;fill-rule:nonzero;fill:rgb(100%,94.898987%,0%);fill-opacity:1;" d="M 108.351563 66.761719 L 110.917969 74.324219 L 106.140625 80.726563 L 114.128906 80.625 L 118.738281 87.144531 L 121.109375 79.519531 L 128.734375 77.148438 L 122.214844 72.535156 L 122.316406 64.550781 L 115.914063 69.328125 " />
      <path style="fill:none;stroke-width:7.9701;stroke-linecap:butt;stroke-linejoin:miter;stroke:rgb(0%,0%,0%);stroke-opacity:1;stroke-miterlimit:10;" d="M 1083.515625 837.782812 L 1109.179688 762.157812 L 1061.40625 698.134375 L 1141.289063 699.15 L 1187.382813 633.954687 L 1211.09375 710.204687 L 1287.34375 733.915625 L 1222.148438 780.048437 L 1223.164063 859.892187 L 1159.140625 812.11875 Z M 1083.515625 837.782812 " transform="matrix(0.1,0,0,-0.1,0,150.54)" />
      <path style=" stroke:none;fill-rule:nonzero;fill:rgb(100%,94.898987%,0%);fill-opacity:1;" d="M 108.351563 25.179688 L 110.917969 32.742188 L 106.140625 39.140625 L 114.128906 39.039063 L 118.738281 45.5625 L 121.109375 37.933594 L 128.734375 35.5625 L 122.214844 30.953125 L 122.316406 22.96875 L 115.914063 27.742188 " />
      <path style="fill:none;stroke-width:7.9701;stroke-linecap:butt;stroke-linejoin:miter;stroke:rgb(0%,0%,0%);stroke-opacity:1;stroke-miterlimit:10;" d="M 1083.515625 1253.603125 L 1109.179688 1177.978125 L 1061.40625 1113.99375 L 1141.289063 1115.009375 L 1187.382813 1049.775 L 1211.09375 1126.064062 L 1287.34375 1149.775 L 1222.148438 1195.86875 L 1223.164063 1275.7125 L 1159.140625 1227.978125 Z M 1083.515625 1253.603125 " transform="matrix(0.1,0,0,-0.1,0,150.54)" />
      <path style=" stroke:none;fill-rule:nonzero;fill:rgb(100%,94.898987%,0%);fill-opacity:1;" d="M 149.9375 108.347656 L 152.5 115.910156 L 147.722656 122.308594 L 155.710938 122.207031 L 160.320313 128.726563 L 162.691406 121.101563 L 170.316406 118.730469 L 163.796875 114.121094 L 163.898438 106.132813 L 157.5 110.910156 " />
      <path style="fill:none;stroke-width:7.9701;stroke-linecap:butt;stroke-linejoin:miter;stroke:rgb(0%,0%,0%);stroke-opacity:1;stroke-miterlimit:10;" d="M 1499.375 421.923437 L 1525 346.298437 L 1477.226563 282.314062 L 1557.109375 283.329687 L 1603.203125 218.134375 L 1626.914063 294.384375 L 1703.164063 318.095312 L 1637.96875 364.189062 L 1638.984375 444.071875 L 1575 396.298437 Z M 1499.375 421.923437 " transform="matrix(0.1,0,0,-0.1,0,150.54)" />
      <path style=" stroke:none;fill-rule:nonzero;fill:rgb(100%,94.898987%,0%);fill-opacity:1;" d="M 149.9375 66.761719 L 152.5 74.324219 L 147.722656 80.726563 L 155.710938 80.625 L 160.320313 87.144531 L 162.691406 79.519531 L 170.316406 77.148438 L 163.796875 72.535156 L 163.898438 64.550781 L 157.5 69.328125 " />
      <path style="fill:none;stroke-width:7.9701;stroke-linecap:butt;stroke-linejoin:miter;stroke:rgb(0%,0%,0%);stroke-opacity:1;stroke-miterlimit:10;" d="M 1499.375 837.782812 L 1525 762.157812 L 1477.226563 698.134375 L 1557.109375 699.15 L 1603.203125 633.954687 L 1626.914063 710.204687 L 1703.164063 733.915625 L 1637.96875 780.048437 L 1638.984375 859.892187 L 1575 812.11875 Z M 1499.375 837.782812 " transform="matrix(0.1,0,0,-0.1,0,150.54)" />
      <path style=" stroke:none;fill-rule:nonzero;fill:rgb(100%,94.898987%,0%);fill-opacity:1;" d="M 149.9375 25.179688 L 152.5 32.742188 L 147.722656 39.140625 L 155.710938 39.039063 L 160.320313 45.5625 L 162.691406 37.933594 L 170.316406 35.5625 L 163.796875 30.953125 L 163.898438 22.96875 L 157.5 27.742188 " />
      <path style="fill:none;stroke-width:7.9701;stroke-linecap:butt;stroke-linejoin:miter;stroke:rgb(0%,0%,0%);stroke-opacity:1;stroke-miterlimit:10;" d="M 1499.375 1253.603125 L 1525 1177.978125 L 1477.226563 1113.99375 L 1557.109375 1115.009375 L 1603.203125 1049.775 L 1626.914063 1126.064062 L 1703.164063 1149.775 L 1637.96875 1195.86875 L 1638.984375 1275.7125 L 1575 1227.978125 Z M 1499.375 1253.603125 " transform="matrix(0.1,0,0,-0.1,0,150.54)" />
      <path style=" stroke:none;fill-rule:nonzero;fill:rgb(100%,94.898987%,0%);fill-opacity:1;" d="M 191.519531 108.347656 L 194.085938 115.910156 L 189.308594 122.308594 L 197.292969 122.207031 L 201.902344 128.726563 L 204.273438 121.101563 L 211.902344 118.730469 L 205.382813 114.121094 L 205.484375 106.132813 L 199.082031 110.910156 " />
      <path style="fill:none;stroke-width:7.9701;stroke-linecap:butt;stroke-linejoin:miter;stroke:rgb(0%,0%,0%);stroke-opacity:1;stroke-miterlimit:10;" d="M 1915.195313 421.923437 L 1940.859375 346.298437 L 1893.085938 282.314062 L 1972.929688 283.329687 L 2019.023438 218.134375 L 2042.734375 294.384375 L 2119.023438 318.095312 L 2053.828125 364.189062 L 2054.84375 444.071875 L 1990.820313 396.298437 Z M 1915.195313 421.923437 " transform="matrix(0.1,0,0,-0.1,0,150.54)" />
      <path style=" stroke:none;fill-rule:nonzero;fill:rgb(100%,94.898987%,0%);fill-opacity:1;" d="M 191.519531 66.761719 L 194.085938 74.324219 L 189.308594 80.726563 L 197.292969 80.625 L 201.902344 87.144531 L 204.273438 79.519531 L 211.902344 77.148438 L 205.382813 72.535156 L 205.484375 64.550781 L 199.082031 69.328125 " />
      <path style="fill:none;stroke-width:7.9701;stroke-linecap:butt;stroke-linejoin:miter;stroke:rgb(0%,0%,0%);stroke-opacity:1;stroke-miterlimit:10;" d="M 1915.195313 837.782812 L 1940.859375 762.157812 L 1893.085938 698.134375 L 1972.929688 699.15 L 2019.023438 633.954687 L 2042.734375 710.204687 L 2119.023438 733.915625 L 2053.828125 780.048437 L 2054.84375 859.892187 L 1990.820313 812.11875 Z M 1915.195313 837.782812 " transform="matrix(0.1,0,0,-0.1,0,150.54)" />
      <path style=" stroke:none;fill-rule:nonzero;fill:rgb(100%,94.898987%,0%);fill-opacity:1;" d="M 191.519531 25.179688 L 194.085938 32.742188 L 189.308594 39.140625 L 197.292969 39.039063 L 201.902344 45.5625 L 204.273438 37.933594 L 211.902344 35.5625 L 205.382813 30.953125 L 205.484375 22.96875 L 199.082031 27.742188 " />
      <path style="fill:none;stroke-width:7.9701;stroke-linecap:butt;stroke-linejoin:miter;stroke:rgb(0%,0%,0%);stroke-opacity:1;stroke-miterlimit:10;" d="M 1915.195313 1253.603125 L 1940.859375 1177.978125 L 1893.085938 1113.99375 L 1972.929688 1115.009375 L 2019.023438 1049.775 L 2042.734375 1126.064062 L 2119.023438 1149.775 L 2053.828125 1195.86875 L 2054.84375 1275.7125 L 1990.820313 1227.978125 Z M 1915.195313 1253.603125 " transform="matrix(0.1,0,0,-0.1,0,150.54)" />
    </g>
  </svg>