<svg class="displayed_equation" xmlns="http://www.w3.org/2000/svg" xmlns:xlink="http://www.w3.org/1999/xlink" width="273.57pt" height="67.09pt" viewBox="0 0 273.57 67.09" version="1.1">
    <g id="svg310135982730tikz_00002surface6">
      <path style="fill:none;stroke-width:7.9701;stroke-linecap:butt;stroke-linejoin:miter;stroke:rgb(0%,0%,0%);stroke-opacity:1;stroke-miterlimit:10;" d="M 128.984375 128.985938 L 541.953125 128.985938 L 541.953125 541.954688 L 128.984375 541.954688 Z M 128.984375 128.985938 " transform="matrix(0.1,0,0,-0.1,0,67.09)" />
      <path style="fill:none;stroke-width:7.9701;stroke-linecap:butt;stroke-linejoin:miter;stroke:rgb(0%,0%,0%);stroke-opacity:1;stroke-miterlimit:10;" d="M 541.953125 128.985938 L 954.882813 128.985938 L 954.882813 541.954688 L 541.953125 541.954688 Z M 541.953125 128.985938 " transform="matrix(0.1,0,0,-0.1,0,67.09)" />
      <path style="fill:none;stroke-width:7.9701;stroke-linecap:butt;stroke-linejoin:miter;stroke:rgb(0%,0%,0%);stroke-opacity:1;stroke-miterlimit:10;" d="M 954.882813 128.985938 L 1367.851563 128.985938 L 1367.851563 541.954688 L 954.882813 541.954688 Z M 954.882813 128.985938 " transform="matrix(0.1,0,0,-0.1,0,67.09)" />
      <path style="fill:none;stroke-width:7.9701;stroke-linecap:butt;stroke-linejoin:miter;stroke:rgb(0%,0%,0%);stroke-opacity:1;stroke-miterlimit:10;" d="M 1367.851563 128.985938 L 1780.820313 128.985938 L 1780.820313 541.954688 L 1367.851563 541.954688 Z M 1367.851563 128.985938 " transform="matrix(0.1,0,0,-0.1,0,67.09)" />
      <path style="fill:none;stroke-width:7.9701;stroke-linecap:butt;stroke-linejoin:miter;stroke:rgb(0%,0%,0%);stroke-opacity:1;stroke-miterlimit:10;" d="M 1780.820313 128.985938 L 2193.789063 128.985938 L 2193.789063 541.954688 L 1780.820313 541.954688 Z M 1780.820313 128.985938 " transform="matrix(0.1,0,0,-0.1,0,67.09)" />
      <path style="fill:none;stroke-width:7.9701;stroke-linecap:butt;stroke-linejoin:miter;stroke:rgb(0%,0%,0%);stroke-opacity:1;stroke-miterlimit:10;" d="M 2193.789063 128.985938 L 2606.757813 128.985938 L 2606.757813 541.954688 L 2193.789063 541.954688 Z M 2193.789063 128.985938 " transform="matrix(0.1,0,0,-0.1,0,67.09)" />
      <path style=" stroke:none;fill-rule:nonzero;fill:rgb(100%,94.898987%,0%);fill-opacity:1;" d="M 25.042969 25.039063 L 27.605469 32.601563 L 22.832031 39.003906 L 30.816406 38.902344 L 35.425781 45.421875 L 37.796875 37.792969 L 45.421875 35.425781 L 38.902344 30.8125 L 39.007813 22.828125 L 32.605469 27.605469 " />
      <path style="fill:none;stroke-width:7.9701;stroke-linecap:butt;stroke-linejoin:miter;stroke:rgb(0%,0%,0%);stroke-opacity:1;stroke-miterlimit:10;" d="M 250.429688 420.509375 L 276.054688 344.884375 L 228.320313 280.860938 L 308.164063 281.876563 L 354.257813 216.68125 L 377.96875 292.970313 L 454.21875 316.642188 L 389.023438 362.775 L 390.078125 442.61875 L 326.054688 394.845313 Z M 250.429688 420.509375 " transform="matrix(0.1,0,0,-0.1,0,67.09)" />
      <path style=" stroke:none;fill-rule:nonzero;fill:rgb(100%,94.898987%,0%);fill-opacity:1;" d="M 66.339844 25.039063 L 68.902344 32.601563 L 64.128906 39.003906 L 72.113281 38.902344 L 76.722656 45.421875 L 79.09375 37.792969 L 86.71875 35.425781 L 80.199219 30.8125 L 80.300781 22.828125 L 73.902344 27.605469 " />
      <path style="fill:none;stroke-width:7.9701;stroke-linecap:butt;stroke-linejoin:miter;stroke:rgb(0%,0%,0%);stroke-opacity:1;stroke-miterlimit:10;" d="M 663.398438 420.509375 L 689.023438 344.884375 L 641.289063 280.860938 L 721.132813 281.876563 L 767.226563 216.68125 L 790.9375 292.970313 L 867.1875 316.642188 L 801.992188 362.775 L 803.007813 442.61875 L 739.023438 394.845313 Z M 663.398438 420.509375 " transform="matrix(0.1,0,0,-0.1,0,67.09)" />
      <path style=" stroke:none;fill-rule:nonzero;fill:rgb(100%,94.898987%,0%);fill-opacity:1;" d="M 107.636719 25.039063 L 110.199219 32.601563 L 105.421875 39.003906 L 113.410156 38.902344 L 118.019531 45.421875 L 120.390625 37.792969 L 128.015625 35.425781 L 121.496094 30.8125 L 121.597656 22.828125 L 115.199219 27.605469 " />
      <path style="fill:none;stroke-width:7.9701;stroke-linecap:butt;stroke-linejoin:miter;stroke:rgb(0%,0%,0%);stroke-opacity:1;stroke-miterlimit:10;" d="M 1076.367188 420.509375 L 1101.992188 344.884375 L 1054.21875 280.860938 L 1134.101563 281.876563 L 1180.195313 216.68125 L 1203.90625 292.970313 L 1280.15625 316.642188 L 1214.960938 362.775 L 1215.976563 442.61875 L 1151.992188 394.845313 Z M 1076.367188 420.509375 " transform="matrix(0.1,0,0,-0.1,0,67.09)" />
      <path style=" stroke:none;fill-rule:nonzero;fill:rgb(100%,94.898987%,0%);fill-opacity:1;" d="M 148.929688 25.039063 L 151.496094 32.601563 L 146.71875 39.003906 L 154.703125 38.902344 L 159.316406 45.421875 L 161.6875 37.792969 L 169.3125 35.425781 L 162.792969 30.8125 L 162.894531 22.828125 L 156.492188 27.605469 " />
      <path style="fill:none;stroke-width:7.9701;stroke-linecap:butt;stroke-linejoin:miter;stroke:rgb(0%,0%,0%);stroke-opacity:1;stroke-miterlimit:10;" d="M 1489.296875 420.509375 L 1514.960938 344.884375 L 1467.1875 280.860938 L 1547.03125 281.876563 L 1593.164063 216.68125 L 1616.875 292.970313 L 1693.125 316.642188 L 1627.929688 362.775 L 1628.945313 442.61875 L 1564.921875 394.845313 Z M 1489.296875 420.509375 " transform="matrix(0.1,0,0,-0.1,0,67.09)" />
      <path style=" stroke:none;fill-rule:nonzero;fill:rgb(100%,94.898987%,0%);fill-opacity:1;" d="M 190.226563 25.039063 L 192.792969 32.601563 L 188.015625 39.003906 L 196 38.902344 L 200.613281 45.421875 L 202.980469 37.792969 L 210.609375 35.425781 L 204.089844 30.8125 L 204.191406 22.828125 L 197.789063 27.605469 " />
      <path style="fill:none;stroke-width:7.9701;stroke-linecap:butt;stroke-linejoin:miter;stroke:rgb(0%,0%,0%);stroke-opacity:1;stroke-miterlimit:10;" d="M 1902.265625 420.509375 L 1927.929688 344.884375 L 1880.15625 280.860938 L 1960 281.876563 L 2006.132813 216.68125 L 2029.804688 292.970313 L 2106.09375 316.642188 L 2040.898438 362.775 L 2041.914063 442.61875 L 1977.890625 394.845313 Z M 1902.265625 420.509375 " transform="matrix(0.1,0,0,-0.1,0,67.09)" />
      <path style=" stroke:none;fill-rule:nonzero;fill:rgb(100%,94.898987%,0%);fill-opacity:1;" d="M 231.523438 25.039063 L 234.089844 32.601563 L 229.3125 39.003906 L 237.296875 38.902344 L 241.90625 45.421875 L 244.277344 37.792969 L 251.90625 35.425781 L 245.382813 30.8125 L 245.484375 22.828125 L 239.085938 27.605469 " />
      <path style="fill:none;stroke-width:7.9701;stroke-linecap:butt;stroke-linejoin:miter;stroke:rgb(0%,0%,0%);stroke-opacity:1;stroke-miterlimit:10;" d="M 2315.234375 420.509375 L 2340.898438 344.884375 L 2293.125 280.860938 L 2372.96875 281.876563 L 2419.0625 216.68125 L 2442.773438 292.970313 L 2519.0625 316.642188 L 2453.828125 362.775 L 2454.84375 442.61875 L 2390.859375 394.845313 Z M 2315.234375 420.509375 " transform="matrix(0.1,0,0,-0.1,0,67.09)" />
    </g>
  </svg>