<svg class="displayed_equation" xmlns="http://www.w3.org/2000/svg" xmlns:xlink="http://www.w3.org/1999/xlink" width="274.4pt" height="165.07pt" viewBox="0 0 274.4 165.07" version="1.1">
    <g id="svg803162041543tikz_00003surface11">
      <path style="fill:none;stroke-width:7.9701;stroke-linecap:butt;stroke-linejoin:miter;stroke:rgb(0%,0%,0%);stroke-opacity:1;stroke-miterlimit:10;" d="M 128.984375 208.707812 L 128.984375 1442.067187 C 128.984375 1486.090625 164.6875 1521.754687 208.671875 1521.754687 L 2535.3125 1521.754687 C 2579.335938 1521.754687 2615.039063 1486.090625 2615.039063 1442.067187 L 2615.039063 208.707812 C 2615.039063 164.684375 2579.335938 128.98125 2535.3125 128.98125 L 208.671875 128.98125 C 164.6875 128.98125 128.984375 164.684375 128.984375 208.707812 Z M 128.984375 208.707812 " transform="matrix(0.1,0,0,-0.1,0,165.07)" />
      <path style=" stroke:none;fill-rule:nonzero;fill:rgb(38.426208%,66.601563%,87.5%);fill-opacity:1;" d="M 29.734375 129.460938 L 28.078125 134.226563 L 23.035156 134.328125 L 27.054688 137.375 L 25.59375 142.203125 L 29.734375 139.324219 L 33.875 142.203125 L 32.414063 137.375 L 36.433594 134.328125 L 31.390625 134.226563 " />
      <path style=" stroke:none;fill-rule:nonzero;fill:rgb(38.426208%,66.601563%,87.5%);fill-opacity:1;" d="M 29.734375 111.488281 L 28.078125 116.253906 L 23.035156 116.355469 L 27.054688 119.402344 L 25.59375 124.230469 L 29.734375 121.351563 L 33.875 124.230469 L 32.414063 119.402344 L 36.433594 116.355469 L 31.390625 116.253906 " />
      <path style=" stroke:none;fill-rule:nonzero;fill:rgb(38.426208%,66.601563%,87.5%);fill-opacity:1;" d="M 29.734375 93.515625 L 28.078125 98.28125 L 23.035156 98.382813 L 27.054688 101.433594 L 25.59375 106.261719 L 29.734375 103.378906 L 33.875 106.261719 L 32.414063 101.433594 L 36.433594 98.382813 L 31.390625 98.28125 " />
      <path style=" stroke:none;fill-rule:nonzero;fill:rgb(38.426208%,66.601563%,87.5%);fill-opacity:1;" d="M 29.734375 75.546875 L 28.078125 80.308594 L 23.035156 80.414063 L 27.054688 83.460938 L 25.59375 88.289063 L 29.734375 85.40625 L 33.875 88.289063 L 32.414063 83.460938 L 36.433594 80.414063 L 31.390625 80.308594 " />
      <path style=" stroke:none;fill-rule:nonzero;fill:rgb(38.426208%,66.601563%,87.5%);fill-opacity:1;" d="M 29.734375 57.574219 L 28.078125 62.339844 L 23.035156 62.441406 L 27.054688 65.488281 L 25.59375 70.316406 L 29.734375 67.4375 L 33.875 70.316406 L 32.414063 65.488281 L 36.433594 62.441406 L 31.390625 62.339844 " />
      <path style=" stroke:none;fill-rule:nonzero;fill:rgb(38.426208%,66.601563%,87.5%);fill-opacity:1;" d="M 29.734375 39.601563 L 28.078125 44.367188 L 23.035156 44.46875 L 27.054688 47.519531 L 25.59375 52.347656 L 29.734375 49.464844 L 33.875 52.347656 L 32.414063 47.519531 L 36.433594 44.46875 L 31.390625 44.367188 " />
      <path style=" stroke:none;fill-rule:nonzero;fill:rgb(38.426208%,66.601563%,87.5%);fill-opacity:1;" d="M 29.734375 21.632813 L 28.078125 26.394531 L 23.035156 26.5 L 27.054688 29.546875 L 25.59375 34.375 L 29.734375 31.492188 L 33.875 34.375 L 32.414063 29.546875 L 36.433594 26.5 L 31.390625 26.394531 " />
      <path style=" stroke:none;fill-rule:nonzero;fill:rgb(38.426208%,66.601563%,87.5%);fill-opacity:1;" d="M 47.707031 129.460938 L 46.050781 134.226563 L 41.003906 134.328125 L 45.027344 137.375 L 43.566406 142.203125 L 47.707031 139.324219 L 51.847656 142.203125 L 50.386719 137.375 L 54.40625 134.328125 L 49.363281 134.226563 " />
      <path style=" stroke:none;fill-rule:nonzero;fill:rgb(38.426208%,66.601563%,87.5%);fill-opacity:1;" d="M 47.707031 111.488281 L 46.050781 116.253906 L 41.003906 116.355469 L 45.027344 119.402344 L 43.566406 124.230469 L 47.707031 121.351563 L 51.847656 124.230469 L 50.386719 119.402344 L 54.40625 116.355469 L 49.363281 116.253906 " />
      <path style=" stroke:none;fill-rule:nonzero;fill:rgb(38.426208%,66.601563%,87.5%);fill-opacity:1;" d="M 47.707031 93.515625 L 46.050781 98.28125 L 41.003906 98.382813 L 45.027344 101.433594 L 43.566406 106.261719 L 47.707031 103.378906 L 51.847656 106.261719 L 50.386719 101.433594 L 54.40625 98.382813 L 49.363281 98.28125 " />
      <path style=" stroke:none;fill-rule:nonzero;fill:rgb(38.426208%,66.601563%,87.5%);fill-opacity:1;" d="M 47.707031 75.546875 L 46.050781 80.308594 L 41.003906 80.414063 L 45.027344 83.460938 L 43.566406 88.289063 L 47.707031 85.40625 L 51.847656 88.289063 L 50.386719 83.460938 L 54.40625 80.414063 L 49.363281 80.308594 " />
      <path style=" stroke:none;fill-rule:nonzero;fill:rgb(38.426208%,66.601563%,87.5%);fill-opacity:1;" d="M 47.707031 57.574219 L 46.050781 62.339844 L 41.003906 62.441406 L 45.027344 65.488281 L 43.566406 70.316406 L 47.707031 67.4375 L 51.847656 70.316406 L 50.386719 65.488281 L 54.40625 62.441406 L 49.363281 62.339844 " />
      <path style=" stroke:none;fill-rule:nonzero;fill:rgb(38.426208%,66.601563%,87.5%);fill-opacity:1;" d="M 47.707031 39.601563 L 46.050781 44.367188 L 41.003906 44.46875 L 45.027344 47.519531 L 43.566406 52.347656 L 47.707031 49.464844 L 51.847656 52.347656 L 50.386719 47.519531 L 54.40625 44.46875 L 49.363281 44.367188 " />
      <path style=" stroke:none;fill-rule:nonzero;fill:rgb(38.426208%,66.601563%,87.5%);fill-opacity:1;" d="M 47.707031 21.632813 L 46.050781 26.394531 L 41.003906 26.5 L 45.027344 29.546875 L 43.566406 34.375 L 47.707031 31.492188 L 51.847656 34.375 L 50.386719 29.546875 L 54.40625 26.5 L 49.363281 26.394531 " />
      <path style=" stroke:none;fill-rule:nonzero;fill:rgb(38.426208%,66.601563%,87.5%);fill-opacity:1;" d="M 65.675781 129.460938 L 64.019531 134.226563 L 58.976563 134.328125 L 62.996094 137.375 L 61.535156 142.203125 L 65.675781 139.324219 L 69.816406 142.203125 L 68.355469 137.375 L 72.378906 134.328125 L 67.332031 134.226563 " />
      <path style=" stroke:none;fill-rule:nonzero;fill:rgb(38.426208%,66.601563%,87.5%);fill-opacity:1;" d="M 65.675781 111.488281 L 64.019531 116.253906 L 58.976563 116.355469 L 62.996094 119.402344 L 61.535156 124.230469 L 65.675781 121.351563 L 69.816406 124.230469 L 68.355469 119.402344 L 72.378906 116.355469 L 67.332031 116.253906 " />
      <path style=" stroke:none;fill-rule:nonzero;fill:rgb(38.426208%,66.601563%,87.5%);fill-opacity:1;" d="M 65.675781 93.515625 L 64.019531 98.28125 L 58.976563 98.382813 L 62.996094 101.433594 L 61.535156 106.261719 L 65.675781 103.378906 L 69.816406 106.261719 L 68.355469 101.433594 L 72.378906 98.382813 L 67.332031 98.28125 " />
      <path style=" stroke:none;fill-rule:nonzero;fill:rgb(38.426208%,66.601563%,87.5%);fill-opacity:1;" d="M 65.675781 75.546875 L 64.019531 80.308594 L 58.976563 80.414063 L 62.996094 83.460938 L 61.535156 88.289063 L 65.675781 85.40625 L 69.816406 88.289063 L 68.355469 83.460938 L 72.378906 80.414063 L 67.332031 80.308594 " />
      <path style=" stroke:none;fill-rule:nonzero;fill:rgb(38.426208%,66.601563%,87.5%);fill-opacity:1;" d="M 65.675781 57.574219 L 64.019531 62.339844 L 58.976563 62.441406 L 62.996094 65.488281 L 61.535156 70.316406 L 65.675781 67.4375 L 69.816406 70.316406 L 68.355469 65.488281 L 72.378906 62.441406 L 67.332031 62.339844 " />
      <path style=" stroke:none;fill-rule:nonzero;fill:rgb(38.426208%,66.601563%,87.5%);fill-opacity:1;" d="M 65.675781 39.601563 L 64.019531 44.367188 L 58.976563 44.46875 L 62.996094 47.519531 L 61.535156 52.347656 L 65.675781 49.464844 L 69.816406 52.347656 L 68.355469 47.519531 L 72.378906 44.46875 L 67.332031 44.367188 " />
      <path style=" stroke:none;fill-rule:nonzero;fill:rgb(38.426208%,66.601563%,87.5%);fill-opacity:1;" d="M 65.675781 21.632813 L 64.019531 26.394531 L 58.976563 26.5 L 62.996094 29.546875 L 61.535156 34.375 L 65.675781 31.492188 L 69.816406 34.375 L 68.355469 29.546875 L 72.378906 26.5 L 67.332031 26.394531 " />
      <path style=" stroke:none;fill-rule:nonzero;fill:rgb(38.426208%,66.601563%,87.5%);fill-opacity:1;" d="M 83.648438 129.460938 L 81.992188 134.226563 L 76.949219 134.328125 L 80.96875 137.375 L 79.507813 142.203125 L 83.648438 139.324219 L 87.789063 142.203125 L 86.328125 137.375 L 90.347656 134.328125 L 85.304688 134.226563 " />
      <path style=" stroke:none;fill-rule:nonzero;fill:rgb(38.426208%,66.601563%,87.5%);fill-opacity:1;" d="M 83.648438 111.488281 L 81.992188 116.253906 L 76.949219 116.355469 L 80.96875 119.402344 L 79.507813 124.230469 L 83.648438 121.351563 L 87.789063 124.230469 L 86.328125 119.402344 L 90.347656 116.355469 L 85.304688 116.253906 " />
      <path style=" stroke:none;fill-rule:nonzero;fill:rgb(38.426208%,66.601563%,87.5%);fill-opacity:1;" d="M 83.648438 93.515625 L 81.992188 98.28125 L 76.949219 98.382813 L 80.96875 101.433594 L 79.507813 106.261719 L 83.648438 103.378906 L 87.789063 106.261719 L 86.328125 101.433594 L 90.347656 98.382813 L 85.304688 98.28125 " />
      <path style=" stroke:none;fill-rule:nonzero;fill:rgb(38.426208%,66.601563%,87.5%);fill-opacity:1;" d="M 83.648438 75.546875 L 81.992188 80.308594 L 76.949219 80.414063 L 80.96875 83.460938 L 79.507813 88.289063 L 83.648438 85.40625 L 87.789063 88.289063 L 86.328125 83.460938 L 90.347656 80.414063 L 85.304688 80.308594 " />
      <path style=" stroke:none;fill-rule:nonzero;fill:rgb(38.426208%,66.601563%,87.5%);fill-opacity:1;" d="M 83.648438 57.574219 L 81.992188 62.339844 L 76.949219 62.441406 L 80.96875 65.488281 L 79.507813 70.316406 L 83.648438 67.4375 L 87.789063 70.316406 L 86.328125 65.488281 L 90.347656 62.441406 L 85.304688 62.339844 " />
      <path style=" stroke:none;fill-rule:nonzero;fill:rgb(38.426208%,66.601563%,87.5%);fill-opacity:1;" d="M 83.648438 39.601563 L 81.992188 44.367188 L 76.949219 44.46875 L 80.96875 47.519531 L 79.507813 52.347656 L 83.648438 49.464844 L 87.789063 52.347656 L 86.328125 47.519531 L 90.347656 44.46875 L 85.304688 44.367188 " />
      <path style=" stroke:none;fill-rule:nonzero;fill:rgb(38.426208%,66.601563%,87.5%);fill-opacity:1;" d="M 83.648438 21.632813 L 81.992188 26.394531 L 76.949219 26.5 L 80.96875 29.546875 L 79.507813 34.375 L 83.648438 31.492188 L 87.789063 34.375 L 86.328125 29.546875 L 90.347656 26.5 L 85.304688 26.394531 " />
      <path style=" stroke:none;fill-rule:nonzero;fill:rgb(38.426208%,66.601563%,87.5%);fill-opacity:1;" d="M 101.621094 129.460938 L 99.964844 134.226563 L 94.917969 134.328125 L 98.941406 137.375 L 97.480469 142.203125 L 101.621094 139.324219 L 105.761719 142.203125 L 104.300781 137.375 L 108.320313 134.328125 L 103.277344 134.226563 " />
      <path style=" stroke:none;fill-rule:nonzero;fill:rgb(38.426208%,66.601563%,87.5%);fill-opacity:1;" d="M 101.621094 111.488281 L 99.964844 116.253906 L 94.917969 116.355469 L 98.941406 119.402344 L 97.480469 124.230469 L 101.621094 121.351563 L 105.761719 124.230469 L 104.300781 119.402344 L 108.320313 116.355469 L 103.277344 116.253906 " />
      <path style=" stroke:none;fill-rule:nonzero;fill:rgb(38.426208%,66.601563%,87.5%);fill-opacity:1;" d="M 101.621094 93.515625 L 99.964844 98.28125 L 94.917969 98.382813 L 98.941406 101.433594 L 97.480469 106.261719 L 101.621094 103.378906 L 105.761719 106.261719 L 104.300781 101.433594 L 108.320313 98.382813 L 103.277344 98.28125 " />
      <path style=" stroke:none;fill-rule:nonzero;fill:rgb(38.426208%,66.601563%,87.5%);fill-opacity:1;" d="M 101.621094 75.546875 L 99.964844 80.308594 L 94.917969 80.414063 L 98.941406 83.460938 L 97.480469 88.289063 L 101.621094 85.40625 L 105.761719 88.289063 L 104.300781 83.460938 L 108.320313 80.414063 L 103.277344 80.308594 " />
      <path style=" stroke:none;fill-rule:nonzero;fill:rgb(38.426208%,66.601563%,87.5%);fill-opacity:1;" d="M 101.621094 57.574219 L 99.964844 62.339844 L 94.917969 62.441406 L 98.941406 65.488281 L 97.480469 70.316406 L 101.621094 67.4375 L 105.761719 70.316406 L 104.300781 65.488281 L 108.320313 62.441406 L 103.277344 62.339844 " />
      <path style=" stroke:none;fill-rule:nonzero;fill:rgb(38.426208%,66.601563%,87.5%);fill-opacity:1;" d="M 101.621094 39.601563 L 99.964844 44.367188 L 94.917969 44.46875 L 98.941406 47.519531 L 97.480469 52.347656 L 101.621094 49.464844 L 105.761719 52.347656 L 104.300781 47.519531 L 108.320313 44.46875 L 103.277344 44.367188 " />
      <path style=" stroke:none;fill-rule:nonzero;fill:rgb(38.426208%,66.601563%,87.5%);fill-opacity:1;" d="M 101.621094 21.632813 L 99.964844 26.394531 L 94.917969 26.5 L 98.941406 29.546875 L 97.480469 34.375 L 101.621094 31.492188 L 105.761719 34.375 L 104.300781 29.546875 L 108.320313 26.5 L 103.277344 26.394531 " />
      <path style=" stroke:none;fill-rule:nonzero;fill:rgb(38.426208%,66.601563%,87.5%);fill-opacity:1;" d="M 119.589844 129.460938 L 117.933594 134.226563 L 112.890625 134.328125 L 116.910156 137.375 L 115.449219 142.203125 L 119.589844 139.324219 L 123.730469 142.203125 L 122.269531 137.375 L 126.289063 134.328125 L 121.246094 134.226563 " />
      <path style=" stroke:none;fill-rule:nonzero;fill:rgb(38.426208%,66.601563%,87.5%);fill-opacity:1;" d="M 119.589844 111.488281 L 117.933594 116.253906 L 112.890625 116.355469 L 116.910156 119.402344 L 115.449219 124.230469 L 119.589844 121.351563 L 123.730469 124.230469 L 122.269531 119.402344 L 126.289063 116.355469 L 121.246094 116.253906 " />
      <path style=" stroke:none;fill-rule:nonzero;fill:rgb(38.426208%,66.601563%,87.5%);fill-opacity:1;" d="M 119.589844 93.515625 L 117.933594 98.28125 L 112.890625 98.382813 L 116.910156 101.433594 L 115.449219 106.261719 L 119.589844 103.378906 L 123.730469 106.261719 L 122.269531 101.433594 L 126.289063 98.382813 L 121.246094 98.28125 " />
      <path style=" stroke:none;fill-rule:nonzero;fill:rgb(38.426208%,66.601563%,87.5%);fill-opacity:1;" d="M 119.589844 75.546875 L 117.933594 80.308594 L 112.890625 80.414063 L 116.910156 83.460938 L 115.449219 88.289063 L 119.589844 85.40625 L 123.730469 88.289063 L 122.269531 83.460938 L 126.289063 80.414063 L 121.246094 80.308594 " />
      <path style=" stroke:none;fill-rule:nonzero;fill:rgb(38.426208%,66.601563%,87.5%);fill-opacity:1;" d="M 119.589844 57.574219 L 117.933594 62.339844 L 112.890625 62.441406 L 116.910156 65.488281 L 115.449219 70.316406 L 119.589844 67.4375 L 123.730469 70.316406 L 122.269531 65.488281 L 126.289063 62.441406 L 121.246094 62.339844 " />
      <path style=" stroke:none;fill-rule:nonzero;fill:rgb(38.426208%,66.601563%,87.5%);fill-opacity:1;" d="M 119.589844 39.601563 L 117.933594 44.367188 L 112.890625 44.46875 L 116.910156 47.519531 L 115.449219 52.347656 L 119.589844 49.464844 L 123.730469 52.347656 L 122.269531 47.519531 L 126.289063 44.46875 L 121.246094 44.367188 " />
      <path style=" stroke:none;fill-rule:nonzero;fill:rgb(38.426208%,66.601563%,87.5%);fill-opacity:1;" d="M 119.589844 21.632813 L 117.933594 26.394531 L 112.890625 26.5 L 116.910156 29.546875 L 115.449219 34.375 L 119.589844 31.492188 L 123.730469 34.375 L 122.269531 29.546875 L 126.289063 26.5 L 121.246094 26.394531 " />
      <path style=" stroke:none;fill-rule:nonzero;fill:rgb(38.426208%,66.601563%,87.5%);fill-opacity:1;" d="M 137.5625 129.460938 L 135.90625 134.226563 L 130.863281 134.328125 L 134.882813 137.375 L 133.421875 142.203125 L 137.5625 139.324219 L 141.703125 142.203125 L 140.242188 137.375 L 144.261719 134.328125 L 139.21875 134.226563 " />
      <path style=" stroke:none;fill-rule:nonzero;fill:rgb(38.426208%,66.601563%,87.5%);fill-opacity:1;" d="M 137.5625 111.488281 L 135.90625 116.253906 L 130.863281 116.355469 L 134.882813 119.402344 L 133.421875 124.230469 L 137.5625 121.351563 L 141.703125 124.230469 L 140.242188 119.402344 L 144.261719 116.355469 L 139.21875 116.253906 " />
      <path style=" stroke:none;fill-rule:nonzero;fill:rgb(38.426208%,66.601563%,87.5%);fill-opacity:1;" d="M 137.5625 93.515625 L 135.90625 98.28125 L 130.863281 98.382813 L 134.882813 101.433594 L 133.421875 106.261719 L 137.5625 103.378906 L 141.703125 106.261719 L 140.242188 101.433594 L 144.261719 98.382813 L 139.21875 98.28125 " />
      <path style=" stroke:none;fill-rule:nonzero;fill:rgb(38.426208%,66.601563%,87.5%);fill-opacity:1;" d="M 137.5625 75.546875 L 135.90625 80.308594 L 130.863281 80.414063 L 134.882813 83.460938 L 133.421875 88.289063 L 137.5625 85.40625 L 141.703125 88.289063 L 140.242188 83.460938 L 144.261719 80.414063 L 139.21875 80.308594 " />
      <path style=" stroke:none;fill-rule:nonzero;fill:rgb(38.426208%,66.601563%,87.5%);fill-opacity:1;" d="M 137.5625 57.574219 L 135.90625 62.339844 L 130.863281 62.441406 L 134.882813 65.488281 L 133.421875 70.316406 L 137.5625 67.4375 L 141.703125 70.316406 L 140.242188 65.488281 L 144.261719 62.441406 L 139.21875 62.339844 " />
      <path style=" stroke:none;fill-rule:nonzero;fill:rgb(38.426208%,66.601563%,87.5%);fill-opacity:1;" d="M 137.5625 39.601563 L 135.90625 44.367188 L 130.863281 44.46875 L 134.882813 47.519531 L 133.421875 52.347656 L 137.5625 49.464844 L 141.703125 52.347656 L 140.242188 47.519531 L 144.261719 44.46875 L 139.21875 44.367188 " />
      <path style=" stroke:none;fill-rule:nonzero;fill:rgb(38.426208%,66.601563%,87.5%);fill-opacity:1;" d="M 137.5625 21.632813 L 135.90625 26.394531 L 130.863281 26.5 L 134.882813 29.546875 L 133.421875 34.375 L 137.5625 31.492188 L 141.703125 34.375 L 140.242188 29.546875 L 144.261719 26.5 L 139.21875 26.394531 " />
      <path style=" stroke:none;fill-rule:nonzero;fill:rgb(38.426208%,66.601563%,87.5%);fill-opacity:1;" d="M 155.535156 129.460938 L 153.878906 134.226563 L 148.835938 134.328125 L 152.855469 137.375 L 151.394531 142.203125 L 155.535156 139.324219 L 159.675781 142.203125 L 158.214844 137.375 L 162.234375 134.328125 L 157.191406 134.226563 " />
      <path style=" stroke:none;fill-rule:nonzero;fill:rgb(38.426208%,66.601563%,87.5%);fill-opacity:1;" d="M 155.535156 111.488281 L 153.878906 116.253906 L 148.835938 116.355469 L 152.855469 119.402344 L 151.394531 124.230469 L 155.535156 121.351563 L 159.675781 124.230469 L 158.214844 119.402344 L 162.234375 116.355469 L 157.191406 116.253906 " />
      <path style=" stroke:none;fill-rule:nonzero;fill:rgb(38.426208%,66.601563%,87.5%);fill-opacity:1;" d="M 155.535156 93.515625 L 153.878906 98.28125 L 148.835938 98.382813 L 152.855469 101.433594 L 151.394531 106.261719 L 155.535156 103.378906 L 159.675781 106.261719 L 158.214844 101.433594 L 162.234375 98.382813 L 157.191406 98.28125 " />
      <path style=" stroke:none;fill-rule:nonzero;fill:rgb(38.426208%,66.601563%,87.5%);fill-opacity:1;" d="M 155.535156 75.546875 L 153.878906 80.308594 L 148.835938 80.414063 L 152.855469 83.460938 L 151.394531 88.289063 L 155.535156 85.40625 L 159.675781 88.289063 L 158.214844 83.460938 L 162.234375 80.414063 L 157.191406 80.308594 " />
      <path style=" stroke:none;fill-rule:nonzero;fill:rgb(38.426208%,66.601563%,87.5%);fill-opacity:1;" d="M 155.535156 57.574219 L 153.878906 62.339844 L 148.835938 62.441406 L 152.855469 65.488281 L 151.394531 70.316406 L 155.535156 67.4375 L 159.675781 70.316406 L 158.214844 65.488281 L 162.234375 62.441406 L 157.191406 62.339844 " />
      <path style=" stroke:none;fill-rule:nonzero;fill:rgb(38.426208%,66.601563%,87.5%);fill-opacity:1;" d="M 155.535156 39.601563 L 153.878906 44.367188 L 148.835938 44.46875 L 152.855469 47.519531 L 151.394531 52.347656 L 155.535156 49.464844 L 159.675781 52.347656 L 158.214844 47.519531 L 162.234375 44.46875 L 157.191406 44.367188 " />
      <path style=" stroke:none;fill-rule:nonzero;fill:rgb(38.426208%,66.601563%,87.5%);fill-opacity:1;" d="M 155.535156 21.632813 L 153.878906 26.394531 L 148.835938 26.5 L 152.855469 29.546875 L 151.394531 34.375 L 155.535156 31.492188 L 159.675781 34.375 L 158.214844 29.546875 L 162.234375 26.5 L 157.191406 26.394531 " />
      <path style=" stroke:none;fill-rule:nonzero;fill:rgb(38.426208%,66.601563%,87.5%);fill-opacity:1;" d="M 173.503906 129.460938 L 171.847656 134.226563 L 166.804688 134.328125 L 170.824219 137.375 L 169.363281 142.203125 L 173.503906 139.324219 L 177.644531 142.203125 L 176.183594 137.375 L 180.203125 134.328125 L 175.160156 134.226563 " />
      <path style=" stroke:none;fill-rule:nonzero;fill:rgb(38.426208%,66.601563%,87.5%);fill-opacity:1;" d="M 173.503906 111.488281 L 171.847656 116.253906 L 166.804688 116.355469 L 170.824219 119.402344 L 169.363281 124.230469 L 173.503906 121.351563 L 177.644531 124.230469 L 176.183594 119.402344 L 180.203125 116.355469 L 175.160156 116.253906 " />
      <path style=" stroke:none;fill-rule:nonzero;fill:rgb(38.426208%,66.601563%,87.5%);fill-opacity:1;" d="M 173.503906 93.515625 L 171.847656 98.28125 L 166.804688 98.382813 L 170.824219 101.433594 L 169.363281 106.261719 L 173.503906 103.378906 L 177.644531 106.261719 L 176.183594 101.433594 L 180.203125 98.382813 L 175.160156 98.28125 " />
      <path style=" stroke:none;fill-rule:nonzero;fill:rgb(38.426208%,66.601563%,87.5%);fill-opacity:1;" d="M 173.503906 75.546875 L 171.847656 80.308594 L 166.804688 80.414063 L 170.824219 83.460938 L 169.363281 88.289063 L 173.503906 85.40625 L 177.644531 88.289063 L 176.183594 83.460938 L 180.203125 80.414063 L 175.160156 80.308594 " />
      <path style=" stroke:none;fill-rule:nonzero;fill:rgb(38.426208%,66.601563%,87.5%);fill-opacity:1;" d="M 173.503906 57.574219 L 171.847656 62.339844 L 166.804688 62.441406 L 170.824219 65.488281 L 169.363281 70.316406 L 173.503906 67.4375 L 177.644531 70.316406 L 176.183594 65.488281 L 180.203125 62.441406 L 175.160156 62.339844 " />
      <path style=" stroke:none;fill-rule:nonzero;fill:rgb(38.426208%,66.601563%,87.5%);fill-opacity:1;" d="M 173.503906 39.601563 L 171.847656 44.367188 L 166.804688 44.46875 L 170.824219 47.519531 L 169.363281 52.347656 L 173.503906 49.464844 L 177.644531 52.347656 L 176.183594 47.519531 L 180.203125 44.46875 L 175.160156 44.367188 " />
      <path style=" stroke:none;fill-rule:nonzero;fill:rgb(38.426208%,66.601563%,87.5%);fill-opacity:1;" d="M 173.503906 21.632813 L 171.847656 26.394531 L 166.804688 26.5 L 170.824219 29.546875 L 169.363281 34.375 L 173.503906 31.492188 L 177.644531 34.375 L 176.183594 29.546875 L 180.203125 26.5 L 175.160156 26.394531 " />
      <path style=" stroke:none;fill-rule:nonzero;fill:rgb(38.426208%,66.601563%,87.5%);fill-opacity:1;" d="M 191.476563 129.460938 L 189.820313 134.226563 L 184.777344 134.328125 L 188.796875 137.375 L 187.335938 142.203125 L 191.476563 139.324219 L 195.617188 142.203125 L 194.15625 137.375 L 198.175781 134.328125 L 193.132813 134.226563 " />
      <path style=" stroke:none;fill-rule:nonzero;fill:rgb(38.426208%,66.601563%,87.5%);fill-opacity:1;" d="M 191.476563 111.488281 L 189.820313 116.253906 L 184.777344 116.355469 L 188.796875 119.402344 L 187.335938 124.230469 L 191.476563 121.351563 L 195.617188 124.230469 L 194.15625 119.402344 L 198.175781 116.355469 L 193.132813 116.253906 " />
      <path style=" stroke:none;fill-rule:nonzero;fill:rgb(38.426208%,66.601563%,87.5%);fill-opacity:1;" d="M 191.476563 93.515625 L 189.820313 98.28125 L 184.777344 98.382813 L 188.796875 101.433594 L 187.335938 106.261719 L 191.476563 103.378906 L 195.617188 106.261719 L 194.15625 101.433594 L 198.175781 98.382813 L 193.132813 98.28125 " />
      <path style=" stroke:none;fill-rule:nonzero;fill:rgb(38.426208%,66.601563%,87.5%);fill-opacity:1;" d="M 191.476563 75.546875 L 189.820313 80.308594 L 184.777344 80.414063 L 188.796875 83.460938 L 187.335938 88.289063 L 191.476563 85.40625 L 195.617188 88.289063 L 194.15625 83.460938 L 198.175781 80.414063 L 193.132813 80.308594 " />
      <path style=" stroke:none;fill-rule:nonzero;fill:rgb(38.426208%,66.601563%,87.5%);fill-opacity:1;" d="M 191.476563 57.574219 L 189.820313 62.339844 L 184.777344 62.441406 L 188.796875 65.488281 L 187.335938 70.316406 L 191.476563 67.4375 L 195.617188 70.316406 L 194.15625 65.488281 L 198.175781 62.441406 L 193.132813 62.339844 " />
      <path style=" stroke:none;fill-rule:nonzero;fill:rgb(38.426208%,66.601563%,87.5%);fill-opacity:1;" d="M 191.476563 39.601563 L 189.820313 44.367188 L 184.777344 44.46875 L 188.796875 47.519531 L 187.335938 52.347656 L 191.476563 49.464844 L 195.617188 52.347656 L 194.15625 47.519531 L 198.175781 44.46875 L 193.132813 44.367188 " />
      <path style=" stroke:none;fill-rule:nonzero;fill:rgb(38.426208%,66.601563%,87.5%);fill-opacity:1;" d="M 191.476563 21.632813 L 189.820313 26.394531 L 184.777344 26.5 L 188.796875 29.546875 L 187.335938 34.375 L 191.476563 31.492188 L 195.617188 34.375 L 194.15625 29.546875 L 198.175781 26.5 L 193.132813 26.394531 " />
      <path style=" stroke:none;fill-rule:nonzero;fill:rgb(38.426208%,66.601563%,87.5%);fill-opacity:1;" d="M 209.449219 129.460938 L 207.792969 134.226563 L 202.746094 134.328125 L 206.769531 137.375 L 205.308594 142.203125 L 209.449219 139.324219 L 213.589844 142.203125 L 212.128906 137.375 L 216.148438 134.328125 L 211.105469 134.226563 " />
      <path style=" stroke:none;fill-rule:nonzero;fill:rgb(38.426208%,66.601563%,87.5%);fill-opacity:1;" d="M 209.449219 111.488281 L 207.792969 116.253906 L 202.746094 116.355469 L 206.769531 119.402344 L 205.308594 124.230469 L 209.449219 121.351563 L 213.589844 124.230469 L 212.128906 119.402344 L 216.148438 116.355469 L 211.105469 116.253906 " />
      <path style=" stroke:none;fill-rule:nonzero;fill:rgb(38.426208%,66.601563%,87.5%);fill-opacity:1;" d="M 209.449219 93.515625 L 207.792969 98.28125 L 202.746094 98.382813 L 206.769531 101.433594 L 205.308594 106.261719 L 209.449219 103.378906 L 213.589844 106.261719 L 212.128906 101.433594 L 216.148438 98.382813 L 211.105469 98.28125 " />
      <path style=" stroke:none;fill-rule:nonzero;fill:rgb(38.426208%,66.601563%,87.5%);fill-opacity:1;" d="M 209.449219 75.546875 L 207.792969 80.308594 L 202.746094 80.414063 L 206.769531 83.460938 L 205.308594 88.289063 L 209.449219 85.40625 L 213.589844 88.289063 L 212.128906 83.460938 L 216.148438 80.414063 L 211.105469 80.308594 " />
      <path style=" stroke:none;fill-rule:nonzero;fill:rgb(38.426208%,66.601563%,87.5%);fill-opacity:1;" d="M 209.449219 57.574219 L 207.792969 62.339844 L 202.746094 62.441406 L 206.769531 65.488281 L 205.308594 70.316406 L 209.449219 67.4375 L 213.589844 70.316406 L 212.128906 65.488281 L 216.148438 62.441406 L 211.105469 62.339844 " />
      <path style=" stroke:none;fill-rule:nonzero;fill:rgb(38.426208%,66.601563%,87.5%);fill-opacity:1;" d="M 209.449219 39.601563 L 207.792969 44.367188 L 202.746094 44.46875 L 206.769531 47.519531 L 205.308594 52.347656 L 209.449219 49.464844 L 213.589844 52.347656 L 212.128906 47.519531 L 216.148438 44.46875 L 211.105469 44.367188 " />
      <path style=" stroke:none;fill-rule:nonzero;fill:rgb(38.426208%,66.601563%,87.5%);fill-opacity:1;" d="M 209.449219 21.632813 L 207.792969 26.394531 L 202.746094 26.5 L 206.769531 29.546875 L 205.308594 34.375 L 209.449219 31.492188 L 213.589844 34.375 L 212.128906 29.546875 L 216.148438 26.5 L 211.105469 26.394531 " />
      <path style=" stroke:none;fill-rule:nonzero;fill:rgb(38.426208%,66.601563%,87.5%);fill-opacity:1;" d="M 227.421875 129.460938 L 225.761719 134.226563 L 220.71875 134.328125 L 224.738281 137.375 L 223.277344 142.203125 L 227.421875 139.324219 L 231.5625 142.203125 L 230.101563 137.375 L 234.121094 134.328125 L 229.074219 134.226563 " />
      <path style=" stroke:none;fill-rule:nonzero;fill:rgb(38.426208%,66.601563%,87.5%);fill-opacity:1;" d="M 227.421875 111.488281 L 225.761719 116.253906 L 220.71875 116.355469 L 224.738281 119.402344 L 223.277344 124.230469 L 227.421875 121.351563 L 231.5625 124.230469 L 230.101563 119.402344 L 234.121094 116.355469 L 229.074219 116.253906 " />
      <path style=" stroke:none;fill-rule:nonzero;fill:rgb(38.426208%,66.601563%,87.5%);fill-opacity:1;" d="M 227.421875 93.515625 L 225.761719 98.28125 L 220.71875 98.382813 L 224.738281 101.433594 L 223.277344 106.261719 L 227.421875 103.378906 L 231.5625 106.261719 L 230.101563 101.433594 L 234.121094 98.382813 L 229.074219 98.28125 " />
      <path style=" stroke:none;fill-rule:nonzero;fill:rgb(38.426208%,66.601563%,87.5%);fill-opacity:1;" d="M 227.421875 75.546875 L 225.761719 80.308594 L 220.71875 80.414063 L 224.738281 83.460938 L 223.277344 88.289063 L 227.421875 85.40625 L 231.5625 88.289063 L 230.101563 83.460938 L 234.121094 80.414063 L 229.074219 80.308594 " />
      <path style=" stroke:none;fill-rule:nonzero;fill:rgb(38.426208%,66.601563%,87.5%);fill-opacity:1;" d="M 227.421875 57.574219 L 225.761719 62.339844 L 220.71875 62.441406 L 224.738281 65.488281 L 223.277344 70.316406 L 227.421875 67.4375 L 231.5625 70.316406 L 230.101563 65.488281 L 234.121094 62.441406 L 229.074219 62.339844 " />
      <path style=" stroke:none;fill-rule:nonzero;fill:rgb(38.426208%,66.601563%,87.5%);fill-opacity:1;" d="M 227.421875 39.601563 L 225.761719 44.367188 L 220.71875 44.46875 L 224.738281 47.519531 L 223.277344 52.347656 L 227.421875 49.464844 L 231.5625 52.347656 L 230.101563 47.519531 L 234.121094 44.46875 L 229.074219 44.367188 " />
      <path style=" stroke:none;fill-rule:nonzero;fill:rgb(38.426208%,66.601563%,87.5%);fill-opacity:1;" d="M 227.421875 21.632813 L 225.761719 26.394531 L 220.71875 26.5 L 224.738281 29.546875 L 223.277344 34.375 L 227.421875 31.492188 L 231.5625 34.375 L 230.101563 29.546875 L 234.121094 26.5 L 229.074219 26.394531 " />
      <path style=" stroke:none;fill-rule:nonzero;fill:rgb(38.426208%,66.601563%,87.5%);fill-opacity:1;" d="M 245.390625 129.460938 L 243.734375 134.226563 L 238.691406 134.328125 L 242.710938 137.375 L 241.25 142.203125 L 245.390625 139.324219 L 249.53125 142.203125 L 248.070313 137.375 L 252.089844 134.328125 L 247.046875 134.226563 " />
      <path style=" stroke:none;fill-rule:nonzero;fill:rgb(38.426208%,66.601563%,87.5%);fill-opacity:1;" d="M 245.390625 111.488281 L 243.734375 116.253906 L 238.691406 116.355469 L 242.710938 119.402344 L 241.25 124.230469 L 245.390625 121.351563 L 249.53125 124.230469 L 248.070313 119.402344 L 252.089844 116.355469 L 247.046875 116.253906 " />
      <path style=" stroke:none;fill-rule:nonzero;fill:rgb(38.426208%,66.601563%,87.5%);fill-opacity:1;" d="M 245.390625 93.515625 L 243.734375 98.28125 L 238.691406 98.382813 L 242.710938 101.433594 L 241.25 106.261719 L 245.390625 103.378906 L 249.53125 106.261719 L 248.070313 101.433594 L 252.089844 98.382813 L 247.046875 98.28125 " />
      <path style=" stroke:none;fill-rule:nonzero;fill:rgb(38.426208%,66.601563%,87.5%);fill-opacity:1;" d="M 245.390625 75.546875 L 243.734375 80.308594 L 238.691406 80.414063 L 242.710938 83.460938 L 241.25 88.289063 L 245.390625 85.40625 L 249.53125 88.289063 L 248.070313 83.460938 L 252.089844 80.414063 L 247.046875 80.308594 " />
      <path style=" stroke:none;fill-rule:nonzero;fill:rgb(38.426208%,66.601563%,87.5%);fill-opacity:1;" d="M 245.390625 57.574219 L 243.734375 62.339844 L 238.691406 62.441406 L 242.710938 65.488281 L 241.25 70.316406 L 245.390625 67.4375 L 249.53125 70.316406 L 248.070313 65.488281 L 252.089844 62.441406 L 247.046875 62.339844 " />
      <path style=" stroke:none;fill-rule:nonzero;fill:rgb(38.426208%,66.601563%,87.5%);fill-opacity:1;" d="M 245.390625 39.601563 L 243.734375 44.367188 L 238.691406 44.46875 L 242.710938 47.519531 L 241.25 52.347656 L 245.390625 49.464844 L 249.53125 52.347656 L 248.070313 47.519531 L 252.089844 44.46875 L 247.046875 44.367188 " />
      <path style=" stroke:none;fill-rule:nonzero;fill:rgb(38.426208%,66.601563%,87.5%);fill-opacity:1;" d="M 245.390625 21.632813 L 243.734375 26.394531 L 238.691406 26.5 L 242.710938 29.546875 L 241.25 34.375 L 245.390625 31.492188 L 249.53125 34.375 L 248.070313 29.546875 L 252.089844 26.5 L 247.046875 26.394531 " />
    </g>
  </svg>