<svg class="displayed_equation" xmlns="http://www.w3.org/2000/svg" xmlns:xlink="http://www.w3.org/1999/xlink" width="274.4pt" height="145.6pt" viewBox="0 0 274.4 145.6" version="1.1">
    <g id="svg803162041543tikz_00001surface1">
      <path style="fill:none;stroke-width:7.9701;stroke-linecap:butt;stroke-linejoin:miter;stroke:rgb(0%,0%,0%);stroke-opacity:1;stroke-miterlimit:10;" d="M 128.984375 208.695313 L 128.984375 1247.367188 C 128.984375 1291.390625 164.6875 1327.09375 208.671875 1327.09375 L 2535.3125 1327.09375 C 2579.335938 1327.09375 2615.039063 1291.390625 2615.039063 1247.367188 L 2615.039063 208.695313 C 2615.039063 164.671875 2579.335938 128.96875 2535.3125 128.96875 L 208.671875 128.96875 C 164.6875 128.96875 128.984375 164.671875 128.984375 208.695313 Z M 128.984375 208.695313 " transform="matrix(0.1,0,0,-0.1,0,145.6)" />
      <path style=" stroke:none;fill-rule:nonzero;fill:rgb(38.426208%,66.601563%,87.5%);fill-opacity:1;" d="M 29.734375 109.988281 L 28.078125 114.753906 L 23.035156 114.855469 L 27.054688 117.90625 L 25.59375 122.734375 L 29.734375 119.851563 L 33.875 122.734375 L 32.414063 117.90625 L 36.433594 114.855469 L 31.390625 114.753906 " />
      <path style=" stroke:none;fill-rule:nonzero;fill:rgb(38.426208%,66.601563%,87.5%);fill-opacity:1;" d="M 29.734375 92.019531 L 28.078125 96.78125 L 23.035156 96.886719 L 27.054688 99.933594 L 25.59375 104.761719 L 29.734375 101.878906 L 33.875 104.761719 L 32.414063 99.933594 L 36.433594 96.886719 L 31.390625 96.78125 " />
      <path style=" stroke:none;fill-rule:nonzero;fill:rgb(38.426208%,66.601563%,87.5%);fill-opacity:1;" d="M 29.734375 74.046875 L 28.078125 78.8125 L 23.035156 78.914063 L 27.054688 81.960938 L 25.59375 86.789063 L 29.734375 83.910156 L 33.875 86.789063 L 32.414063 81.960938 L 36.433594 78.914063 L 31.390625 78.8125 " />
      <path style=" stroke:none;fill-rule:nonzero;fill:rgb(38.426208%,66.601563%,87.5%);fill-opacity:1;" d="M 29.734375 56.074219 L 28.078125 60.839844 L 23.035156 60.941406 L 27.054688 63.992188 L 25.59375 68.820313 L 29.734375 65.9375 L 33.875 68.820313 L 32.414063 63.992188 L 36.433594 60.941406 L 31.390625 60.839844 " />
      <path style=" stroke:none;fill-rule:nonzero;fill:rgb(38.426208%,66.601563%,87.5%);fill-opacity:1;" d="M 29.734375 38.105469 L 28.078125 42.867188 L 23.035156 42.972656 L 27.054688 46.019531 L 25.59375 50.847656 L 29.734375 47.964844 L 33.875 50.847656 L 32.414063 46.019531 L 36.433594 42.972656 L 31.390625 42.867188 " />
      <path style=" stroke:none;fill-rule:nonzero;fill:rgb(38.426208%,66.601563%,87.5%);fill-opacity:1;" d="M 29.734375 20.132813 L 28.078125 24.898438 L 23.035156 25 L 27.054688 28.046875 L 25.59375 32.878906 L 29.734375 29.996094 L 33.875 32.878906 L 32.414063 28.046875 L 36.433594 25 L 31.390625 24.898438 " />
      <path style=" stroke:none;fill-rule:nonzero;fill:rgb(38.426208%,66.601563%,87.5%);fill-opacity:1;" d="M 47.707031 109.988281 L 46.050781 114.753906 L 41.003906 114.855469 L 45.027344 117.90625 L 43.566406 122.734375 L 47.707031 119.851563 L 51.847656 122.734375 L 50.386719 117.90625 L 54.40625 114.855469 L 49.363281 114.753906 " />
      <path style=" stroke:none;fill-rule:nonzero;fill:rgb(38.426208%,66.601563%,87.5%);fill-opacity:1;" d="M 47.707031 92.019531 L 46.050781 96.78125 L 41.003906 96.886719 L 45.027344 99.933594 L 43.566406 104.761719 L 47.707031 101.878906 L 51.847656 104.761719 L 50.386719 99.933594 L 54.40625 96.886719 L 49.363281 96.78125 " />
      <path style=" stroke:none;fill-rule:nonzero;fill:rgb(38.426208%,66.601563%,87.5%);fill-opacity:1;" d="M 47.707031 74.046875 L 46.050781 78.8125 L 41.003906 78.914063 L 45.027344 81.960938 L 43.566406 86.789063 L 47.707031 83.910156 L 51.847656 86.789063 L 50.386719 81.960938 L 54.40625 78.914063 L 49.363281 78.8125 " />
      <path style=" stroke:none;fill-rule:nonzero;fill:rgb(38.426208%,66.601563%,87.5%);fill-opacity:1;" d="M 47.707031 56.074219 L 46.050781 60.839844 L 41.003906 60.941406 L 45.027344 63.992188 L 43.566406 68.820313 L 47.707031 65.9375 L 51.847656 68.820313 L 50.386719 63.992188 L 54.40625 60.941406 L 49.363281 60.839844 " />
      <path style=" stroke:none;fill-rule:nonzero;fill:rgb(38.426208%,66.601563%,87.5%);fill-opacity:1;" d="M 47.707031 38.105469 L 46.050781 42.867188 L 41.003906 42.972656 L 45.027344 46.019531 L 43.566406 50.847656 L 47.707031 47.964844 L 51.847656 50.847656 L 50.386719 46.019531 L 54.40625 42.972656 L 49.363281 42.867188 " />
      <path style=" stroke:none;fill-rule:nonzero;fill:rgb(38.426208%,66.601563%,87.5%);fill-opacity:1;" d="M 47.707031 20.132813 L 46.050781 24.898438 L 41.003906 25 L 45.027344 28.046875 L 43.566406 32.878906 L 47.707031 29.996094 L 51.847656 32.878906 L 50.386719 28.046875 L 54.40625 25 L 49.363281 24.898438 " />
      <path style=" stroke:none;fill-rule:nonzero;fill:rgb(38.426208%,66.601563%,87.5%);fill-opacity:1;" d="M 65.675781 109.988281 L 64.019531 114.753906 L 58.976563 114.855469 L 62.996094 117.90625 L 61.535156 122.734375 L 65.675781 119.851563 L 69.816406 122.734375 L 68.355469 117.90625 L 72.378906 114.855469 L 67.332031 114.753906 " />
      <path style=" stroke:none;fill-rule:nonzero;fill:rgb(38.426208%,66.601563%,87.5%);fill-opacity:1;" d="M 65.675781 92.019531 L 64.019531 96.78125 L 58.976563 96.886719 L 62.996094 99.933594 L 61.535156 104.761719 L 65.675781 101.878906 L 69.816406 104.761719 L 68.355469 99.933594 L 72.378906 96.886719 L 67.332031 96.78125 " />
      <path style=" stroke:none;fill-rule:nonzero;fill:rgb(38.426208%,66.601563%,87.5%);fill-opacity:1;" d="M 65.675781 74.046875 L 64.019531 78.8125 L 58.976563 78.914063 L 62.996094 81.960938 L 61.535156 86.789063 L 65.675781 83.910156 L 69.816406 86.789063 L 68.355469 81.960938 L 72.378906 78.914063 L 67.332031 78.8125 " />
      <path style=" stroke:none;fill-rule:nonzero;fill:rgb(38.426208%,66.601563%,87.5%);fill-opacity:1;" d="M 65.675781 56.074219 L 64.019531 60.839844 L 58.976563 60.941406 L 62.996094 63.992188 L 61.535156 68.820313 L 65.675781 65.9375 L 69.816406 68.820313 L 68.355469 63.992188 L 72.378906 60.941406 L 67.332031 60.839844 " />
      <path style=" stroke:none;fill-rule:nonzero;fill:rgb(38.426208%,66.601563%,87.5%);fill-opacity:1;" d="M 65.675781 38.105469 L 64.019531 42.867188 L 58.976563 42.972656 L 62.996094 46.019531 L 61.535156 50.847656 L 65.675781 47.964844 L 69.816406 50.847656 L 68.355469 46.019531 L 72.378906 42.972656 L 67.332031 42.867188 " />
      <path style=" stroke:none;fill-rule:nonzero;fill:rgb(38.426208%,66.601563%,87.5%);fill-opacity:1;" d="M 65.675781 20.132813 L 64.019531 24.898438 L 58.976563 25 L 62.996094 28.046875 L 61.535156 32.878906 L 65.675781 29.996094 L 69.816406 32.878906 L 68.355469 28.046875 L 72.378906 25 L 67.332031 24.898438 " />
      <path style=" stroke:none;fill-rule:nonzero;fill:rgb(38.426208%,66.601563%,87.5%);fill-opacity:1;" d="M 83.648438 109.988281 L 81.992188 114.753906 L 76.949219 114.855469 L 80.96875 117.90625 L 79.507813 122.734375 L 83.648438 119.851563 L 87.789063 122.734375 L 86.328125 117.90625 L 90.347656 114.855469 L 85.304688 114.753906 " />
      <path style=" stroke:none;fill-rule:nonzero;fill:rgb(38.426208%,66.601563%,87.5%);fill-opacity:1;" d="M 83.648438 92.019531 L 81.992188 96.78125 L 76.949219 96.886719 L 80.96875 99.933594 L 79.507813 104.761719 L 83.648438 101.878906 L 87.789063 104.761719 L 86.328125 99.933594 L 90.347656 96.886719 L 85.304688 96.78125 " />
      <path style=" stroke:none;fill-rule:nonzero;fill:rgb(38.426208%,66.601563%,87.5%);fill-opacity:1;" d="M 83.648438 74.046875 L 81.992188 78.8125 L 76.949219 78.914063 L 80.96875 81.960938 L 79.507813 86.789063 L 83.648438 83.910156 L 87.789063 86.789063 L 86.328125 81.960938 L 90.347656 78.914063 L 85.304688 78.8125 " />
      <path style=" stroke:none;fill-rule:nonzero;fill:rgb(38.426208%,66.601563%,87.5%);fill-opacity:1;" d="M 83.648438 56.074219 L 81.992188 60.839844 L 76.949219 60.941406 L 80.96875 63.992188 L 79.507813 68.820313 L 83.648438 65.9375 L 87.789063 68.820313 L 86.328125 63.992188 L 90.347656 60.941406 L 85.304688 60.839844 " />
      <path style=" stroke:none;fill-rule:nonzero;fill:rgb(38.426208%,66.601563%,87.5%);fill-opacity:1;" d="M 83.648438 38.105469 L 81.992188 42.867188 L 76.949219 42.972656 L 80.96875 46.019531 L 79.507813 50.847656 L 83.648438 47.964844 L 87.789063 50.847656 L 86.328125 46.019531 L 90.347656 42.972656 L 85.304688 42.867188 " />
      <path style=" stroke:none;fill-rule:nonzero;fill:rgb(38.426208%,66.601563%,87.5%);fill-opacity:1;" d="M 83.648438 20.132813 L 81.992188 24.898438 L 76.949219 25 L 80.96875 28.046875 L 79.507813 32.878906 L 83.648438 29.996094 L 87.789063 32.878906 L 86.328125 28.046875 L 90.347656 25 L 85.304688 24.898438 " />
      <path style=" stroke:none;fill-rule:nonzero;fill:rgb(38.426208%,66.601563%,87.5%);fill-opacity:1;" d="M 101.621094 109.988281 L 99.964844 114.753906 L 94.917969 114.855469 L 98.941406 117.90625 L 97.480469 122.734375 L 101.621094 119.851563 L 105.761719 122.734375 L 104.300781 117.90625 L 108.320313 114.855469 L 103.277344 114.753906 " />
      <path style=" stroke:none;fill-rule:nonzero;fill:rgb(38.426208%,66.601563%,87.5%);fill-opacity:1;" d="M 101.621094 92.019531 L 99.964844 96.78125 L 94.917969 96.886719 L 98.941406 99.933594 L 97.480469 104.761719 L 101.621094 101.878906 L 105.761719 104.761719 L 104.300781 99.933594 L 108.320313 96.886719 L 103.277344 96.78125 " />
      <path style=" stroke:none;fill-rule:nonzero;fill:rgb(38.426208%,66.601563%,87.5%);fill-opacity:1;" d="M 101.621094 74.046875 L 99.964844 78.8125 L 94.917969 78.914063 L 98.941406 81.960938 L 97.480469 86.789063 L 101.621094 83.910156 L 105.761719 86.789063 L 104.300781 81.960938 L 108.320313 78.914063 L 103.277344 78.8125 " />
      <path style=" stroke:none;fill-rule:nonzero;fill:rgb(38.426208%,66.601563%,87.5%);fill-opacity:1;" d="M 101.621094 56.074219 L 99.964844 60.839844 L 94.917969 60.941406 L 98.941406 63.992188 L 97.480469 68.820313 L 101.621094 65.9375 L 105.761719 68.820313 L 104.300781 63.992188 L 108.320313 60.941406 L 103.277344 60.839844 " />
      <path style=" stroke:none;fill-rule:nonzero;fill:rgb(38.426208%,66.601563%,87.5%);fill-opacity:1;" d="M 101.621094 38.105469 L 99.964844 42.867188 L 94.917969 42.972656 L 98.941406 46.019531 L 97.480469 50.847656 L 101.621094 47.964844 L 105.761719 50.847656 L 104.300781 46.019531 L 108.320313 42.972656 L 103.277344 42.867188 " />
      <path style=" stroke:none;fill-rule:nonzero;fill:rgb(38.426208%,66.601563%,87.5%);fill-opacity:1;" d="M 101.621094 20.132813 L 99.964844 24.898438 L 94.917969 25 L 98.941406 28.046875 L 97.480469 32.878906 L 101.621094 29.996094 L 105.761719 32.878906 L 104.300781 28.046875 L 108.320313 25 L 103.277344 24.898438 " />
      <path style=" stroke:none;fill-rule:nonzero;fill:rgb(38.426208%,66.601563%,87.5%);fill-opacity:1;" d="M 119.589844 109.988281 L 117.933594 114.753906 L 112.890625 114.855469 L 116.910156 117.90625 L 115.449219 122.734375 L 119.589844 119.851563 L 123.730469 122.734375 L 122.269531 117.90625 L 126.289063 114.855469 L 121.246094 114.753906 " />
      <path style=" stroke:none;fill-rule:nonzero;fill:rgb(38.426208%,66.601563%,87.5%);fill-opacity:1;" d="M 119.589844 92.019531 L 117.933594 96.78125 L 112.890625 96.886719 L 116.910156 99.933594 L 115.449219 104.761719 L 119.589844 101.878906 L 123.730469 104.761719 L 122.269531 99.933594 L 126.289063 96.886719 L 121.246094 96.78125 " />
      <path style=" stroke:none;fill-rule:nonzero;fill:rgb(38.426208%,66.601563%,87.5%);fill-opacity:1;" d="M 119.589844 74.046875 L 117.933594 78.8125 L 112.890625 78.914063 L 116.910156 81.960938 L 115.449219 86.789063 L 119.589844 83.910156 L 123.730469 86.789063 L 122.269531 81.960938 L 126.289063 78.914063 L 121.246094 78.8125 " />
      <path style=" stroke:none;fill-rule:nonzero;fill:rgb(38.426208%,66.601563%,87.5%);fill-opacity:1;" d="M 119.589844 56.074219 L 117.933594 60.839844 L 112.890625 60.941406 L 116.910156 63.992188 L 115.449219 68.820313 L 119.589844 65.9375 L 123.730469 68.820313 L 122.269531 63.992188 L 126.289063 60.941406 L 121.246094 60.839844 " />
      <path style=" stroke:none;fill-rule:nonzero;fill:rgb(38.426208%,66.601563%,87.5%);fill-opacity:1;" d="M 119.589844 38.105469 L 117.933594 42.867188 L 112.890625 42.972656 L 116.910156 46.019531 L 115.449219 50.847656 L 119.589844 47.964844 L 123.730469 50.847656 L 122.269531 46.019531 L 126.289063 42.972656 L 121.246094 42.867188 " />
      <path style=" stroke:none;fill-rule:nonzero;fill:rgb(38.426208%,66.601563%,87.5%);fill-opacity:1;" d="M 119.589844 20.132813 L 117.933594 24.898438 L 112.890625 25 L 116.910156 28.046875 L 115.449219 32.878906 L 119.589844 29.996094 L 123.730469 32.878906 L 122.269531 28.046875 L 126.289063 25 L 121.246094 24.898438 " />
      <path style=" stroke:none;fill-rule:nonzero;fill:rgb(38.426208%,66.601563%,87.5%);fill-opacity:1;" d="M 137.5625 109.988281 L 135.90625 114.753906 L 130.863281 114.855469 L 134.882813 117.90625 L 133.421875 122.734375 L 137.5625 119.851563 L 141.703125 122.734375 L 140.242188 117.90625 L 144.261719 114.855469 L 139.21875 114.753906 " />
      <path style=" stroke:none;fill-rule:nonzero;fill:rgb(38.426208%,66.601563%,87.5%);fill-opacity:1;" d="M 137.5625 92.019531 L 135.90625 96.78125 L 130.863281 96.886719 L 134.882813 99.933594 L 133.421875 104.761719 L 137.5625 101.878906 L 141.703125 104.761719 L 140.242188 99.933594 L 144.261719 96.886719 L 139.21875 96.78125 " />
      <path style=" stroke:none;fill-rule:nonzero;fill:rgb(38.426208%,66.601563%,87.5%);fill-opacity:1;" d="M 137.5625 74.046875 L 135.90625 78.8125 L 130.863281 78.914063 L 134.882813 81.960938 L 133.421875 86.789063 L 137.5625 83.910156 L 141.703125 86.789063 L 140.242188 81.960938 L 144.261719 78.914063 L 139.21875 78.8125 " />
      <path style=" stroke:none;fill-rule:nonzero;fill:rgb(38.426208%,66.601563%,87.5%);fill-opacity:1;" d="M 137.5625 56.074219 L 135.90625 60.839844 L 130.863281 60.941406 L 134.882813 63.992188 L 133.421875 68.820313 L 137.5625 65.9375 L 141.703125 68.820313 L 140.242188 63.992188 L 144.261719 60.941406 L 139.21875 60.839844 " />
      <path style=" stroke:none;fill-rule:nonzero;fill:rgb(38.426208%,66.601563%,87.5%);fill-opacity:1;" d="M 137.5625 38.105469 L 135.90625 42.867188 L 130.863281 42.972656 L 134.882813 46.019531 L 133.421875 50.847656 L 137.5625 47.964844 L 141.703125 50.847656 L 140.242188 46.019531 L 144.261719 42.972656 L 139.21875 42.867188 " />
      <path style=" stroke:none;fill-rule:nonzero;fill:rgb(38.426208%,66.601563%,87.5%);fill-opacity:1;" d="M 137.5625 20.132813 L 135.90625 24.898438 L 130.863281 25 L 134.882813 28.046875 L 133.421875 32.878906 L 137.5625 29.996094 L 141.703125 32.878906 L 140.242188 28.046875 L 144.261719 25 L 139.21875 24.898438 " />
      <path style=" stroke:none;fill-rule:nonzero;fill:rgb(38.426208%,66.601563%,87.5%);fill-opacity:1;" d="M 155.535156 109.988281 L 153.878906 114.753906 L 148.835938 114.855469 L 152.855469 117.90625 L 151.394531 122.734375 L 155.535156 119.851563 L 159.675781 122.734375 L 158.214844 117.90625 L 162.234375 114.855469 L 157.191406 114.753906 " />
      <path style=" stroke:none;fill-rule:nonzero;fill:rgb(38.426208%,66.601563%,87.5%);fill-opacity:1;" d="M 155.535156 92.019531 L 153.878906 96.78125 L 148.835938 96.886719 L 152.855469 99.933594 L 151.394531 104.761719 L 155.535156 101.878906 L 159.675781 104.761719 L 158.214844 99.933594 L 162.234375 96.886719 L 157.191406 96.78125 " />
      <path style=" stroke:none;fill-rule:nonzero;fill:rgb(38.426208%,66.601563%,87.5%);fill-opacity:1;" d="M 155.535156 74.046875 L 153.878906 78.8125 L 148.835938 78.914063 L 152.855469 81.960938 L 151.394531 86.789063 L 155.535156 83.910156 L 159.675781 86.789063 L 158.214844 81.960938 L 162.234375 78.914063 L 157.191406 78.8125 " />
      <path style=" stroke:none;fill-rule:nonzero;fill:rgb(38.426208%,66.601563%,87.5%);fill-opacity:1;" d="M 155.535156 56.074219 L 153.878906 60.839844 L 148.835938 60.941406 L 152.855469 63.992188 L 151.394531 68.820313 L 155.535156 65.9375 L 159.675781 68.820313 L 158.214844 63.992188 L 162.234375 60.941406 L 157.191406 60.839844 " />
      <path style=" stroke:none;fill-rule:nonzero;fill:rgb(38.426208%,66.601563%,87.5%);fill-opacity:1;" d="M 155.535156 38.105469 L 153.878906 42.867188 L 148.835938 42.972656 L 152.855469 46.019531 L 151.394531 50.847656 L 155.535156 47.964844 L 159.675781 50.847656 L 158.214844 46.019531 L 162.234375 42.972656 L 157.191406 42.867188 " />
      <path style=" stroke:none;fill-rule:nonzero;fill:rgb(38.426208%,66.601563%,87.5%);fill-opacity:1;" d="M 155.535156 20.132813 L 153.878906 24.898438 L 148.835938 25 L 152.855469 28.046875 L 151.394531 32.878906 L 155.535156 29.996094 L 159.675781 32.878906 L 158.214844 28.046875 L 162.234375 25 L 157.191406 24.898438 " />
      <path style=" stroke:none;fill-rule:nonzero;fill:rgb(38.426208%,66.601563%,87.5%);fill-opacity:1;" d="M 173.503906 109.988281 L 171.847656 114.753906 L 166.804688 114.855469 L 170.824219 117.90625 L 169.363281 122.734375 L 173.503906 119.851563 L 177.644531 122.734375 L 176.183594 117.90625 L 180.203125 114.855469 L 175.160156 114.753906 " />
      <path style=" stroke:none;fill-rule:nonzero;fill:rgb(38.426208%,66.601563%,87.5%);fill-opacity:1;" d="M 173.503906 92.019531 L 171.847656 96.78125 L 166.804688 96.886719 L 170.824219 99.933594 L 169.363281 104.761719 L 173.503906 101.878906 L 177.644531 104.761719 L 176.183594 99.933594 L 180.203125 96.886719 L 175.160156 96.78125 " />
      <path style=" stroke:none;fill-rule:nonzero;fill:rgb(38.426208%,66.601563%,87.5%);fill-opacity:1;" d="M 173.503906 74.046875 L 171.847656 78.8125 L 166.804688 78.914063 L 170.824219 81.960938 L 169.363281 86.789063 L 173.503906 83.910156 L 177.644531 86.789063 L 176.183594 81.960938 L 180.203125 78.914063 L 175.160156 78.8125 " />
      <path style=" stroke:none;fill-rule:nonzero;fill:rgb(38.426208%,66.601563%,87.5%);fill-opacity:1;" d="M 173.503906 56.074219 L 171.847656 60.839844 L 166.804688 60.941406 L 170.824219 63.992188 L 169.363281 68.820313 L 173.503906 65.9375 L 177.644531 68.820313 L 176.183594 63.992188 L 180.203125 60.941406 L 175.160156 60.839844 " />
      <path style=" stroke:none;fill-rule:nonzero;fill:rgb(38.426208%,66.601563%,87.5%);fill-opacity:1;" d="M 173.503906 38.105469 L 171.847656 42.867188 L 166.804688 42.972656 L 170.824219 46.019531 L 169.363281 50.847656 L 173.503906 47.964844 L 177.644531 50.847656 L 176.183594 46.019531 L 180.203125 42.972656 L 175.160156 42.867188 " />
      <path style=" stroke:none;fill-rule:nonzero;fill:rgb(38.426208%,66.601563%,87.5%);fill-opacity:1;" d="M 173.503906 20.132813 L 171.847656 24.898438 L 166.804688 25 L 170.824219 28.046875 L 169.363281 32.878906 L 173.503906 29.996094 L 177.644531 32.878906 L 176.183594 28.046875 L 180.203125 25 L 175.160156 24.898438 " />
      <path style=" stroke:none;fill-rule:nonzero;fill:rgb(38.426208%,66.601563%,87.5%);fill-opacity:1;" d="M 191.476563 109.988281 L 189.820313 114.753906 L 184.777344 114.855469 L 188.796875 117.90625 L 187.335938 122.734375 L 191.476563 119.851563 L 195.617188 122.734375 L 194.15625 117.90625 L 198.175781 114.855469 L 193.132813 114.753906 " />
      <path style=" stroke:none;fill-rule:nonzero;fill:rgb(38.426208%,66.601563%,87.5%);fill-opacity:1;" d="M 191.476563 92.019531 L 189.820313 96.78125 L 184.777344 96.886719 L 188.796875 99.933594 L 187.335938 104.761719 L 191.476563 101.878906 L 195.617188 104.761719 L 194.15625 99.933594 L 198.175781 96.886719 L 193.132813 96.78125 " />
      <path style=" stroke:none;fill-rule:nonzero;fill:rgb(38.426208%,66.601563%,87.5%);fill-opacity:1;" d="M 191.476563 74.046875 L 189.820313 78.8125 L 184.777344 78.914063 L 188.796875 81.960938 L 187.335938 86.789063 L 191.476563 83.910156 L 195.617188 86.789063 L 194.15625 81.960938 L 198.175781 78.914063 L 193.132813 78.8125 " />
      <path style=" stroke:none;fill-rule:nonzero;fill:rgb(38.426208%,66.601563%,87.5%);fill-opacity:1;" d="M 191.476563 56.074219 L 189.820313 60.839844 L 184.777344 60.941406 L 188.796875 63.992188 L 187.335938 68.820313 L 191.476563 65.9375 L 195.617188 68.820313 L 194.15625 63.992188 L 198.175781 60.941406 L 193.132813 60.839844 " />
      <path style=" stroke:none;fill-rule:nonzero;fill:rgb(38.426208%,66.601563%,87.5%);fill-opacity:1;" d="M 191.476563 38.105469 L 189.820313 42.867188 L 184.777344 42.972656 L 188.796875 46.019531 L 187.335938 50.847656 L 191.476563 47.964844 L 195.617188 50.847656 L 194.15625 46.019531 L 198.175781 42.972656 L 193.132813 42.867188 " />
      <path style=" stroke:none;fill-rule:nonzero;fill:rgb(38.426208%,66.601563%,87.5%);fill-opacity:1;" d="M 191.476563 20.132813 L 189.820313 24.898438 L 184.777344 25 L 188.796875 28.046875 L 187.335938 32.878906 L 191.476563 29.996094 L 195.617188 32.878906 L 194.15625 28.046875 L 198.175781 25 L 193.132813 24.898438 " />
      <path style=" stroke:none;fill-rule:nonzero;fill:rgb(38.426208%,66.601563%,87.5%);fill-opacity:1;" d="M 209.449219 109.988281 L 207.792969 114.753906 L 202.746094 114.855469 L 206.769531 117.90625 L 205.308594 122.734375 L 209.449219 119.851563 L 213.589844 122.734375 L 212.128906 117.90625 L 216.148438 114.855469 L 211.105469 114.753906 " />
      <path style=" stroke:none;fill-rule:nonzero;fill:rgb(38.426208%,66.601563%,87.5%);fill-opacity:1;" d="M 209.449219 92.019531 L 207.792969 96.78125 L 202.746094 96.886719 L 206.769531 99.933594 L 205.308594 104.761719 L 209.449219 101.878906 L 213.589844 104.761719 L 212.128906 99.933594 L 216.148438 96.886719 L 211.105469 96.78125 " />
      <path style=" stroke:none;fill-rule:nonzero;fill:rgb(38.426208%,66.601563%,87.5%);fill-opacity:1;" d="M 209.449219 74.046875 L 207.792969 78.8125 L 202.746094 78.914063 L 206.769531 81.960938 L 205.308594 86.789063 L 209.449219 83.910156 L 213.589844 86.789063 L 212.128906 81.960938 L 216.148438 78.914063 L 211.105469 78.8125 " />
      <path style=" stroke:none;fill-rule:nonzero;fill:rgb(38.426208%,66.601563%,87.5%);fill-opacity:1;" d="M 209.449219 56.074219 L 207.792969 60.839844 L 202.746094 60.941406 L 206.769531 63.992188 L 205.308594 68.820313 L 209.449219 65.9375 L 213.589844 68.820313 L 212.128906 63.992188 L 216.148438 60.941406 L 211.105469 60.839844 " />
      <path style=" stroke:none;fill-rule:nonzero;fill:rgb(38.426208%,66.601563%,87.5%);fill-opacity:1;" d="M 209.449219 38.105469 L 207.792969 42.867188 L 202.746094 42.972656 L 206.769531 46.019531 L 205.308594 50.847656 L 209.449219 47.964844 L 213.589844 50.847656 L 212.128906 46.019531 L 216.148438 42.972656 L 211.105469 42.867188 " />
      <path style=" stroke:none;fill-rule:nonzero;fill:rgb(38.426208%,66.601563%,87.5%);fill-opacity:1;" d="M 209.449219 20.132813 L 207.792969 24.898438 L 202.746094 25 L 206.769531 28.046875 L 205.308594 32.878906 L 209.449219 29.996094 L 213.589844 32.878906 L 212.128906 28.046875 L 216.148438 25 L 211.105469 24.898438 " />
      <path style=" stroke:none;fill-rule:nonzero;fill:rgb(38.426208%,66.601563%,87.5%);fill-opacity:1;" d="M 227.421875 109.988281 L 225.761719 114.753906 L 220.71875 114.855469 L 224.738281 117.90625 L 223.277344 122.734375 L 227.421875 119.851563 L 231.5625 122.734375 L 230.101563 117.90625 L 234.121094 114.855469 L 229.074219 114.753906 " />
      <path style=" stroke:none;fill-rule:nonzero;fill:rgb(38.426208%,66.601563%,87.5%);fill-opacity:1;" d="M 227.421875 92.019531 L 225.761719 96.78125 L 220.71875 96.886719 L 224.738281 99.933594 L 223.277344 104.761719 L 227.421875 101.878906 L 231.5625 104.761719 L 230.101563 99.933594 L 234.121094 96.886719 L 229.074219 96.78125 " />
      <path style=" stroke:none;fill-rule:nonzero;fill:rgb(38.426208%,66.601563%,87.5%);fill-opacity:1;" d="M 227.421875 74.046875 L 225.761719 78.8125 L 220.71875 78.914063 L 224.738281 81.960938 L 223.277344 86.789063 L 227.421875 83.910156 L 231.5625 86.789063 L 230.101563 81.960938 L 234.121094 78.914063 L 229.074219 78.8125 " />
      <path style=" stroke:none;fill-rule:nonzero;fill:rgb(38.426208%,66.601563%,87.5%);fill-opacity:1;" d="M 227.421875 56.074219 L 225.761719 60.839844 L 220.71875 60.941406 L 224.738281 63.992188 L 223.277344 68.820313 L 227.421875 65.9375 L 231.5625 68.820313 L 230.101563 63.992188 L 234.121094 60.941406 L 229.074219 60.839844 " />
      <path style=" stroke:none;fill-rule:nonzero;fill:rgb(38.426208%,66.601563%,87.5%);fill-opacity:1;" d="M 227.421875 38.105469 L 225.761719 42.867188 L 220.71875 42.972656 L 224.738281 46.019531 L 223.277344 50.847656 L 227.421875 47.964844 L 231.5625 50.847656 L 230.101563 46.019531 L 234.121094 42.972656 L 229.074219 42.867188 " />
      <path style=" stroke:none;fill-rule:nonzero;fill:rgb(38.426208%,66.601563%,87.5%);fill-opacity:1;" d="M 227.421875 20.132813 L 225.761719 24.898438 L 220.71875 25 L 224.738281 28.046875 L 223.277344 32.878906 L 227.421875 29.996094 L 231.5625 32.878906 L 230.101563 28.046875 L 234.121094 25 L 229.074219 24.898438 " />
      <path style=" stroke:none;fill-rule:nonzero;fill:rgb(38.426208%,66.601563%,87.5%);fill-opacity:1;" d="M 245.390625 109.988281 L 243.734375 114.753906 L 238.691406 114.855469 L 242.710938 117.90625 L 241.25 122.734375 L 245.390625 119.851563 L 249.53125 122.734375 L 248.070313 117.90625 L 252.089844 114.855469 L 247.046875 114.753906 " />
      <path style=" stroke:none;fill-rule:nonzero;fill:rgb(38.426208%,66.601563%,87.5%);fill-opacity:1;" d="M 245.390625 92.019531 L 243.734375 96.78125 L 238.691406 96.886719 L 242.710938 99.933594 L 241.25 104.761719 L 245.390625 101.878906 L 249.53125 104.761719 L 248.070313 99.933594 L 252.089844 96.886719 L 247.046875 96.78125 " />
      <path style=" stroke:none;fill-rule:nonzero;fill:rgb(38.426208%,66.601563%,87.5%);fill-opacity:1;" d="M 245.390625 74.046875 L 243.734375 78.8125 L 238.691406 78.914063 L 242.710938 81.960938 L 241.25 86.789063 L 245.390625 83.910156 L 249.53125 86.789063 L 248.070313 81.960938 L 252.089844 78.914063 L 247.046875 78.8125 " />
      <path style=" stroke:none;fill-rule:nonzero;fill:rgb(38.426208%,66.601563%,87.5%);fill-opacity:1;" d="M 245.390625 56.074219 L 243.734375 60.839844 L 238.691406 60.941406 L 242.710938 63.992188 L 241.25 68.820313 L 245.390625 65.9375 L 249.53125 68.820313 L 248.070313 63.992188 L 252.089844 60.941406 L 247.046875 60.839844 " />
      <path style=" stroke:none;fill-rule:nonzero;fill:rgb(38.426208%,66.601563%,87.5%);fill-opacity:1;" d="M 245.390625 38.105469 L 243.734375 42.867188 L 238.691406 42.972656 L 242.710938 46.019531 L 241.25 50.847656 L 245.390625 47.964844 L 249.53125 50.847656 L 248.070313 46.019531 L 252.089844 42.972656 L 247.046875 42.867188 " />
      <path style=" stroke:none;fill-rule:nonzero;fill:rgb(38.426208%,66.601563%,87.5%);fill-opacity:1;" d="M 245.390625 20.132813 L 243.734375 24.898438 L 238.691406 25 L 242.710938 28.046875 L 241.25 32.878906 L 245.390625 29.996094 L 249.53125 32.878906 L 248.070313 28.046875 L 252.089844 25 L 247.046875 24.898438 " />
    </g>
  </svg>