<svg class="displayed_equation" xmlns="http://www.w3.org/2000/svg" xmlns:xlink="http://www.w3.org/1999/xlink" width="299.29pt" height="131.81pt" viewBox="0 0 299.29 131.81" version="1.1">
    <g id="svg803162041543tikz_00005surface21">
      <path style="fill:none;stroke-width:7.9701;stroke-linecap:butt;stroke-linejoin:miter;stroke:rgb(0%,0%,0%);stroke-opacity:1;stroke-miterlimit:10;" d="M 128.984375 208.685937 L 128.984375 1109.467187 C 128.984375 1153.490625 164.648438 1189.154687 208.671875 1189.154687 L 2784.257813 1189.154687 C 2828.28125 1189.154687 2863.945313 1153.490625 2863.945313 1109.467187 L 2863.945313 208.685937 C 2863.945313 164.6625 2828.28125 128.998437 2784.257813 128.998437 L 208.671875 128.998437 C 164.648438 128.998437 128.984375 164.6625 128.984375 208.685937 Z M 128.984375 208.685937 " transform="matrix(0.1,0,0,-0.1,0,131.81)" />
      <path style=" stroke:none;fill-rule:nonzero;fill:rgb(38.426208%,66.601563%,87.5%);fill-opacity:1;" d="M 30.042969 95.96875 L 28.386719 100.730469 L 23.34375 100.835938 L 27.363281 103.882813 L 25.902344 108.710938 L 30.042969 105.828125 L 34.183594 108.710938 L 32.722656 103.882813 L 36.742188 100.835938 L 31.699219 100.730469 " />
      <path style=" stroke:none;fill-rule:nonzero;fill:rgb(38.426208%,66.601563%,87.5%);fill-opacity:1;" d="M 30.042969 77.527344 L 28.386719 82.292969 L 23.34375 82.398438 L 27.363281 85.445313 L 25.902344 90.273438 L 30.042969 87.390625 L 34.183594 90.273438 L 32.722656 85.445313 L 36.742188 82.398438 L 31.699219 82.292969 " />
      <path style=" stroke:none;fill-rule:nonzero;fill:rgb(38.426208%,66.601563%,87.5%);fill-opacity:1;" d="M 30.042969 59.089844 L 28.386719 63.855469 L 23.34375 63.957031 L 27.363281 67.007813 L 25.902344 71.835938 L 30.042969 68.953125 L 34.183594 71.835938 L 32.722656 67.007813 L 36.742188 63.957031 L 31.699219 63.855469 " />
      <path style=" stroke:none;fill-rule:nonzero;fill:rgb(38.426208%,66.601563%,87.5%);fill-opacity:1;" d="M 30.042969 40.652344 L 28.386719 45.417969 L 23.34375 45.519531 L 27.363281 48.566406 L 25.902344 53.398438 L 30.042969 50.515625 L 34.183594 53.398438 L 32.722656 48.566406 L 36.742188 45.519531 L 31.699219 45.417969 " />
      <path style=" stroke:none;fill-rule:nonzero;fill:rgb(38.426208%,66.601563%,87.5%);fill-opacity:1;" d="M 30.042969 22.214844 L 28.386719 26.980469 L 23.34375 27.082031 L 27.363281 30.128906 L 25.902344 34.957031 L 30.042969 32.078125 L 34.183594 34.957031 L 32.722656 30.128906 L 36.742188 27.082031 L 31.699219 26.980469 " />
      <path style=" stroke:none;fill-rule:nonzero;fill:rgb(38.426208%,66.601563%,87.5%);fill-opacity:1;" d="M 48.480469 95.96875 L 46.828125 100.730469 L 41.78125 100.835938 L 45.800781 103.882813 L 44.339844 108.710938 L 48.480469 105.828125 L 52.621094 108.710938 L 51.164063 103.882813 L 55.183594 100.835938 L 50.140625 100.730469 " />
      <path style=" stroke:none;fill-rule:nonzero;fill:rgb(38.426208%,66.601563%,87.5%);fill-opacity:1;" d="M 48.480469 77.527344 L 46.828125 82.292969 L 41.78125 82.398438 L 45.800781 85.445313 L 44.339844 90.273438 L 48.480469 87.390625 L 52.621094 90.273438 L 51.164063 85.445313 L 55.183594 82.398438 L 50.140625 82.292969 " />
      <path style=" stroke:none;fill-rule:nonzero;fill:rgb(38.426208%,66.601563%,87.5%);fill-opacity:1;" d="M 48.480469 59.089844 L 46.828125 63.855469 L 41.78125 63.957031 L 45.800781 67.007813 L 44.339844 71.835938 L 48.480469 68.953125 L 52.621094 71.835938 L 51.164063 67.007813 L 55.183594 63.957031 L 50.140625 63.855469 " />
      <path style=" stroke:none;fill-rule:nonzero;fill:rgb(38.426208%,66.601563%,87.5%);fill-opacity:1;" d="M 48.480469 40.652344 L 46.828125 45.417969 L 41.78125 45.519531 L 45.800781 48.566406 L 44.339844 53.398438 L 48.480469 50.515625 L 52.621094 53.398438 L 51.164063 48.566406 L 55.183594 45.519531 L 50.140625 45.417969 " />
      <path style=" stroke:none;fill-rule:nonzero;fill:rgb(38.426208%,66.601563%,87.5%);fill-opacity:1;" d="M 48.480469 22.214844 L 46.828125 26.980469 L 41.78125 27.082031 L 45.800781 30.128906 L 44.339844 34.957031 L 48.480469 32.078125 L 52.621094 34.957031 L 51.164063 30.128906 L 55.183594 27.082031 L 50.140625 26.980469 " />
      <path style=" stroke:none;fill-rule:nonzero;fill:rgb(38.426208%,66.601563%,87.5%);fill-opacity:1;" d="M 66.921875 95.96875 L 65.265625 100.730469 L 60.21875 100.835938 L 64.238281 103.882813 L 62.78125 108.710938 L 66.921875 105.828125 L 71.0625 108.710938 L 69.601563 103.882813 L 73.621094 100.835938 L 68.578125 100.730469 " />
      <path style=" stroke:none;fill-rule:nonzero;fill:rgb(38.426208%,66.601563%,87.5%);fill-opacity:1;" d="M 66.921875 77.527344 L 65.265625 82.292969 L 60.21875 82.398438 L 64.238281 85.445313 L 62.78125 90.273438 L 66.921875 87.390625 L 71.0625 90.273438 L 69.601563 85.445313 L 73.621094 82.398438 L 68.578125 82.292969 " />
      <path style=" stroke:none;fill-rule:nonzero;fill:rgb(38.426208%,66.601563%,87.5%);fill-opacity:1;" d="M 66.921875 59.089844 L 65.265625 63.855469 L 60.21875 63.957031 L 64.238281 67.007813 L 62.78125 71.835938 L 66.921875 68.953125 L 71.0625 71.835938 L 69.601563 67.007813 L 73.621094 63.957031 L 68.578125 63.855469 " />
      <path style=" stroke:none;fill-rule:nonzero;fill:rgb(38.426208%,66.601563%,87.5%);fill-opacity:1;" d="M 66.921875 40.652344 L 65.265625 45.417969 L 60.21875 45.519531 L 64.238281 48.566406 L 62.78125 53.398438 L 66.921875 50.515625 L 71.0625 53.398438 L 69.601563 48.566406 L 73.621094 45.519531 L 68.578125 45.417969 " />
      <path style=" stroke:none;fill-rule:nonzero;fill:rgb(38.426208%,66.601563%,87.5%);fill-opacity:1;" d="M 66.921875 22.214844 L 65.265625 26.980469 L 60.21875 27.082031 L 64.238281 30.128906 L 62.78125 34.957031 L 66.921875 32.078125 L 71.0625 34.957031 L 69.601563 30.128906 L 73.621094 27.082031 L 68.578125 26.980469 " />
      <path style=" stroke:none;fill-rule:nonzero;fill:rgb(38.426208%,66.601563%,87.5%);fill-opacity:1;" d="M 85.359375 95.96875 L 83.703125 100.730469 L 78.65625 100.835938 L 82.679688 103.882813 L 81.21875 108.710938 L 85.359375 105.828125 L 89.5 108.710938 L 88.039063 103.882813 L 92.058594 100.835938 L 87.015625 100.730469 " />
      <path style=" stroke:none;fill-rule:nonzero;fill:rgb(38.426208%,66.601563%,87.5%);fill-opacity:1;" d="M 85.359375 77.527344 L 83.703125 82.292969 L 78.65625 82.398438 L 82.679688 85.445313 L 81.21875 90.273438 L 85.359375 87.390625 L 89.5 90.273438 L 88.039063 85.445313 L 92.058594 82.398438 L 87.015625 82.292969 " />
      <path style=" stroke:none;fill-rule:nonzero;fill:rgb(38.426208%,66.601563%,87.5%);fill-opacity:1;" d="M 85.359375 59.089844 L 83.703125 63.855469 L 78.65625 63.957031 L 82.679688 67.007813 L 81.21875 71.835938 L 85.359375 68.953125 L 89.5 71.835938 L 88.039063 67.007813 L 92.058594 63.957031 L 87.015625 63.855469 " />
      <path style=" stroke:none;fill-rule:nonzero;fill:rgb(38.426208%,66.601563%,87.5%);fill-opacity:1;" d="M 85.359375 40.652344 L 83.703125 45.417969 L 78.65625 45.519531 L 82.679688 48.566406 L 81.21875 53.398438 L 85.359375 50.515625 L 89.5 53.398438 L 88.039063 48.566406 L 92.058594 45.519531 L 87.015625 45.417969 " />
      <path style=" stroke:none;fill-rule:nonzero;fill:rgb(38.426208%,66.601563%,87.5%);fill-opacity:1;" d="M 85.359375 22.214844 L 83.703125 26.980469 L 78.65625 27.082031 L 82.679688 30.128906 L 81.21875 34.957031 L 85.359375 32.078125 L 89.5 34.957031 L 88.039063 30.128906 L 92.058594 27.082031 L 87.015625 26.980469 " />
      <path style=" stroke:none;fill-rule:nonzero;fill:rgb(38.426208%,66.601563%,87.5%);fill-opacity:1;" d="M 103.796875 95.96875 L 102.140625 100.730469 L 97.097656 100.835938 L 101.117188 103.882813 L 99.65625 108.710938 L 103.796875 105.828125 L 107.9375 108.710938 L 106.476563 103.882813 L 110.496094 100.835938 L 105.453125 100.730469 " />
      <path style=" stroke:none;fill-rule:nonzero;fill:rgb(38.426208%,66.601563%,87.5%);fill-opacity:1;" d="M 103.796875 77.527344 L 102.140625 82.292969 L 97.097656 82.398438 L 101.117188 85.445313 L 99.65625 90.273438 L 103.796875 87.390625 L 107.9375 90.273438 L 106.476563 85.445313 L 110.496094 82.398438 L 105.453125 82.292969 " />
      <path style=" stroke:none;fill-rule:nonzero;fill:rgb(38.426208%,66.601563%,87.5%);fill-opacity:1;" d="M 103.796875 59.089844 L 102.140625 63.855469 L 97.097656 63.957031 L 101.117188 67.007813 L 99.65625 71.835938 L 103.796875 68.953125 L 107.9375 71.835938 L 106.476563 67.007813 L 110.496094 63.957031 L 105.453125 63.855469 " />
      <path style=" stroke:none;fill-rule:nonzero;fill:rgb(38.426208%,66.601563%,87.5%);fill-opacity:1;" d="M 103.796875 40.652344 L 102.140625 45.417969 L 97.097656 45.519531 L 101.117188 48.566406 L 99.65625 53.398438 L 103.796875 50.515625 L 107.9375 53.398438 L 106.476563 48.566406 L 110.496094 45.519531 L 105.453125 45.417969 " />
      <path style=" stroke:none;fill-rule:nonzero;fill:rgb(38.426208%,66.601563%,87.5%);fill-opacity:1;" d="M 103.796875 22.214844 L 102.140625 26.980469 L 97.097656 27.082031 L 101.117188 30.128906 L 99.65625 34.957031 L 103.796875 32.078125 L 107.9375 34.957031 L 106.476563 30.128906 L 110.496094 27.082031 L 105.453125 26.980469 " />
      <path style=" stroke:none;fill-rule:nonzero;fill:rgb(38.426208%,66.601563%,87.5%);fill-opacity:1;" d="M 122.234375 95.96875 L 120.578125 100.730469 L 115.535156 100.835938 L 119.554688 103.882813 L 118.09375 108.710938 L 122.234375 105.828125 L 126.375 108.710938 L 124.914063 103.882813 L 128.933594 100.835938 L 123.890625 100.730469 " />
      <path style=" stroke:none;fill-rule:nonzero;fill:rgb(38.426208%,66.601563%,87.5%);fill-opacity:1;" d="M 122.234375 77.527344 L 120.578125 82.292969 L 115.535156 82.398438 L 119.554688 85.445313 L 118.09375 90.273438 L 122.234375 87.390625 L 126.375 90.273438 L 124.914063 85.445313 L 128.933594 82.398438 L 123.890625 82.292969 " />
      <path style=" stroke:none;fill-rule:nonzero;fill:rgb(38.426208%,66.601563%,87.5%);fill-opacity:1;" d="M 122.234375 59.089844 L 120.578125 63.855469 L 115.535156 63.957031 L 119.554688 67.007813 L 118.09375 71.835938 L 122.234375 68.953125 L 126.375 71.835938 L 124.914063 67.007813 L 128.933594 63.957031 L 123.890625 63.855469 " />
      <path style=" stroke:none;fill-rule:nonzero;fill:rgb(38.426208%,66.601563%,87.5%);fill-opacity:1;" d="M 122.234375 40.652344 L 120.578125 45.417969 L 115.535156 45.519531 L 119.554688 48.566406 L 118.09375 53.398438 L 122.234375 50.515625 L 126.375 53.398438 L 124.914063 48.566406 L 128.933594 45.519531 L 123.890625 45.417969 " />
      <path style=" stroke:none;fill-rule:nonzero;fill:rgb(38.426208%,66.601563%,87.5%);fill-opacity:1;" d="M 122.234375 22.214844 L 120.578125 26.980469 L 115.535156 27.082031 L 119.554688 30.128906 L 118.09375 34.957031 L 122.234375 32.078125 L 126.375 34.957031 L 124.914063 30.128906 L 128.933594 27.082031 L 123.890625 26.980469 " />
      <path style=" stroke:none;fill-rule:nonzero;fill:rgb(38.426208%,66.601563%,87.5%);fill-opacity:1;" d="M 140.671875 95.96875 L 139.015625 100.730469 L 133.972656 100.835938 L 137.992188 103.882813 L 136.53125 108.710938 L 140.671875 105.828125 L 144.8125 108.710938 L 143.351563 103.882813 L 147.371094 100.835938 L 142.328125 100.730469 " />
      <path style=" stroke:none;fill-rule:nonzero;fill:rgb(38.426208%,66.601563%,87.5%);fill-opacity:1;" d="M 140.671875 77.527344 L 139.015625 82.292969 L 133.972656 82.398438 L 137.992188 85.445313 L 136.53125 90.273438 L 140.671875 87.390625 L 144.8125 90.273438 L 143.351563 85.445313 L 147.371094 82.398438 L 142.328125 82.292969 " />
      <path style=" stroke:none;fill-rule:nonzero;fill:rgb(38.426208%,66.601563%,87.5%);fill-opacity:1;" d="M 140.671875 59.089844 L 139.015625 63.855469 L 133.972656 63.957031 L 137.992188 67.007813 L 136.53125 71.835938 L 140.671875 68.953125 L 144.8125 71.835938 L 143.351563 67.007813 L 147.371094 63.957031 L 142.328125 63.855469 " />
      <path style=" stroke:none;fill-rule:nonzero;fill:rgb(38.426208%,66.601563%,87.5%);fill-opacity:1;" d="M 140.671875 40.652344 L 139.015625 45.417969 L 133.972656 45.519531 L 137.992188 48.566406 L 136.53125 53.398438 L 140.671875 50.515625 L 144.8125 53.398438 L 143.351563 48.566406 L 147.371094 45.519531 L 142.328125 45.417969 " />
      <path style=" stroke:none;fill-rule:nonzero;fill:rgb(38.426208%,66.601563%,87.5%);fill-opacity:1;" d="M 140.671875 22.214844 L 139.015625 26.980469 L 133.972656 27.082031 L 137.992188 30.128906 L 136.53125 34.957031 L 140.671875 32.078125 L 144.8125 34.957031 L 143.351563 30.128906 L 147.371094 27.082031 L 142.328125 26.980469 " />
      <path style=" stroke:none;fill-rule:nonzero;fill:rgb(38.426208%,66.601563%,87.5%);fill-opacity:1;" d="M 159.109375 95.96875 L 157.453125 100.730469 L 152.410156 100.835938 L 156.429688 103.882813 L 154.96875 108.710938 L 159.109375 105.828125 L 163.253906 108.710938 L 161.789063 103.882813 L 165.8125 100.835938 L 160.765625 100.730469 " />
      <path style=" stroke:none;fill-rule:nonzero;fill:rgb(38.426208%,66.601563%,87.5%);fill-opacity:1;" d="M 159.109375 77.527344 L 157.453125 82.292969 L 152.410156 82.398438 L 156.429688 85.445313 L 154.96875 90.273438 L 159.109375 87.390625 L 163.253906 90.273438 L 161.789063 85.445313 L 165.8125 82.398438 L 160.765625 82.292969 " />
      <path style=" stroke:none;fill-rule:nonzero;fill:rgb(38.426208%,66.601563%,87.5%);fill-opacity:1;" d="M 159.109375 59.089844 L 157.453125 63.855469 L 152.410156 63.957031 L 156.429688 67.007813 L 154.96875 71.835938 L 159.109375 68.953125 L 163.253906 71.835938 L 161.789063 67.007813 L 165.8125 63.957031 L 160.765625 63.855469 " />
      <path style=" stroke:none;fill-rule:nonzero;fill:rgb(38.426208%,66.601563%,87.5%);fill-opacity:1;" d="M 159.109375 40.652344 L 157.453125 45.417969 L 152.410156 45.519531 L 156.429688 48.566406 L 154.96875 53.398438 L 159.109375 50.515625 L 163.253906 53.398438 L 161.789063 48.566406 L 165.8125 45.519531 L 160.765625 45.417969 " />
      <path style=" stroke:none;fill-rule:nonzero;fill:rgb(38.426208%,66.601563%,87.5%);fill-opacity:1;" d="M 159.109375 22.214844 L 157.453125 26.980469 L 152.410156 27.082031 L 156.429688 30.128906 L 154.96875 34.957031 L 159.109375 32.078125 L 163.253906 34.957031 L 161.789063 30.128906 L 165.8125 27.082031 L 160.765625 26.980469 " />
      <path style=" stroke:none;fill-rule:nonzero;fill:rgb(38.426208%,66.601563%,87.5%);fill-opacity:1;" d="M 177.546875 95.96875 L 175.890625 100.730469 L 170.847656 100.835938 L 174.867188 103.882813 L 173.40625 108.710938 L 177.546875 105.828125 L 181.6875 108.710938 L 180.230469 103.882813 L 184.25 100.835938 L 179.203125 100.730469 " />
      <path style=" stroke:none;fill-rule:nonzero;fill:rgb(38.426208%,66.601563%,87.5%);fill-opacity:1;" d="M 177.546875 77.527344 L 175.890625 82.292969 L 170.847656 82.398438 L 174.867188 85.445313 L 173.40625 90.273438 L 177.546875 87.390625 L 181.6875 90.273438 L 180.230469 85.445313 L 184.25 82.398438 L 179.203125 82.292969 " />
      <path style=" stroke:none;fill-rule:nonzero;fill:rgb(38.426208%,66.601563%,87.5%);fill-opacity:1;" d="M 177.546875 59.089844 L 175.890625 63.855469 L 170.847656 63.957031 L 174.867188 67.007813 L 173.40625 71.835938 L 177.546875 68.953125 L 181.6875 71.835938 L 180.230469 67.007813 L 184.25 63.957031 L 179.203125 63.855469 " />
      <path style=" stroke:none;fill-rule:nonzero;fill:rgb(38.426208%,66.601563%,87.5%);fill-opacity:1;" d="M 177.546875 40.652344 L 175.890625 45.417969 L 170.847656 45.519531 L 174.867188 48.566406 L 173.40625 53.398438 L 177.546875 50.515625 L 181.6875 53.398438 L 180.230469 48.566406 L 184.25 45.519531 L 179.203125 45.417969 " />
      <path style=" stroke:none;fill-rule:nonzero;fill:rgb(38.426208%,66.601563%,87.5%);fill-opacity:1;" d="M 177.546875 22.214844 L 175.890625 26.980469 L 170.847656 27.082031 L 174.867188 30.128906 L 173.40625 34.957031 L 177.546875 32.078125 L 181.6875 34.957031 L 180.230469 30.128906 L 184.25 27.082031 L 179.203125 26.980469 " />
      <path style=" stroke:none;fill-rule:nonzero;fill:rgb(38.426208%,66.601563%,87.5%);fill-opacity:1;" d="M 195.988281 95.96875 L 194.328125 100.730469 L 189.285156 100.835938 L 193.308594 103.882813 L 191.847656 108.710938 L 195.988281 105.828125 L 200.128906 108.710938 L 198.667969 103.882813 L 202.6875 100.835938 L 197.644531 100.730469 " />
      <path style=" stroke:none;fill-rule:nonzero;fill:rgb(38.426208%,66.601563%,87.5%);fill-opacity:1;" d="M 195.988281 77.527344 L 194.328125 82.292969 L 189.285156 82.398438 L 193.308594 85.445313 L 191.847656 90.273438 L 195.988281 87.390625 L 200.128906 90.273438 L 198.667969 85.445313 L 202.6875 82.398438 L 197.644531 82.292969 " />
      <path style=" stroke:none;fill-rule:nonzero;fill:rgb(38.426208%,66.601563%,87.5%);fill-opacity:1;" d="M 195.988281 59.089844 L 194.328125 63.855469 L 189.285156 63.957031 L 193.308594 67.007813 L 191.847656 71.835938 L 195.988281 68.953125 L 200.128906 71.835938 L 198.667969 67.007813 L 202.6875 63.957031 L 197.644531 63.855469 " />
      <path style=" stroke:none;fill-rule:nonzero;fill:rgb(38.426208%,66.601563%,87.5%);fill-opacity:1;" d="M 195.988281 40.652344 L 194.328125 45.417969 L 189.285156 45.519531 L 193.308594 48.566406 L 191.847656 53.398438 L 195.988281 50.515625 L 200.128906 53.398438 L 198.667969 48.566406 L 202.6875 45.519531 L 197.644531 45.417969 " />
      <path style=" stroke:none;fill-rule:nonzero;fill:rgb(38.426208%,66.601563%,87.5%);fill-opacity:1;" d="M 195.988281 22.214844 L 194.328125 26.980469 L 189.285156 27.082031 L 193.308594 30.128906 L 191.847656 34.957031 L 195.988281 32.078125 L 200.128906 34.957031 L 198.667969 30.128906 L 202.6875 27.082031 L 197.644531 26.980469 " />
      <path style=" stroke:none;fill-rule:nonzero;fill:rgb(38.426208%,66.601563%,87.5%);fill-opacity:1;" d="M 214.425781 95.96875 L 212.769531 100.730469 L 207.726563 100.835938 L 211.746094 103.882813 L 210.285156 108.710938 L 214.425781 105.828125 L 218.566406 108.710938 L 217.105469 103.882813 L 221.125 100.835938 L 216.082031 100.730469 " />
      <path style=" stroke:none;fill-rule:nonzero;fill:rgb(38.426208%,66.601563%,87.5%);fill-opacity:1;" d="M 214.425781 77.527344 L 212.769531 82.292969 L 207.726563 82.398438 L 211.746094 85.445313 L 210.285156 90.273438 L 214.425781 87.390625 L 218.566406 90.273438 L 217.105469 85.445313 L 221.125 82.398438 L 216.082031 82.292969 " />
      <path style=" stroke:none;fill-rule:nonzero;fill:rgb(38.426208%,66.601563%,87.5%);fill-opacity:1;" d="M 214.425781 59.089844 L 212.769531 63.855469 L 207.726563 63.957031 L 211.746094 67.007813 L 210.285156 71.835938 L 214.425781 68.953125 L 218.566406 71.835938 L 217.105469 67.007813 L 221.125 63.957031 L 216.082031 63.855469 " />
      <path style=" stroke:none;fill-rule:nonzero;fill:rgb(38.426208%,66.601563%,87.5%);fill-opacity:1;" d="M 214.425781 40.652344 L 212.769531 45.417969 L 207.726563 45.519531 L 211.746094 48.566406 L 210.285156 53.398438 L 214.425781 50.515625 L 218.566406 53.398438 L 217.105469 48.566406 L 221.125 45.519531 L 216.082031 45.417969 " />
      <path style=" stroke:none;fill-rule:nonzero;fill:rgb(38.426208%,66.601563%,87.5%);fill-opacity:1;" d="M 214.425781 22.214844 L 212.769531 26.980469 L 207.726563 27.082031 L 211.746094 30.128906 L 210.285156 34.957031 L 214.425781 32.078125 L 218.566406 34.957031 L 217.105469 30.128906 L 221.125 27.082031 L 216.082031 26.980469 " />
      <path style=" stroke:none;fill-rule:nonzero;fill:rgb(38.426208%,66.601563%,87.5%);fill-opacity:1;" d="M 232.863281 95.96875 L 231.207031 100.730469 L 226.164063 100.835938 L 230.183594 103.882813 L 228.722656 108.710938 L 232.863281 105.828125 L 237.003906 108.710938 L 235.542969 103.882813 L 239.5625 100.835938 L 234.519531 100.730469 " />
      <path style=" stroke:none;fill-rule:nonzero;fill:rgb(38.426208%,66.601563%,87.5%);fill-opacity:1;" d="M 232.863281 77.527344 L 231.207031 82.292969 L 226.164063 82.398438 L 230.183594 85.445313 L 228.722656 90.273438 L 232.863281 87.390625 L 237.003906 90.273438 L 235.542969 85.445313 L 239.5625 82.398438 L 234.519531 82.292969 " />
      <path style=" stroke:none;fill-rule:nonzero;fill:rgb(38.426208%,66.601563%,87.5%);fill-opacity:1;" d="M 232.863281 59.089844 L 231.207031 63.855469 L 226.164063 63.957031 L 230.183594 67.007813 L 228.722656 71.835938 L 232.863281 68.953125 L 237.003906 71.835938 L 235.542969 67.007813 L 239.5625 63.957031 L 234.519531 63.855469 " />
      <path style=" stroke:none;fill-rule:nonzero;fill:rgb(38.426208%,66.601563%,87.5%);fill-opacity:1;" d="M 232.863281 40.652344 L 231.207031 45.417969 L 226.164063 45.519531 L 230.183594 48.566406 L 228.722656 53.398438 L 232.863281 50.515625 L 237.003906 53.398438 L 235.542969 48.566406 L 239.5625 45.519531 L 234.519531 45.417969 " />
      <path style=" stroke:none;fill-rule:nonzero;fill:rgb(38.426208%,66.601563%,87.5%);fill-opacity:1;" d="M 232.863281 22.214844 L 231.207031 26.980469 L 226.164063 27.082031 L 230.183594 30.128906 L 228.722656 34.957031 L 232.863281 32.078125 L 237.003906 34.957031 L 235.542969 30.128906 L 239.5625 27.082031 L 234.519531 26.980469 " />
      <path style=" stroke:none;fill-rule:nonzero;fill:rgb(38.426208%,66.601563%,87.5%);fill-opacity:1;" d="M 251.300781 95.96875 L 249.644531 100.730469 L 244.601563 100.835938 L 248.621094 103.882813 L 247.160156 108.710938 L 251.300781 105.828125 L 255.441406 108.710938 L 253.980469 103.882813 L 258 100.835938 L 252.957031 100.730469 " />
      <path style=" stroke:none;fill-rule:nonzero;fill:rgb(38.426208%,66.601563%,87.5%);fill-opacity:1;" d="M 251.300781 77.527344 L 249.644531 82.292969 L 244.601563 82.398438 L 248.621094 85.445313 L 247.160156 90.273438 L 251.300781 87.390625 L 255.441406 90.273438 L 253.980469 85.445313 L 258 82.398438 L 252.957031 82.292969 " />
      <path style=" stroke:none;fill-rule:nonzero;fill:rgb(38.426208%,66.601563%,87.5%);fill-opacity:1;" d="M 251.300781 59.089844 L 249.644531 63.855469 L 244.601563 63.957031 L 248.621094 67.007813 L 247.160156 71.835938 L 251.300781 68.953125 L 255.441406 71.835938 L 253.980469 67.007813 L 258 63.957031 L 252.957031 63.855469 " />
      <path style=" stroke:none;fill-rule:nonzero;fill:rgb(38.426208%,66.601563%,87.5%);fill-opacity:1;" d="M 251.300781 40.652344 L 249.644531 45.417969 L 244.601563 45.519531 L 248.621094 48.566406 L 247.160156 53.398438 L 251.300781 50.515625 L 255.441406 53.398438 L 253.980469 48.566406 L 258 45.519531 L 252.957031 45.417969 " />
      <path style=" stroke:none;fill-rule:nonzero;fill:rgb(38.426208%,66.601563%,87.5%);fill-opacity:1;" d="M 251.300781 22.214844 L 249.644531 26.980469 L 244.601563 27.082031 L 248.621094 30.128906 L 247.160156 34.957031 L 251.300781 32.078125 L 255.441406 34.957031 L 253.980469 30.128906 L 258 27.082031 L 252.957031 26.980469 " />
      <path style=" stroke:none;fill-rule:nonzero;fill:rgb(38.426208%,66.601563%,87.5%);fill-opacity:1;" d="M 269.738281 95.96875 L 268.082031 100.730469 L 263.039063 100.835938 L 267.058594 103.882813 L 265.597656 108.710938 L 269.738281 105.828125 L 273.878906 108.710938 L 272.417969 103.882813 L 276.4375 100.835938 L 271.394531 100.730469 " />
      <path style=" stroke:none;fill-rule:nonzero;fill:rgb(38.426208%,66.601563%,87.5%);fill-opacity:1;" d="M 269.738281 77.527344 L 268.082031 82.292969 L 263.039063 82.398438 L 267.058594 85.445313 L 265.597656 90.273438 L 269.738281 87.390625 L 273.878906 90.273438 L 272.417969 85.445313 L 276.4375 82.398438 L 271.394531 82.292969 " />
      <path style=" stroke:none;fill-rule:nonzero;fill:rgb(38.426208%,66.601563%,87.5%);fill-opacity:1;" d="M 269.738281 59.089844 L 268.082031 63.855469 L 263.039063 63.957031 L 267.058594 67.007813 L 265.597656 71.835938 L 269.738281 68.953125 L 273.878906 71.835938 L 272.417969 67.007813 L 276.4375 63.957031 L 271.394531 63.855469 " />
      <path style=" stroke:none;fill-rule:nonzero;fill:rgb(38.426208%,66.601563%,87.5%);fill-opacity:1;" d="M 269.738281 40.652344 L 268.082031 45.417969 L 263.039063 45.519531 L 267.058594 48.566406 L 265.597656 53.398438 L 269.738281 50.515625 L 273.878906 53.398438 L 272.417969 48.566406 L 276.4375 45.519531 L 271.394531 45.417969 " />
      <path style=" stroke:none;fill-rule:nonzero;fill:rgb(38.426208%,66.601563%,87.5%);fill-opacity:1;" d="M 269.738281 22.214844 L 268.082031 26.980469 L 263.039063 27.082031 L 267.058594 30.128906 L 265.597656 34.957031 L 269.738281 32.078125 L 273.878906 34.957031 L 272.417969 30.128906 L 276.4375 27.082031 L 271.394531 26.980469 " />
    </g>
  </svg>