<svg class="displayed_equation" xmlns="http://www.w3.org/2000/svg" xmlns:xlink="http://www.w3.org/1999/xlink" width="274.4pt" height="129.13pt" viewBox="0 0 274.4 129.13" version="1.1">
    <g id="svg803162041543tikz_00002surface6">
      <path style="fill:none;stroke-width:7.9701;stroke-linecap:butt;stroke-linejoin:miter;stroke:rgb(0%,0%,0%);stroke-opacity:1;stroke-miterlimit:10;" d="M 128.984375 208.682812 L 128.984375 1082.628125 C 128.984375 1126.651563 164.6875 1162.354688 208.671875 1162.354688 L 2535.3125 1162.354688 C 2579.335938 1162.354688 2615.039063 1126.651563 2615.039063 1082.628125 L 2615.039063 208.682812 C 2615.039063 164.659375 2579.335938 128.995312 2535.3125 128.995312 L 208.671875 128.995312 C 164.6875 128.995312 128.984375 164.659375 128.984375 208.682812 Z M 128.984375 208.682812 " transform="matrix(0.1,0,0,-0.1,0,129.13)" />
      <path style=" stroke:none;fill-rule:nonzero;fill:rgb(38.426208%,66.601563%,87.5%);fill-opacity:1;" d="M 29.734375 93.519531 L 28.078125 98.285156 L 23.035156 98.386719 L 27.054688 101.433594 L 25.59375 106.261719 L 29.734375 103.382813 L 33.875 106.261719 L 32.414063 101.433594 L 36.433594 98.386719 L 31.390625 98.285156 " />
      <path style=" stroke:none;fill-rule:nonzero;fill:rgb(38.426208%,66.601563%,87.5%);fill-opacity:1;" d="M 29.734375 75.546875 L 28.078125 80.3125 L 23.035156 80.414063 L 27.054688 83.464844 L 25.59375 88.292969 L 29.734375 85.410156 L 33.875 88.292969 L 32.414063 83.464844 L 36.433594 80.414063 L 31.390625 80.3125 " />
      <path style=" stroke:none;fill-rule:nonzero;fill:rgb(38.426208%,66.601563%,87.5%);fill-opacity:1;" d="M 29.734375 57.578125 L 28.078125 62.339844 L 23.035156 62.445313 L 27.054688 65.492188 L 25.59375 70.320313 L 29.734375 67.4375 L 33.875 70.320313 L 32.414063 65.492188 L 36.433594 62.445313 L 31.390625 62.339844 " />
      <path style=" stroke:none;fill-rule:nonzero;fill:rgb(38.426208%,66.601563%,87.5%);fill-opacity:1;" d="M 29.734375 39.605469 L 28.078125 44.371094 L 23.035156 44.472656 L 27.054688 47.519531 L 25.59375 52.347656 L 29.734375 49.46875 L 33.875 52.347656 L 32.414063 47.519531 L 36.433594 44.472656 L 31.390625 44.371094 " />
      <path style=" stroke:none;fill-rule:nonzero;fill:rgb(38.426208%,66.601563%,87.5%);fill-opacity:1;" d="M 29.734375 21.632813 L 28.078125 26.398438 L 23.035156 26.5 L 27.054688 29.550781 L 25.59375 34.378906 L 29.734375 31.496094 L 33.875 34.378906 L 32.414063 29.550781 L 36.433594 26.5 L 31.390625 26.398438 " />
      <path style=" stroke:none;fill-rule:nonzero;fill:rgb(38.426208%,66.601563%,87.5%);fill-opacity:1;" d="M 47.707031 93.519531 L 46.050781 98.285156 L 41.003906 98.386719 L 45.027344 101.433594 L 43.566406 106.261719 L 47.707031 103.382813 L 51.847656 106.261719 L 50.386719 101.433594 L 54.40625 98.386719 L 49.363281 98.285156 " />
      <path style=" stroke:none;fill-rule:nonzero;fill:rgb(38.426208%,66.601563%,87.5%);fill-opacity:1;" d="M 47.707031 75.546875 L 46.050781 80.3125 L 41.003906 80.414063 L 45.027344 83.464844 L 43.566406 88.292969 L 47.707031 85.410156 L 51.847656 88.292969 L 50.386719 83.464844 L 54.40625 80.414063 L 49.363281 80.3125 " />
      <path style=" stroke:none;fill-rule:nonzero;fill:rgb(38.426208%,66.601563%,87.5%);fill-opacity:1;" d="M 47.707031 57.578125 L 46.050781 62.339844 L 41.003906 62.445313 L 45.027344 65.492188 L 43.566406 70.320313 L 47.707031 67.4375 L 51.847656 70.320313 L 50.386719 65.492188 L 54.40625 62.445313 L 49.363281 62.339844 " />
      <path style=" stroke:none;fill-rule:nonzero;fill:rgb(38.426208%,66.601563%,87.5%);fill-opacity:1;" d="M 47.707031 39.605469 L 46.050781 44.371094 L 41.003906 44.472656 L 45.027344 47.519531 L 43.566406 52.347656 L 47.707031 49.46875 L 51.847656 52.347656 L 50.386719 47.519531 L 54.40625 44.472656 L 49.363281 44.371094 " />
      <path style=" stroke:none;fill-rule:nonzero;fill:rgb(38.426208%,66.601563%,87.5%);fill-opacity:1;" d="M 47.707031 21.632813 L 46.050781 26.398438 L 41.003906 26.5 L 45.027344 29.550781 L 43.566406 34.378906 L 47.707031 31.496094 L 51.847656 34.378906 L 50.386719 29.550781 L 54.40625 26.5 L 49.363281 26.398438 " />
      <path style=" stroke:none;fill-rule:nonzero;fill:rgb(38.426208%,66.601563%,87.5%);fill-opacity:1;" d="M 65.675781 93.519531 L 64.019531 98.285156 L 58.976563 98.386719 L 62.996094 101.433594 L 61.535156 106.261719 L 65.675781 103.382813 L 69.816406 106.261719 L 68.355469 101.433594 L 72.378906 98.386719 L 67.332031 98.285156 " />
      <path style=" stroke:none;fill-rule:nonzero;fill:rgb(38.426208%,66.601563%,87.5%);fill-opacity:1;" d="M 65.675781 75.546875 L 64.019531 80.3125 L 58.976563 80.414063 L 62.996094 83.464844 L 61.535156 88.292969 L 65.675781 85.410156 L 69.816406 88.292969 L 68.355469 83.464844 L 72.378906 80.414063 L 67.332031 80.3125 " />
      <path style=" stroke:none;fill-rule:nonzero;fill:rgb(38.426208%,66.601563%,87.5%);fill-opacity:1;" d="M 65.675781 57.578125 L 64.019531 62.339844 L 58.976563 62.445313 L 62.996094 65.492188 L 61.535156 70.320313 L 65.675781 67.4375 L 69.816406 70.320313 L 68.355469 65.492188 L 72.378906 62.445313 L 67.332031 62.339844 " />
      <path style=" stroke:none;fill-rule:nonzero;fill:rgb(38.426208%,66.601563%,87.5%);fill-opacity:1;" d="M 65.675781 39.605469 L 64.019531 44.371094 L 58.976563 44.472656 L 62.996094 47.519531 L 61.535156 52.347656 L 65.675781 49.46875 L 69.816406 52.347656 L 68.355469 47.519531 L 72.378906 44.472656 L 67.332031 44.371094 " />
      <path style=" stroke:none;fill-rule:nonzero;fill:rgb(38.426208%,66.601563%,87.5%);fill-opacity:1;" d="M 65.675781 21.632813 L 64.019531 26.398438 L 58.976563 26.5 L 62.996094 29.550781 L 61.535156 34.378906 L 65.675781 31.496094 L 69.816406 34.378906 L 68.355469 29.550781 L 72.378906 26.5 L 67.332031 26.398438 " />
      <path style=" stroke:none;fill-rule:nonzero;fill:rgb(38.426208%,66.601563%,87.5%);fill-opacity:1;" d="M 83.648438 93.519531 L 81.992188 98.285156 L 76.949219 98.386719 L 80.96875 101.433594 L 79.507813 106.261719 L 83.648438 103.382813 L 87.789063 106.261719 L 86.328125 101.433594 L 90.347656 98.386719 L 85.304688 98.285156 " />
      <path style=" stroke:none;fill-rule:nonzero;fill:rgb(38.426208%,66.601563%,87.5%);fill-opacity:1;" d="M 83.648438 75.546875 L 81.992188 80.3125 L 76.949219 80.414063 L 80.96875 83.464844 L 79.507813 88.292969 L 83.648438 85.410156 L 87.789063 88.292969 L 86.328125 83.464844 L 90.347656 80.414063 L 85.304688 80.3125 " />
      <path style=" stroke:none;fill-rule:nonzero;fill:rgb(38.426208%,66.601563%,87.5%);fill-opacity:1;" d="M 83.648438 57.578125 L 81.992188 62.339844 L 76.949219 62.445313 L 80.96875 65.492188 L 79.507813 70.320313 L 83.648438 67.4375 L 87.789063 70.320313 L 86.328125 65.492188 L 90.347656 62.445313 L 85.304688 62.339844 " />
      <path style=" stroke:none;fill-rule:nonzero;fill:rgb(38.426208%,66.601563%,87.5%);fill-opacity:1;" d="M 83.648438 39.605469 L 81.992188 44.371094 L 76.949219 44.472656 L 80.96875 47.519531 L 79.507813 52.347656 L 83.648438 49.46875 L 87.789063 52.347656 L 86.328125 47.519531 L 90.347656 44.472656 L 85.304688 44.371094 " />
      <path style=" stroke:none;fill-rule:nonzero;fill:rgb(38.426208%,66.601563%,87.5%);fill-opacity:1;" d="M 83.648438 21.632813 L 81.992188 26.398438 L 76.949219 26.5 L 80.96875 29.550781 L 79.507813 34.378906 L 83.648438 31.496094 L 87.789063 34.378906 L 86.328125 29.550781 L 90.347656 26.5 L 85.304688 26.398438 " />
      <path style=" stroke:none;fill-rule:nonzero;fill:rgb(38.426208%,66.601563%,87.5%);fill-opacity:1;" d="M 101.621094 93.519531 L 99.964844 98.285156 L 94.917969 98.386719 L 98.941406 101.433594 L 97.480469 106.261719 L 101.621094 103.382813 L 105.761719 106.261719 L 104.300781 101.433594 L 108.320313 98.386719 L 103.277344 98.285156 " />
      <path style=" stroke:none;fill-rule:nonzero;fill:rgb(38.426208%,66.601563%,87.5%);fill-opacity:1;" d="M 101.621094 75.546875 L 99.964844 80.3125 L 94.917969 80.414063 L 98.941406 83.464844 L 97.480469 88.292969 L 101.621094 85.410156 L 105.761719 88.292969 L 104.300781 83.464844 L 108.320313 80.414063 L 103.277344 80.3125 " />
      <path style=" stroke:none;fill-rule:nonzero;fill:rgb(38.426208%,66.601563%,87.5%);fill-opacity:1;" d="M 101.621094 57.578125 L 99.964844 62.339844 L 94.917969 62.445313 L 98.941406 65.492188 L 97.480469 70.320313 L 101.621094 67.4375 L 105.761719 70.320313 L 104.300781 65.492188 L 108.320313 62.445313 L 103.277344 62.339844 " />
      <path style=" stroke:none;fill-rule:nonzero;fill:rgb(38.426208%,66.601563%,87.5%);fill-opacity:1;" d="M 101.621094 39.605469 L 99.964844 44.371094 L 94.917969 44.472656 L 98.941406 47.519531 L 97.480469 52.347656 L 101.621094 49.46875 L 105.761719 52.347656 L 104.300781 47.519531 L 108.320313 44.472656 L 103.277344 44.371094 " />
      <path style=" stroke:none;fill-rule:nonzero;fill:rgb(38.426208%,66.601563%,87.5%);fill-opacity:1;" d="M 101.621094 21.632813 L 99.964844 26.398438 L 94.917969 26.5 L 98.941406 29.550781 L 97.480469 34.378906 L 101.621094 31.496094 L 105.761719 34.378906 L 104.300781 29.550781 L 108.320313 26.5 L 103.277344 26.398438 " />
      <path style=" stroke:none;fill-rule:nonzero;fill:rgb(38.426208%,66.601563%,87.5%);fill-opacity:1;" d="M 119.589844 93.519531 L 117.933594 98.285156 L 112.890625 98.386719 L 116.910156 101.433594 L 115.449219 106.261719 L 119.589844 103.382813 L 123.730469 106.261719 L 122.269531 101.433594 L 126.289063 98.386719 L 121.246094 98.285156 " />
      <path style=" stroke:none;fill-rule:nonzero;fill:rgb(38.426208%,66.601563%,87.5%);fill-opacity:1;" d="M 119.589844 75.546875 L 117.933594 80.3125 L 112.890625 80.414063 L 116.910156 83.464844 L 115.449219 88.292969 L 119.589844 85.410156 L 123.730469 88.292969 L 122.269531 83.464844 L 126.289063 80.414063 L 121.246094 80.3125 " />
      <path style=" stroke:none;fill-rule:nonzero;fill:rgb(38.426208%,66.601563%,87.5%);fill-opacity:1;" d="M 119.589844 57.578125 L 117.933594 62.339844 L 112.890625 62.445313 L 116.910156 65.492188 L 115.449219 70.320313 L 119.589844 67.4375 L 123.730469 70.320313 L 122.269531 65.492188 L 126.289063 62.445313 L 121.246094 62.339844 " />
      <path style=" stroke:none;fill-rule:nonzero;fill:rgb(38.426208%,66.601563%,87.5%);fill-opacity:1;" d="M 119.589844 39.605469 L 117.933594 44.371094 L 112.890625 44.472656 L 116.910156 47.519531 L 115.449219 52.347656 L 119.589844 49.46875 L 123.730469 52.347656 L 122.269531 47.519531 L 126.289063 44.472656 L 121.246094 44.371094 " />
      <path style=" stroke:none;fill-rule:nonzero;fill:rgb(38.426208%,66.601563%,87.5%);fill-opacity:1;" d="M 119.589844 21.632813 L 117.933594 26.398438 L 112.890625 26.5 L 116.910156 29.550781 L 115.449219 34.378906 L 119.589844 31.496094 L 123.730469 34.378906 L 122.269531 29.550781 L 126.289063 26.5 L 121.246094 26.398438 " />
      <path style=" stroke:none;fill-rule:nonzero;fill:rgb(38.426208%,66.601563%,87.5%);fill-opacity:1;" d="M 137.5625 93.519531 L 135.90625 98.285156 L 130.863281 98.386719 L 134.882813 101.433594 L 133.421875 106.261719 L 137.5625 103.382813 L 141.703125 106.261719 L 140.242188 101.433594 L 144.261719 98.386719 L 139.21875 98.285156 " />
      <path style=" stroke:none;fill-rule:nonzero;fill:rgb(38.426208%,66.601563%,87.5%);fill-opacity:1;" d="M 137.5625 75.546875 L 135.90625 80.3125 L 130.863281 80.414063 L 134.882813 83.464844 L 133.421875 88.292969 L 137.5625 85.410156 L 141.703125 88.292969 L 140.242188 83.464844 L 144.261719 80.414063 L 139.21875 80.3125 " />
      <path style=" stroke:none;fill-rule:nonzero;fill:rgb(38.426208%,66.601563%,87.5%);fill-opacity:1;" d="M 137.5625 57.578125 L 135.90625 62.339844 L 130.863281 62.445313 L 134.882813 65.492188 L 133.421875 70.320313 L 137.5625 67.4375 L 141.703125 70.320313 L 140.242188 65.492188 L 144.261719 62.445313 L 139.21875 62.339844 " />
      <path style=" stroke:none;fill-rule:nonzero;fill:rgb(38.426208%,66.601563%,87.5%);fill-opacity:1;" d="M 137.5625 39.605469 L 135.90625 44.371094 L 130.863281 44.472656 L 134.882813 47.519531 L 133.421875 52.347656 L 137.5625 49.46875 L 141.703125 52.347656 L 140.242188 47.519531 L 144.261719 44.472656 L 139.21875 44.371094 " />
      <path style=" stroke:none;fill-rule:nonzero;fill:rgb(38.426208%,66.601563%,87.5%);fill-opacity:1;" d="M 137.5625 21.632813 L 135.90625 26.398438 L 130.863281 26.5 L 134.882813 29.550781 L 133.421875 34.378906 L 137.5625 31.496094 L 141.703125 34.378906 L 140.242188 29.550781 L 144.261719 26.5 L 139.21875 26.398438 " />
      <path style=" stroke:none;fill-rule:nonzero;fill:rgb(38.426208%,66.601563%,87.5%);fill-opacity:1;" d="M 155.535156 93.519531 L 153.878906 98.285156 L 148.835938 98.386719 L 152.855469 101.433594 L 151.394531 106.261719 L 155.535156 103.382813 L 159.675781 106.261719 L 158.214844 101.433594 L 162.234375 98.386719 L 157.191406 98.285156 " />
      <path style=" stroke:none;fill-rule:nonzero;fill:rgb(38.426208%,66.601563%,87.5%);fill-opacity:1;" d="M 155.535156 75.546875 L 153.878906 80.3125 L 148.835938 80.414063 L 152.855469 83.464844 L 151.394531 88.292969 L 155.535156 85.410156 L 159.675781 88.292969 L 158.214844 83.464844 L 162.234375 80.414063 L 157.191406 80.3125 " />
      <path style=" stroke:none;fill-rule:nonzero;fill:rgb(38.426208%,66.601563%,87.5%);fill-opacity:1;" d="M 155.535156 57.578125 L 153.878906 62.339844 L 148.835938 62.445313 L 152.855469 65.492188 L 151.394531 70.320313 L 155.535156 67.4375 L 159.675781 70.320313 L 158.214844 65.492188 L 162.234375 62.445313 L 157.191406 62.339844 " />
      <path style=" stroke:none;fill-rule:nonzero;fill:rgb(38.426208%,66.601563%,87.5%);fill-opacity:1;" d="M 155.535156 39.605469 L 153.878906 44.371094 L 148.835938 44.472656 L 152.855469 47.519531 L 151.394531 52.347656 L 155.535156 49.46875 L 159.675781 52.347656 L 158.214844 47.519531 L 162.234375 44.472656 L 157.191406 44.371094 " />
      <path style=" stroke:none;fill-rule:nonzero;fill:rgb(38.426208%,66.601563%,87.5%);fill-opacity:1;" d="M 155.535156 21.632813 L 153.878906 26.398438 L 148.835938 26.5 L 152.855469 29.550781 L 151.394531 34.378906 L 155.535156 31.496094 L 159.675781 34.378906 L 158.214844 29.550781 L 162.234375 26.5 L 157.191406 26.398438 " />
      <path style=" stroke:none;fill-rule:nonzero;fill:rgb(38.426208%,66.601563%,87.5%);fill-opacity:1;" d="M 173.503906 93.519531 L 171.847656 98.285156 L 166.804688 98.386719 L 170.824219 101.433594 L 169.363281 106.261719 L 173.503906 103.382813 L 177.644531 106.261719 L 176.183594 101.433594 L 180.203125 98.386719 L 175.160156 98.285156 " />
      <path style=" stroke:none;fill-rule:nonzero;fill:rgb(38.426208%,66.601563%,87.5%);fill-opacity:1;" d="M 173.503906 75.546875 L 171.847656 80.3125 L 166.804688 80.414063 L 170.824219 83.464844 L 169.363281 88.292969 L 173.503906 85.410156 L 177.644531 88.292969 L 176.183594 83.464844 L 180.203125 80.414063 L 175.160156 80.3125 " />
      <path style=" stroke:none;fill-rule:nonzero;fill:rgb(38.426208%,66.601563%,87.5%);fill-opacity:1;" d="M 173.503906 57.578125 L 171.847656 62.339844 L 166.804688 62.445313 L 170.824219 65.492188 L 169.363281 70.320313 L 173.503906 67.4375 L 177.644531 70.320313 L 176.183594 65.492188 L 180.203125 62.445313 L 175.160156 62.339844 " />
      <path style=" stroke:none;fill-rule:nonzero;fill:rgb(38.426208%,66.601563%,87.5%);fill-opacity:1;" d="M 173.503906 39.605469 L 171.847656 44.371094 L 166.804688 44.472656 L 170.824219 47.519531 L 169.363281 52.347656 L 173.503906 49.46875 L 177.644531 52.347656 L 176.183594 47.519531 L 180.203125 44.472656 L 175.160156 44.371094 " />
      <path style=" stroke:none;fill-rule:nonzero;fill:rgb(38.426208%,66.601563%,87.5%);fill-opacity:1;" d="M 173.503906 21.632813 L 171.847656 26.398438 L 166.804688 26.5 L 170.824219 29.550781 L 169.363281 34.378906 L 173.503906 31.496094 L 177.644531 34.378906 L 176.183594 29.550781 L 180.203125 26.5 L 175.160156 26.398438 " />
      <path style=" stroke:none;fill-rule:nonzero;fill:rgb(38.426208%,66.601563%,87.5%);fill-opacity:1;" d="M 191.476563 93.519531 L 189.820313 98.285156 L 184.777344 98.386719 L 188.796875 101.433594 L 187.335938 106.261719 L 191.476563 103.382813 L 195.617188 106.261719 L 194.15625 101.433594 L 198.175781 98.386719 L 193.132813 98.285156 " />
      <path style=" stroke:none;fill-rule:nonzero;fill:rgb(38.426208%,66.601563%,87.5%);fill-opacity:1;" d="M 191.476563 75.546875 L 189.820313 80.3125 L 184.777344 80.414063 L 188.796875 83.464844 L 187.335938 88.292969 L 191.476563 85.410156 L 195.617188 88.292969 L 194.15625 83.464844 L 198.175781 80.414063 L 193.132813 80.3125 " />
      <path style=" stroke:none;fill-rule:nonzero;fill:rgb(38.426208%,66.601563%,87.5%);fill-opacity:1;" d="M 191.476563 57.578125 L 189.820313 62.339844 L 184.777344 62.445313 L 188.796875 65.492188 L 187.335938 70.320313 L 191.476563 67.4375 L 195.617188 70.320313 L 194.15625 65.492188 L 198.175781 62.445313 L 193.132813 62.339844 " />
      <path style=" stroke:none;fill-rule:nonzero;fill:rgb(38.426208%,66.601563%,87.5%);fill-opacity:1;" d="M 191.476563 39.605469 L 189.820313 44.371094 L 184.777344 44.472656 L 188.796875 47.519531 L 187.335938 52.347656 L 191.476563 49.46875 L 195.617188 52.347656 L 194.15625 47.519531 L 198.175781 44.472656 L 193.132813 44.371094 " />
      <path style=" stroke:none;fill-rule:nonzero;fill:rgb(38.426208%,66.601563%,87.5%);fill-opacity:1;" d="M 191.476563 21.632813 L 189.820313 26.398438 L 184.777344 26.5 L 188.796875 29.550781 L 187.335938 34.378906 L 191.476563 31.496094 L 195.617188 34.378906 L 194.15625 29.550781 L 198.175781 26.5 L 193.132813 26.398438 " />
      <path style=" stroke:none;fill-rule:nonzero;fill:rgb(38.426208%,66.601563%,87.5%);fill-opacity:1;" d="M 209.449219 93.519531 L 207.792969 98.285156 L 202.746094 98.386719 L 206.769531 101.433594 L 205.308594 106.261719 L 209.449219 103.382813 L 213.589844 106.261719 L 212.128906 101.433594 L 216.148438 98.386719 L 211.105469 98.285156 " />
      <path style=" stroke:none;fill-rule:nonzero;fill:rgb(38.426208%,66.601563%,87.5%);fill-opacity:1;" d="M 209.449219 75.546875 L 207.792969 80.3125 L 202.746094 80.414063 L 206.769531 83.464844 L 205.308594 88.292969 L 209.449219 85.410156 L 213.589844 88.292969 L 212.128906 83.464844 L 216.148438 80.414063 L 211.105469 80.3125 " />
      <path style=" stroke:none;fill-rule:nonzero;fill:rgb(38.426208%,66.601563%,87.5%);fill-opacity:1;" d="M 209.449219 57.578125 L 207.792969 62.339844 L 202.746094 62.445313 L 206.769531 65.492188 L 205.308594 70.320313 L 209.449219 67.4375 L 213.589844 70.320313 L 212.128906 65.492188 L 216.148438 62.445313 L 211.105469 62.339844 " />
      <path style=" stroke:none;fill-rule:nonzero;fill:rgb(38.426208%,66.601563%,87.5%);fill-opacity:1;" d="M 209.449219 39.605469 L 207.792969 44.371094 L 202.746094 44.472656 L 206.769531 47.519531 L 205.308594 52.347656 L 209.449219 49.46875 L 213.589844 52.347656 L 212.128906 47.519531 L 216.148438 44.472656 L 211.105469 44.371094 " />
      <path style=" stroke:none;fill-rule:nonzero;fill:rgb(38.426208%,66.601563%,87.5%);fill-opacity:1;" d="M 209.449219 21.632813 L 207.792969 26.398438 L 202.746094 26.5 L 206.769531 29.550781 L 205.308594 34.378906 L 209.449219 31.496094 L 213.589844 34.378906 L 212.128906 29.550781 L 216.148438 26.5 L 211.105469 26.398438 " />
      <path style=" stroke:none;fill-rule:nonzero;fill:rgb(38.426208%,66.601563%,87.5%);fill-opacity:1;" d="M 227.421875 93.519531 L 225.761719 98.285156 L 220.71875 98.386719 L 224.738281 101.433594 L 223.277344 106.261719 L 227.421875 103.382813 L 231.5625 106.261719 L 230.101563 101.433594 L 234.121094 98.386719 L 229.074219 98.285156 " />
      <path style=" stroke:none;fill-rule:nonzero;fill:rgb(38.426208%,66.601563%,87.5%);fill-opacity:1;" d="M 227.421875 75.546875 L 225.761719 80.3125 L 220.71875 80.414063 L 224.738281 83.464844 L 223.277344 88.292969 L 227.421875 85.410156 L 231.5625 88.292969 L 230.101563 83.464844 L 234.121094 80.414063 L 229.074219 80.3125 " />
      <path style=" stroke:none;fill-rule:nonzero;fill:rgb(38.426208%,66.601563%,87.5%);fill-opacity:1;" d="M 227.421875 57.578125 L 225.761719 62.339844 L 220.71875 62.445313 L 224.738281 65.492188 L 223.277344 70.320313 L 227.421875 67.4375 L 231.5625 70.320313 L 230.101563 65.492188 L 234.121094 62.445313 L 229.074219 62.339844 " />
      <path style=" stroke:none;fill-rule:nonzero;fill:rgb(38.426208%,66.601563%,87.5%);fill-opacity:1;" d="M 227.421875 39.605469 L 225.761719 44.371094 L 220.71875 44.472656 L 224.738281 47.519531 L 223.277344 52.347656 L 227.421875 49.46875 L 231.5625 52.347656 L 230.101563 47.519531 L 234.121094 44.472656 L 229.074219 44.371094 " />
      <path style=" stroke:none;fill-rule:nonzero;fill:rgb(38.426208%,66.601563%,87.5%);fill-opacity:1;" d="M 227.421875 21.632813 L 225.761719 26.398438 L 220.71875 26.5 L 224.738281 29.550781 L 223.277344 34.378906 L 227.421875 31.496094 L 231.5625 34.378906 L 230.101563 29.550781 L 234.121094 26.5 L 229.074219 26.398438 " />
      <path style=" stroke:none;fill-rule:nonzero;fill:rgb(38.426208%,66.601563%,87.5%);fill-opacity:1;" d="M 245.390625 93.519531 L 243.734375 98.285156 L 238.691406 98.386719 L 242.710938 101.433594 L 241.25 106.261719 L 245.390625 103.382813 L 249.53125 106.261719 L 248.070313 101.433594 L 252.089844 98.386719 L 247.046875 98.285156 " />
      <path style=" stroke:none;fill-rule:nonzero;fill:rgb(38.426208%,66.601563%,87.5%);fill-opacity:1;" d="M 245.390625 75.546875 L 243.734375 80.3125 L 238.691406 80.414063 L 242.710938 83.464844 L 241.25 88.292969 L 245.390625 85.410156 L 249.53125 88.292969 L 248.070313 83.464844 L 252.089844 80.414063 L 247.046875 80.3125 " />
      <path style=" stroke:none;fill-rule:nonzero;fill:rgb(38.426208%,66.601563%,87.5%);fill-opacity:1;" d="M 245.390625 57.578125 L 243.734375 62.339844 L 238.691406 62.445313 L 242.710938 65.492188 L 241.25 70.320313 L 245.390625 67.4375 L 249.53125 70.320313 L 248.070313 65.492188 L 252.089844 62.445313 L 247.046875 62.339844 " />
      <path style=" stroke:none;fill-rule:nonzero;fill:rgb(38.426208%,66.601563%,87.5%);fill-opacity:1;" d="M 245.390625 39.605469 L 243.734375 44.371094 L 238.691406 44.472656 L 242.710938 47.519531 L 241.25 52.347656 L 245.390625 49.46875 L 249.53125 52.347656 L 248.070313 47.519531 L 252.089844 44.472656 L 247.046875 44.371094 " />
      <path style=" stroke:none;fill-rule:nonzero;fill:rgb(38.426208%,66.601563%,87.5%);fill-opacity:1;" d="M 245.390625 21.632813 L 243.734375 26.398438 L 238.691406 26.5 L 242.710938 29.550781 L 241.25 34.378906 L 245.390625 31.496094 L 249.53125 34.378906 L 248.070313 29.550781 L 252.089844 26.5 L 247.046875 26.398438 " />
    </g>
  </svg>