<svg class="displayed_equation" xmlns="http://www.w3.org/2000/svg" xmlns:xlink="http://www.w3.org/1999/xlink" width="224.14pt" height="81.22pt" viewBox="0 0 224.14 81.22" version="1.1">
    <g id="svg290125870203tikz_00001surface1">
      <path style="fill-rule:nonzero;fill:rgb(0%,59.959412%,0%);fill-opacity:1;stroke-width:7.9701;stroke-linecap:butt;stroke-linejoin:miter;stroke:rgb(0%,0%,0%);stroke-opacity:1;stroke-miterlimit:10;" d="M 128.984375 128.996875 L 274.84375 128.996875 L 274.84375 274.817188 L 128.984375 274.817188 Z M 128.984375 128.996875 " transform="matrix(0.1,0,0,-0.1,0,81.22)" />
      <path style="fill-rule:nonzero;fill:rgb(0%,59.959412%,0%);fill-opacity:1;stroke-width:7.9701;stroke-linecap:butt;stroke-linejoin:miter;stroke:rgb(0%,0%,0%);stroke-opacity:1;stroke-miterlimit:10;" d="M 128.984375 333.176563 L 274.84375 333.176563 L 274.84375 478.996875 L 128.984375 478.996875 Z M 128.984375 333.176563 " transform="matrix(0.1,0,0,-0.1,0,81.22)" />
      <path style="fill-rule:nonzero;fill:rgb(0%,59.959412%,0%);fill-opacity:1;stroke-width:7.9701;stroke-linecap:butt;stroke-linejoin:miter;stroke:rgb(0%,0%,0%);stroke-opacity:1;stroke-miterlimit:10;" d="M 128.984375 537.35625 L 274.84375 537.35625 L 274.84375 683.176563 L 128.984375 683.176563 Z M 128.984375 537.35625 " transform="matrix(0.1,0,0,-0.1,0,81.22)" />
      <path style="fill-rule:nonzero;fill:rgb(0%,59.959412%,0%);fill-opacity:1;stroke-width:7.9701;stroke-linecap:butt;stroke-linejoin:miter;stroke:rgb(0%,0%,0%);stroke-opacity:1;stroke-miterlimit:10;" d="M 333.164063 128.996875 L 479.023438 128.996875 L 479.023438 274.817188 L 333.164063 274.817188 Z M 333.164063 128.996875 " transform="matrix(0.1,0,0,-0.1,0,81.22)" />
      <path style="fill-rule:nonzero;fill:rgb(0%,59.959412%,0%);fill-opacity:1;stroke-width:7.9701;stroke-linecap:butt;stroke-linejoin:miter;stroke:rgb(0%,0%,0%);stroke-opacity:1;stroke-miterlimit:10;" d="M 333.164063 333.176563 L 479.023438 333.176563 L 479.023438 478.996875 L 333.164063 478.996875 Z M 333.164063 333.176563 " transform="matrix(0.1,0,0,-0.1,0,81.22)" />
      <path style="fill-rule:nonzero;fill:rgb(0%,59.959412%,0%);fill-opacity:1;stroke-width:7.9701;stroke-linecap:butt;stroke-linejoin:miter;stroke:rgb(0%,0%,0%);stroke-opacity:1;stroke-miterlimit:10;" d="M 333.164063 537.35625 L 479.023438 537.35625 L 479.023438 683.176563 L 333.164063 683.176563 Z M 333.164063 537.35625 " transform="matrix(0.1,0,0,-0.1,0,81.22)" />
      <path style="fill-rule:nonzero;fill:rgb(0%,59.959412%,0%);fill-opacity:1;stroke-width:7.9701;stroke-linecap:butt;stroke-linejoin:miter;stroke:rgb(0%,0%,0%);stroke-opacity:1;stroke-miterlimit:10;" d="M 537.34375 128.996875 L 683.203125 128.996875 L 683.203125 274.817188 L 537.34375 274.817188 Z M 537.34375 128.996875 " transform="matrix(0.1,0,0,-0.1,0,81.22)" />
      <path style="fill-rule:nonzero;fill:rgb(0%,59.959412%,0%);fill-opacity:1;stroke-width:7.9701;stroke-linecap:butt;stroke-linejoin:miter;stroke:rgb(0%,0%,0%);stroke-opacity:1;stroke-miterlimit:10;" d="M 537.34375 333.176563 L 683.203125 333.176563 L 683.203125 478.996875 L 537.34375 478.996875 Z M 537.34375 333.176563 " transform="matrix(0.1,0,0,-0.1,0,81.22)" />
      <path style="fill-rule:nonzero;fill:rgb(0%,59.959412%,0%);fill-opacity:1;stroke-width:7.9701;stroke-linecap:butt;stroke-linejoin:miter;stroke:rgb(0%,0%,0%);stroke-opacity:1;stroke-miterlimit:10;" d="M 537.34375 537.35625 L 683.203125 537.35625 L 683.203125 683.176563 L 537.34375 683.176563 Z M 537.34375 537.35625 " transform="matrix(0.1,0,0,-0.1,0,81.22)" />
      <path style="fill-rule:nonzero;fill:rgb(0%,59.959412%,0%);fill-opacity:1;stroke-width:7.9701;stroke-linecap:butt;stroke-linejoin:miter;stroke:rgb(0%,0%,0%);stroke-opacity:1;stroke-miterlimit:10;" d="M 741.523438 128.996875 L 887.34375 128.996875 L 887.34375 274.817188 L 741.523438 274.817188 Z M 741.523438 128.996875 " transform="matrix(0.1,0,0,-0.1,0,81.22)" />
      <path style="fill-rule:nonzero;fill:rgb(0%,59.959412%,0%);fill-opacity:1;stroke-width:7.9701;stroke-linecap:butt;stroke-linejoin:miter;stroke:rgb(0%,0%,0%);stroke-opacity:1;stroke-miterlimit:10;" d="M 741.523438 333.176563 L 887.34375 333.176563 L 887.34375 478.996875 L 741.523438 478.996875 Z M 741.523438 333.176563 " transform="matrix(0.1,0,0,-0.1,0,81.22)" />
      <path style="fill-rule:nonzero;fill:rgb(0%,59.959412%,0%);fill-opacity:1;stroke-width:7.9701;stroke-linecap:butt;stroke-linejoin:miter;stroke:rgb(0%,0%,0%);stroke-opacity:1;stroke-miterlimit:10;" d="M 741.523438 537.35625 L 887.34375 537.35625 L 887.34375 683.176563 L 741.523438 683.176563 Z M 741.523438 537.35625 " transform="matrix(0.1,0,0,-0.1,0,81.22)" />
      <path style="fill-rule:nonzero;fill:rgb(0%,59.959412%,0%);fill-opacity:1;stroke-width:7.9701;stroke-linecap:butt;stroke-linejoin:miter;stroke:rgb(0%,0%,0%);stroke-opacity:1;stroke-miterlimit:10;" d="M 945.703125 128.996875 L 1091.523438 128.996875 L 1091.523438 274.817188 L 945.703125 274.817188 Z M 945.703125 128.996875 " transform="matrix(0.1,0,0,-0.1,0,81.22)" />
      <path style="fill-rule:nonzero;fill:rgb(0%,59.959412%,0%);fill-opacity:1;stroke-width:7.9701;stroke-linecap:butt;stroke-linejoin:miter;stroke:rgb(0%,0%,0%);stroke-opacity:1;stroke-miterlimit:10;" d="M 945.703125 333.176563 L 1091.523438 333.176563 L 1091.523438 478.996875 L 945.703125 478.996875 Z M 945.703125 333.176563 " transform="matrix(0.1,0,0,-0.1,0,81.22)" />
      <path style="fill-rule:nonzero;fill:rgb(0%,59.959412%,0%);fill-opacity:1;stroke-width:7.9701;stroke-linecap:butt;stroke-linejoin:miter;stroke:rgb(0%,0%,0%);stroke-opacity:1;stroke-miterlimit:10;" d="M 945.703125 537.35625 L 1091.523438 537.35625 L 1091.523438 683.176563 L 945.703125 683.176563 Z M 945.703125 537.35625 " transform="matrix(0.1,0,0,-0.1,0,81.22)" />
      <path style="fill-rule:nonzero;fill:rgb(0%,59.959412%,0%);fill-opacity:1;stroke-width:7.9701;stroke-linecap:butt;stroke-linejoin:miter;stroke:rgb(0%,0%,0%);stroke-opacity:1;stroke-miterlimit:10;" d="M 1149.882813 128.996875 L 1295.703125 128.996875 L 1295.703125 274.817188 L 1149.882813 274.817188 Z M 1149.882813 128.996875 " transform="matrix(0.1,0,0,-0.1,0,81.22)" />
      <path style="fill-rule:nonzero;fill:rgb(0%,59.959412%,0%);fill-opacity:1;stroke-width:7.9701;stroke-linecap:butt;stroke-linejoin:miter;stroke:rgb(0%,0%,0%);stroke-opacity:1;stroke-miterlimit:10;" d="M 1149.882813 333.176563 L 1295.703125 333.176563 L 1295.703125 478.996875 L 1149.882813 478.996875 Z M 1149.882813 333.176563 " transform="matrix(0.1,0,0,-0.1,0,81.22)" />
      <path style="fill-rule:nonzero;fill:rgb(0%,59.959412%,0%);fill-opacity:1;stroke-width:7.9701;stroke-linecap:butt;stroke-linejoin:miter;stroke:rgb(0%,0%,0%);stroke-opacity:1;stroke-miterlimit:10;" d="M 1149.882813 537.35625 L 1295.703125 537.35625 L 1295.703125 683.176563 L 1149.882813 683.176563 Z M 1149.882813 537.35625 " transform="matrix(0.1,0,0,-0.1,0,81.22)" />
      <path style="fill-rule:nonzero;fill:rgb(0%,59.959412%,0%);fill-opacity:1;stroke-width:7.9701;stroke-linecap:butt;stroke-linejoin:miter;stroke:rgb(0%,0%,0%);stroke-opacity:1;stroke-miterlimit:10;" d="M 1354.0625 128.996875 L 1499.882813 128.996875 L 1499.882813 274.817188 L 1354.0625 274.817188 Z M 1354.0625 128.996875 " transform="matrix(0.1,0,0,-0.1,0,81.22)" />
      <path style="fill-rule:nonzero;fill:rgb(0%,59.959412%,0%);fill-opacity:1;stroke-width:7.9701;stroke-linecap:butt;stroke-linejoin:miter;stroke:rgb(0%,0%,0%);stroke-opacity:1;stroke-miterlimit:10;" d="M 1354.0625 333.176563 L 1499.882813 333.176563 L 1499.882813 478.996875 L 1354.0625 478.996875 Z M 1354.0625 333.176563 " transform="matrix(0.1,0,0,-0.1,0,81.22)" />
      <path style="fill-rule:nonzero;fill:rgb(0%,59.959412%,0%);fill-opacity:1;stroke-width:7.9701;stroke-linecap:butt;stroke-linejoin:miter;stroke:rgb(0%,0%,0%);stroke-opacity:1;stroke-miterlimit:10;" d="M 1354.0625 537.35625 L 1499.882813 537.35625 L 1499.882813 683.176563 L 1354.0625 683.176563 Z M 1354.0625 537.35625 " transform="matrix(0.1,0,0,-0.1,0,81.22)" />
      <path style="fill-rule:nonzero;fill:rgb(0%,59.959412%,0%);fill-opacity:1;stroke-width:7.9701;stroke-linecap:butt;stroke-linejoin:miter;stroke:rgb(0%,0%,0%);stroke-opacity:1;stroke-miterlimit:10;" d="M 1558.242188 128.996875 L 1704.0625 128.996875 L 1704.0625 274.817188 L 1558.242188 274.817188 Z M 1558.242188 128.996875 " transform="matrix(0.1,0,0,-0.1,0,81.22)" />
      <path style="fill-rule:nonzero;fill:rgb(0%,59.959412%,0%);fill-opacity:1;stroke-width:7.9701;stroke-linecap:butt;stroke-linejoin:miter;stroke:rgb(0%,0%,0%);stroke-opacity:1;stroke-miterlimit:10;" d="M 1558.242188 333.176563 L 1704.0625 333.176563 L 1704.0625 478.996875 L 1558.242188 478.996875 Z M 1558.242188 333.176563 " transform="matrix(0.1,0,0,-0.1,0,81.22)" />
      <path style="fill-rule:nonzero;fill:rgb(0%,59.959412%,0%);fill-opacity:1;stroke-width:7.9701;stroke-linecap:butt;stroke-linejoin:miter;stroke:rgb(0%,0%,0%);stroke-opacity:1;stroke-miterlimit:10;" d="M 1558.242188 537.35625 L 1704.0625 537.35625 L 1704.0625 683.176563 L 1558.242188 683.176563 Z M 1558.242188 537.35625 " transform="matrix(0.1,0,0,-0.1,0,81.22)" />
      <path style="fill-rule:nonzero;fill:rgb(0%,59.959412%,0%);fill-opacity:1;stroke-width:7.9701;stroke-linecap:butt;stroke-linejoin:miter;stroke:rgb(0%,0%,0%);stroke-opacity:1;stroke-miterlimit:10;" d="M 1762.382813 128.996875 L 1908.242188 128.996875 L 1908.242188 274.817188 L 1762.382813 274.817188 Z M 1762.382813 128.996875 " transform="matrix(0.1,0,0,-0.1,0,81.22)" />
      <path style="fill-rule:nonzero;fill:rgb(0%,59.959412%,0%);fill-opacity:1;stroke-width:7.9701;stroke-linecap:butt;stroke-linejoin:miter;stroke:rgb(0%,0%,0%);stroke-opacity:1;stroke-miterlimit:10;" d="M 1762.382813 333.176563 L 1908.242188 333.176563 L 1908.242188 478.996875 L 1762.382813 478.996875 Z M 1762.382813 333.176563 " transform="matrix(0.1,0,0,-0.1,0,81.22)" />
      <path style="fill-rule:nonzero;fill:rgb(0%,59.959412%,0%);fill-opacity:1;stroke-width:7.9701;stroke-linecap:butt;stroke-linejoin:miter;stroke:rgb(0%,0%,0%);stroke-opacity:1;stroke-miterlimit:10;" d="M 1762.382813 537.35625 L 1908.242188 537.35625 L 1908.242188 683.176563 L 1762.382813 683.176563 Z M 1762.382813 537.35625 " transform="matrix(0.1,0,0,-0.1,0,81.22)" />
      <path style="fill-rule:nonzero;fill:rgb(0%,59.959412%,0%);fill-opacity:1;stroke-width:7.9701;stroke-linecap:butt;stroke-linejoin:miter;stroke:rgb(0%,0%,0%);stroke-opacity:1;stroke-miterlimit:10;" d="M 1966.5625 128.996875 L 2112.421875 128.996875 L 2112.421875 274.817188 L 1966.5625 274.817188 Z M 1966.5625 128.996875 " transform="matrix(0.1,0,0,-0.1,0,81.22)" />
      <path style="fill-rule:nonzero;fill:rgb(0%,59.959412%,0%);fill-opacity:1;stroke-width:7.9701;stroke-linecap:butt;stroke-linejoin:miter;stroke:rgb(0%,0%,0%);stroke-opacity:1;stroke-miterlimit:10;" d="M 1966.5625 333.176563 L 2112.421875 333.176563 L 2112.421875 478.996875 L 1966.5625 478.996875 Z M 1966.5625 333.176563 " transform="matrix(0.1,0,0,-0.1,0,81.22)" />
      <path style="fill-rule:nonzero;fill:rgb(0%,59.959412%,0%);fill-opacity:1;stroke-width:7.9701;stroke-linecap:butt;stroke-linejoin:miter;stroke:rgb(0%,0%,0%);stroke-opacity:1;stroke-miterlimit:10;" d="M 1966.5625 537.35625 L 2112.421875 537.35625 L 2112.421875 683.176563 L 1966.5625 683.176563 Z M 1966.5625 537.35625 " transform="matrix(0.1,0,0,-0.1,0,81.22)" />
    </g>
  </svg>