<svg class="displayed_equation" xmlns="http://www.w3.org/2000/svg" xmlns:xlink="http://www.w3.org/1999/xlink" width="223.67pt" height="140.03pt" viewBox="0 0 223.67 140.03" version="1.1">
    <g id="svg105159097034tikz_00001surface1">
      <path style="fill-rule:nonzero;fill:rgb(97.65625%,62.304688%,20.384216%);fill-opacity:1;stroke-width:7.9701;stroke-linecap:butt;stroke-linejoin:miter;stroke:rgb(0%,0%,0%);stroke-opacity:1;stroke-miterlimit:10;" d="M 1517.304688 216.8625 C 1517.304688 255.690625 1485.820313 287.135937 1446.992188 287.135937 C 1408.164063 287.135937 1376.71875 255.690625 1376.71875 216.8625 C 1376.71875 178.034375 1408.164063 146.55 1446.992188 146.55 C 1485.820313 146.55 1517.304688 178.034375 1517.304688 216.8625 Z M 1517.304688 216.8625 " transform="matrix(0.1,0,0,-0.1,0,140.03)" />
      <path style="fill-rule:nonzero;fill:rgb(0%,0%,0%);fill-opacity:1;stroke-width:7.9701;stroke-linecap:butt;stroke-linejoin:miter;stroke:rgb(0%,0%,0%);stroke-opacity:1;stroke-miterlimit:10;" d="M 1425.898438 234.440625 C 1425.898438 238.307812 1422.734375 241.471875 1418.867188 241.471875 C 1415 241.471875 1411.835938 238.307812 1411.835938 234.440625 C 1411.835938 230.534375 1415 227.409375 1418.867188 227.409375 C 1422.734375 227.409375 1425.898438 230.534375 1425.898438 234.440625 Z M 1425.898438 234.440625 " transform="matrix(0.1,0,0,-0.1,0,140.03)" />
      <path style="fill-rule:nonzero;fill:rgb(0%,0%,0%);fill-opacity:1;stroke-width:7.9701;stroke-linecap:butt;stroke-linejoin:miter;stroke:rgb(0%,0%,0%);stroke-opacity:1;stroke-miterlimit:10;" d="M 1482.148438 234.440625 C 1482.148438 238.307812 1478.984375 241.471875 1475.117188 241.471875 C 1471.210938 241.471875 1468.085938 238.307812 1468.085938 234.440625 C 1468.085938 230.534375 1471.210938 227.409375 1475.117188 227.409375 C 1478.984375 227.409375 1482.148438 230.534375 1482.148438 234.440625 Z M 1482.148438 234.440625 " transform="matrix(0.1,0,0,-0.1,0,140.03)" />
      <path style="fill:none;stroke-width:7.9701;stroke-linecap:butt;stroke-linejoin:miter;stroke:rgb(0%,0%,0%);stroke-opacity:1;stroke-miterlimit:10;" d="M 1411.835938 190.495312 C 1431.210938 171.120312 1462.734375 171.120312 1482.148438 190.495312 " transform="matrix(0.1,0,0,-0.1,0,140.03)" />
      <path style="fill-rule:nonzero;fill:rgb(97.65625%,62.304688%,20.384216%);fill-opacity:1;stroke-width:7.9701;stroke-linecap:butt;stroke-linejoin:miter;stroke:rgb(0%,0%,0%);stroke-opacity:1;stroke-miterlimit:10;" d="M 1517.304688 413.698437 C 1517.304688 452.4875 1485.820313 483.971875 1446.992188 483.971875 C 1408.164063 483.971875 1376.71875 452.4875 1376.71875 413.698437 C 1376.71875 374.870312 1408.164063 343.385937 1446.992188 343.385937 C 1485.820313 343.385937 1517.304688 374.870312 1517.304688 413.698437 Z M 1517.304688 413.698437 " transform="matrix(0.1,0,0,-0.1,0,140.03)" />
      <path style="fill-rule:nonzero;fill:rgb(0%,0%,0%);fill-opacity:1;stroke-width:7.9701;stroke-linecap:butt;stroke-linejoin:miter;stroke:rgb(0%,0%,0%);stroke-opacity:1;stroke-miterlimit:10;" d="M 1425.898438 431.2375 C 1425.898438 435.14375 1422.734375 438.26875 1418.867188 438.26875 C 1415 438.26875 1411.835938 435.14375 1411.835938 431.2375 C 1411.835938 427.370312 1415 424.20625 1418.867188 424.20625 C 1422.734375 424.20625 1425.898438 427.370312 1425.898438 431.2375 Z M 1425.898438 431.2375 " transform="matrix(0.1,0,0,-0.1,0,140.03)" />
      <path style="fill-rule:nonzero;fill:rgb(0%,0%,0%);fill-opacity:1;stroke-width:7.9701;stroke-linecap:butt;stroke-linejoin:miter;stroke:rgb(0%,0%,0%);stroke-opacity:1;stroke-miterlimit:10;" d="M 1482.148438 431.2375 C 1482.148438 435.14375 1478.984375 438.26875 1475.117188 438.26875 C 1471.210938 438.26875 1468.085938 435.14375 1468.085938 431.2375 C 1468.085938 427.370312 1471.210938 424.20625 1475.117188 424.20625 C 1478.984375 424.20625 1482.148438 427.370312 1482.148438 431.2375 Z M 1482.148438 431.2375 " transform="matrix(0.1,0,0,-0.1,0,140.03)" />
      <path style="fill:none;stroke-width:7.9701;stroke-linecap:butt;stroke-linejoin:miter;stroke:rgb(0%,0%,0%);stroke-opacity:1;stroke-miterlimit:10;" d="M 1411.835938 387.33125 C 1431.210938 367.917187 1462.734375 367.917187 1482.148438 387.33125 " transform="matrix(0.1,0,0,-0.1,0,140.03)" />
      <path style="fill-rule:nonzero;fill:rgb(97.65625%,62.304688%,20.384216%);fill-opacity:1;stroke-width:7.9701;stroke-linecap:butt;stroke-linejoin:miter;stroke:rgb(0%,0%,0%);stroke-opacity:1;stroke-miterlimit:10;" d="M 1517.304688 610.495312 C 1517.304688 649.323437 1485.820313 680.807812 1446.992188 680.807812 C 1408.164063 680.807812 1376.71875 649.323437 1376.71875 610.495312 C 1376.71875 571.667187 1408.164063 540.221875 1446.992188 540.221875 C 1485.820313 540.221875 1517.304688 571.667187 1517.304688 610.495312 Z M 1517.304688 610.495312 " transform="matrix(0.1,0,0,-0.1,0,140.03)" />
      <path style="fill-rule:nonzero;fill:rgb(0%,0%,0%);fill-opacity:1;stroke-width:7.9701;stroke-linecap:butt;stroke-linejoin:miter;stroke:rgb(0%,0%,0%);stroke-opacity:1;stroke-miterlimit:10;" d="M 1425.898438 628.073437 C 1425.898438 631.979687 1422.734375 635.104687 1418.867188 635.104687 C 1415 635.104687 1411.835938 631.979687 1411.835938 628.073437 C 1411.835938 624.20625 1415 621.042187 1418.867188 621.042187 C 1422.734375 621.042187 1425.898438 624.20625 1425.898438 628.073437 Z M 1425.898438 628.073437 " transform="matrix(0.1,0,0,-0.1,0,140.03)" />
      <path style="fill-rule:nonzero;fill:rgb(0%,0%,0%);fill-opacity:1;stroke-width:7.9701;stroke-linecap:butt;stroke-linejoin:miter;stroke:rgb(0%,0%,0%);stroke-opacity:1;stroke-miterlimit:10;" d="M 1482.148438 628.073437 C 1482.148438 631.979687 1478.984375 635.104687 1475.117188 635.104687 C 1471.210938 635.104687 1468.085938 631.979687 1468.085938 628.073437 C 1468.085938 624.20625 1471.210938 621.042187 1475.117188 621.042187 C 1478.984375 621.042187 1482.148438 624.20625 1482.148438 628.073437 Z M 1482.148438 628.073437 " transform="matrix(0.1,0,0,-0.1,0,140.03)" />
      <path style="fill:none;stroke-width:7.9701;stroke-linecap:butt;stroke-linejoin:miter;stroke:rgb(0%,0%,0%);stroke-opacity:1;stroke-miterlimit:10;" d="M 1411.835938 584.167187 C 1431.210938 564.753125 1462.734375 564.753125 1482.148438 584.167187 " transform="matrix(0.1,0,0,-0.1,0,140.03)" />
      <path style="fill-rule:nonzero;fill:rgb(97.65625%,62.304688%,20.384216%);fill-opacity:1;stroke-width:7.9701;stroke-linecap:butt;stroke-linejoin:miter;stroke:rgb(0%,0%,0%);stroke-opacity:1;stroke-miterlimit:10;" d="M 1517.304688 807.33125 C 1517.304688 846.159375 1485.820313 877.64375 1446.992188 877.64375 C 1408.164063 877.64375 1376.71875 846.159375 1376.71875 807.33125 C 1376.71875 768.503125 1408.164063 737.057812 1446.992188 737.057812 C 1485.820313 737.057812 1517.304688 768.503125 1517.304688 807.33125 Z M 1517.304688 807.33125 " transform="matrix(0.1,0,0,-0.1,0,140.03)" />
      <path style="fill-rule:nonzero;fill:rgb(0%,0%,0%);fill-opacity:1;stroke-width:7.9701;stroke-linecap:butt;stroke-linejoin:miter;stroke:rgb(0%,0%,0%);stroke-opacity:1;stroke-miterlimit:10;" d="M 1425.898438 824.909375 C 1425.898438 828.776562 1422.734375 831.940625 1418.867188 831.940625 C 1415 831.940625 1411.835938 828.776562 1411.835938 824.909375 C 1411.835938 821.042187 1415 817.878125 1418.867188 817.878125 C 1422.734375 817.878125 1425.898438 821.042187 1425.898438 824.909375 Z M 1425.898438 824.909375 " transform="matrix(0.1,0,0,-0.1,0,140.03)" />
      <path style="fill-rule:nonzero;fill:rgb(0%,0%,0%);fill-opacity:1;stroke-width:7.9701;stroke-linecap:butt;stroke-linejoin:miter;stroke:rgb(0%,0%,0%);stroke-opacity:1;stroke-miterlimit:10;" d="M 1482.148438 824.909375 C 1482.148438 828.776562 1478.984375 831.940625 1475.117188 831.940625 C 1471.210938 831.940625 1468.085938 828.776562 1468.085938 824.909375 C 1468.085938 821.042187 1471.210938 817.878125 1475.117188 817.878125 C 1478.984375 817.878125 1482.148438 821.042187 1482.148438 824.909375 Z M 1482.148438 824.909375 " transform="matrix(0.1,0,0,-0.1,0,140.03)" />
      <path style="fill:none;stroke-width:7.9701;stroke-linecap:butt;stroke-linejoin:miter;stroke:rgb(0%,0%,0%);stroke-opacity:1;stroke-miterlimit:10;" d="M 1411.835938 780.964062 C 1431.210938 761.589062 1462.734375 761.589062 1482.148438 780.964062 " transform="matrix(0.1,0,0,-0.1,0,140.03)" />
      <path style="fill-rule:nonzero;fill:rgb(97.65625%,62.304688%,20.384216%);fill-opacity:1;stroke-width:7.9701;stroke-linecap:butt;stroke-linejoin:miter;stroke:rgb(0%,0%,0%);stroke-opacity:1;stroke-miterlimit:10;" d="M 1517.304688 1004.167188 C 1517.304688 1042.995313 1485.820313 1074.440625 1446.992188 1074.440625 C 1408.164063 1074.440625 1376.71875 1042.995313 1376.71875 1004.167188 C 1376.71875 965.339062 1408.164063 933.854687 1446.992188 933.854687 C 1485.820313 933.854687 1517.304688 965.339062 1517.304688 1004.167188 Z M 1517.304688 1004.167188 " transform="matrix(0.1,0,0,-0.1,0,140.03)" />
      <path style="fill-rule:nonzero;fill:rgb(0%,0%,0%);fill-opacity:1;stroke-width:7.9701;stroke-linecap:butt;stroke-linejoin:miter;stroke:rgb(0%,0%,0%);stroke-opacity:1;stroke-miterlimit:10;" d="M 1425.898438 1021.745313 C 1425.898438 1025.6125 1422.734375 1028.776563 1418.867188 1028.776563 C 1415 1028.776563 1411.835938 1025.6125 1411.835938 1021.745313 C 1411.835938 1017.878125 1415 1014.714063 1418.867188 1014.714063 C 1422.734375 1014.714063 1425.898438 1017.878125 1425.898438 1021.745313 Z M 1425.898438 1021.745313 " transform="matrix(0.1,0,0,-0.1,0,140.03)" />
      <path style="fill-rule:nonzero;fill:rgb(0%,0%,0%);fill-opacity:1;stroke-width:7.9701;stroke-linecap:butt;stroke-linejoin:miter;stroke:rgb(0%,0%,0%);stroke-opacity:1;stroke-miterlimit:10;" d="M 1482.148438 1021.745313 C 1482.148438 1025.6125 1478.984375 1028.776563 1475.117188 1028.776563 C 1471.210938 1028.776563 1468.085938 1025.6125 1468.085938 1021.745313 C 1468.085938 1017.878125 1471.210938 1014.714063 1475.117188 1014.714063 C 1478.984375 1014.714063 1482.148438 1017.878125 1482.148438 1021.745313 Z M 1482.148438 1021.745313 " transform="matrix(0.1,0,0,-0.1,0,140.03)" />
      <path style="fill:none;stroke-width:7.9701;stroke-linecap:butt;stroke-linejoin:miter;stroke:rgb(0%,0%,0%);stroke-opacity:1;stroke-miterlimit:10;" d="M 1411.835938 977.8 C 1431.210938 958.425 1462.734375 958.425 1482.148438 977.8 " transform="matrix(0.1,0,0,-0.1,0,140.03)" />
      <path style="fill-rule:nonzero;fill:rgb(97.65625%,62.304688%,20.384216%);fill-opacity:1;stroke-width:7.9701;stroke-linecap:butt;stroke-linejoin:miter;stroke:rgb(0%,0%,0%);stroke-opacity:1;stroke-miterlimit:10;" d="M 1517.304688 1201.003125 C 1517.304688 1239.83125 1485.820313 1271.276563 1446.992188 1271.276563 C 1408.164063 1271.276563 1376.71875 1239.83125 1376.71875 1201.003125 C 1376.71875 1162.175 1408.164063 1130.690625 1446.992188 1130.690625 C 1485.820313 1130.690625 1517.304688 1162.175 1517.304688 1201.003125 Z M 1517.304688 1201.003125 " transform="matrix(0.1,0,0,-0.1,0,140.03)" />
      <path style="fill-rule:nonzero;fill:rgb(0%,0%,0%);fill-opacity:1;stroke-width:7.9701;stroke-linecap:butt;stroke-linejoin:miter;stroke:rgb(0%,0%,0%);stroke-opacity:1;stroke-miterlimit:10;" d="M 1425.898438 1218.58125 C 1425.898438 1222.448438 1422.734375 1225.6125 1418.867188 1225.6125 C 1415 1225.6125 1411.835938 1222.448438 1411.835938 1218.58125 C 1411.835938 1214.675 1415 1211.55 1418.867188 1211.55 C 1422.734375 1211.55 1425.898438 1214.675 1425.898438 1218.58125 Z M 1425.898438 1218.58125 " transform="matrix(0.1,0,0,-0.1,0,140.03)" />
      <path style="fill-rule:nonzero;fill:rgb(0%,0%,0%);fill-opacity:1;stroke-width:7.9701;stroke-linecap:butt;stroke-linejoin:miter;stroke:rgb(0%,0%,0%);stroke-opacity:1;stroke-miterlimit:10;" d="M 1482.148438 1218.58125 C 1482.148438 1222.448438 1478.984375 1225.6125 1475.117188 1225.6125 C 1471.210938 1225.6125 1468.085938 1222.448438 1468.085938 1218.58125 C 1468.085938 1214.675 1471.210938 1211.55 1475.117188 1211.55 C 1478.984375 1211.55 1482.148438 1214.675 1482.148438 1218.58125 Z M 1482.148438 1218.58125 " transform="matrix(0.1,0,0,-0.1,0,140.03)" />
      <path style="fill:none;stroke-width:7.9701;stroke-linecap:butt;stroke-linejoin:miter;stroke:rgb(0%,0%,0%);stroke-opacity:1;stroke-miterlimit:10;" d="M 1411.835938 1174.635938 C 1431.210938 1155.260938 1462.734375 1155.260938 1482.148438 1174.635938 " transform="matrix(0.1,0,0,-0.1,0,140.03)" />
      <path style="fill-rule:nonzero;fill:rgb(39.988708%,75.976563%,39.988708%);fill-opacity:1;stroke-width:7.9701;stroke-linecap:butt;stroke-linejoin:miter;stroke:rgb(0%,0%,0%);stroke-opacity:1;stroke-miterlimit:10;" d="M 1714.101563 216.8625 C 1714.101563 255.690625 1682.65625 287.135937 1643.828125 287.135937 C 1605 287.135937 1573.515625 255.690625 1573.515625 216.8625 C 1573.515625 178.034375 1605 146.55 1643.828125 146.55 C 1682.65625 146.55 1714.101563 178.034375 1714.101563 216.8625 Z M 1714.101563 216.8625 " transform="matrix(0.1,0,0,-0.1,0,140.03)" />
      <path style="fill-rule:nonzero;fill:rgb(0%,0%,0%);fill-opacity:1;stroke-width:7.9701;stroke-linecap:butt;stroke-linejoin:miter;stroke:rgb(0%,0%,0%);stroke-opacity:1;stroke-miterlimit:10;" d="M 1622.734375 234.440625 C 1622.734375 238.307812 1619.570313 241.471875 1615.703125 241.471875 C 1611.835938 241.471875 1608.671875 238.307812 1608.671875 234.440625 C 1608.671875 230.534375 1611.835938 227.409375 1615.703125 227.409375 C 1619.570313 227.409375 1622.734375 230.534375 1622.734375 234.440625 Z M 1622.734375 234.440625 " transform="matrix(0.1,0,0,-0.1,0,140.03)" />
      <path style="fill-rule:nonzero;fill:rgb(0%,0%,0%);fill-opacity:1;stroke-width:7.9701;stroke-linecap:butt;stroke-linejoin:miter;stroke:rgb(0%,0%,0%);stroke-opacity:1;stroke-miterlimit:10;" d="M 1678.984375 234.440625 C 1678.984375 238.307812 1675.820313 241.471875 1671.953125 241.471875 C 1668.046875 241.471875 1664.921875 238.307812 1664.921875 234.440625 C 1664.921875 230.534375 1668.046875 227.409375 1671.953125 227.409375 C 1675.820313 227.409375 1678.984375 230.534375 1678.984375 234.440625 Z M 1678.984375 234.440625 " transform="matrix(0.1,0,0,-0.1,0,140.03)" />
      <path style="fill:none;stroke-width:7.9701;stroke-linecap:butt;stroke-linejoin:miter;stroke:rgb(0%,0%,0%);stroke-opacity:1;stroke-miterlimit:10;" d="M 1608.671875 190.495312 C 1628.046875 171.120312 1659.570313 171.120312 1678.984375 190.495312 " transform="matrix(0.1,0,0,-0.1,0,140.03)" />
      <path style="fill-rule:nonzero;fill:rgb(39.988708%,75.976563%,39.988708%);fill-opacity:1;stroke-width:7.9701;stroke-linecap:butt;stroke-linejoin:miter;stroke:rgb(0%,0%,0%);stroke-opacity:1;stroke-miterlimit:10;" d="M 1714.101563 413.698437 C 1714.101563 452.4875 1682.65625 483.971875 1643.828125 483.971875 C 1605 483.971875 1573.515625 452.4875 1573.515625 413.698437 C 1573.515625 374.870312 1605 343.385937 1643.828125 343.385937 C 1682.65625 343.385937 1714.101563 374.870312 1714.101563 413.698437 Z M 1714.101563 413.698437 " transform="matrix(0.1,0,0,-0.1,0,140.03)" />
      <path style="fill-rule:nonzero;fill:rgb(0%,0%,0%);fill-opacity:1;stroke-width:7.9701;stroke-linecap:butt;stroke-linejoin:miter;stroke:rgb(0%,0%,0%);stroke-opacity:1;stroke-miterlimit:10;" d="M 1622.734375 431.2375 C 1622.734375 435.14375 1619.570313 438.26875 1615.703125 438.26875 C 1611.835938 438.26875 1608.671875 435.14375 1608.671875 431.2375 C 1608.671875 427.370312 1611.835938 424.20625 1615.703125 424.20625 C 1619.570313 424.20625 1622.734375 427.370312 1622.734375 431.2375 Z M 1622.734375 431.2375 " transform="matrix(0.1,0,0,-0.1,0,140.03)" />
      <path style="fill-rule:nonzero;fill:rgb(0%,0%,0%);fill-opacity:1;stroke-width:7.9701;stroke-linecap:butt;stroke-linejoin:miter;stroke:rgb(0%,0%,0%);stroke-opacity:1;stroke-miterlimit:10;" d="M 1678.984375 431.2375 C 1678.984375 435.14375 1675.820313 438.26875 1671.953125 438.26875 C 1668.046875 438.26875 1664.921875 435.14375 1664.921875 431.2375 C 1664.921875 427.370312 1668.046875 424.20625 1671.953125 424.20625 C 1675.820313 424.20625 1678.984375 427.370312 1678.984375 431.2375 Z M 1678.984375 431.2375 " transform="matrix(0.1,0,0,-0.1,0,140.03)" />
      <path style="fill:none;stroke-width:7.9701;stroke-linecap:butt;stroke-linejoin:miter;stroke:rgb(0%,0%,0%);stroke-opacity:1;stroke-miterlimit:10;" d="M 1608.671875 387.33125 C 1628.046875 367.917187 1659.570313 367.917187 1678.984375 387.33125 " transform="matrix(0.1,0,0,-0.1,0,140.03)" />
      <path style="fill-rule:nonzero;fill:rgb(39.988708%,75.976563%,39.988708%);fill-opacity:1;stroke-width:7.9701;stroke-linecap:butt;stroke-linejoin:miter;stroke:rgb(0%,0%,0%);stroke-opacity:1;stroke-miterlimit:10;" d="M 1714.101563 610.495312 C 1714.101563 649.323437 1682.65625 680.807812 1643.828125 680.807812 C 1605 680.807812 1573.515625 649.323437 1573.515625 610.495312 C 1573.515625 571.667187 1605 540.221875 1643.828125 540.221875 C 1682.65625 540.221875 1714.101563 571.667187 1714.101563 610.495312 Z M 1714.101563 610.495312 " transform="matrix(0.1,0,0,-0.1,0,140.03)" />
      <path style="fill-rule:nonzero;fill:rgb(0%,0%,0%);fill-opacity:1;stroke-width:7.9701;stroke-linecap:butt;stroke-linejoin:miter;stroke:rgb(0%,0%,0%);stroke-opacity:1;stroke-miterlimit:10;" d="M 1622.734375 628.073437 C 1622.734375 631.979687 1619.570313 635.104687 1615.703125 635.104687 C 1611.835938 635.104687 1608.671875 631.979687 1608.671875 628.073437 C 1608.671875 624.20625 1611.835938 621.042187 1615.703125 621.042187 C 1619.570313 621.042187 1622.734375 624.20625 1622.734375 628.073437 Z M 1622.734375 628.073437 " transform="matrix(0.1,0,0,-0.1,0,140.03)" />
      <path style="fill-rule:nonzero;fill:rgb(0%,0%,0%);fill-opacity:1;stroke-width:7.9701;stroke-linecap:butt;stroke-linejoin:miter;stroke:rgb(0%,0%,0%);stroke-opacity:1;stroke-miterlimit:10;" d="M 1678.984375 628.073437 C 1678.984375 631.979687 1675.820313 635.104687 1671.953125 635.104687 C 1668.046875 635.104687 1664.921875 631.979687 1664.921875 628.073437 C 1664.921875 624.20625 1668.046875 621.042187 1671.953125 621.042187 C 1675.820313 621.042187 1678.984375 624.20625 1678.984375 628.073437 Z M 1678.984375 628.073437 " transform="matrix(0.1,0,0,-0.1,0,140.03)" />
      <path style="fill:none;stroke-width:7.9701;stroke-linecap:butt;stroke-linejoin:miter;stroke:rgb(0%,0%,0%);stroke-opacity:1;stroke-miterlimit:10;" d="M 1608.671875 584.167187 C 1628.046875 564.753125 1659.570313 564.753125 1678.984375 584.167187 " transform="matrix(0.1,0,0,-0.1,0,140.03)" />
      <path style="fill-rule:nonzero;fill:rgb(39.988708%,75.976563%,39.988708%);fill-opacity:1;stroke-width:7.9701;stroke-linecap:butt;stroke-linejoin:miter;stroke:rgb(0%,0%,0%);stroke-opacity:1;stroke-miterlimit:10;" d="M 1714.101563 807.33125 C 1714.101563 846.159375 1682.65625 877.64375 1643.828125 877.64375 C 1605 877.64375 1573.515625 846.159375 1573.515625 807.33125 C 1573.515625 768.503125 1605 737.057812 1643.828125 737.057812 C 1682.65625 737.057812 1714.101563 768.503125 1714.101563 807.33125 Z M 1714.101563 807.33125 " transform="matrix(0.1,0,0,-0.1,0,140.03)" />
      <path style="fill-rule:nonzero;fill:rgb(0%,0%,0%);fill-opacity:1;stroke-width:7.9701;stroke-linecap:butt;stroke-linejoin:miter;stroke:rgb(0%,0%,0%);stroke-opacity:1;stroke-miterlimit:10;" d="M 1622.734375 824.909375 C 1622.734375 828.776562 1619.570313 831.940625 1615.703125 831.940625 C 1611.835938 831.940625 1608.671875 828.776562 1608.671875 824.909375 C 1608.671875 821.042187 1611.835938 817.878125 1615.703125 817.878125 C 1619.570313 817.878125 1622.734375 821.042187 1622.734375 824.909375 Z M 1622.734375 824.909375 " transform="matrix(0.1,0,0,-0.1,0,140.03)" />
      <path style="fill-rule:nonzero;fill:rgb(0%,0%,0%);fill-opacity:1;stroke-width:7.9701;stroke-linecap:butt;stroke-linejoin:miter;stroke:rgb(0%,0%,0%);stroke-opacity:1;stroke-miterlimit:10;" d="M 1678.984375 824.909375 C 1678.984375 828.776562 1675.820313 831.940625 1671.953125 831.940625 C 1668.046875 831.940625 1664.921875 828.776562 1664.921875 824.909375 C 1664.921875 821.042187 1668.046875 817.878125 1671.953125 817.878125 C 1675.820313 817.878125 1678.984375 821.042187 1678.984375 824.909375 Z M 1678.984375 824.909375 " transform="matrix(0.1,0,0,-0.1,0,140.03)" />
      <path style="fill:none;stroke-width:7.9701;stroke-linecap:butt;stroke-linejoin:miter;stroke:rgb(0%,0%,0%);stroke-opacity:1;stroke-miterlimit:10;" d="M 1608.671875 780.964062 C 1628.046875 761.589062 1659.570313 761.589062 1678.984375 780.964062 " transform="matrix(0.1,0,0,-0.1,0,140.03)" />
      <path style="fill-rule:nonzero;fill:rgb(39.988708%,75.976563%,39.988708%);fill-opacity:1;stroke-width:7.9701;stroke-linecap:butt;stroke-linejoin:miter;stroke:rgb(0%,0%,0%);stroke-opacity:1;stroke-miterlimit:10;" d="M 1714.101563 1004.167188 C 1714.101563 1042.995313 1682.65625 1074.440625 1643.828125 1074.440625 C 1605 1074.440625 1573.515625 1042.995313 1573.515625 1004.167188 C 1573.515625 965.339062 1605 933.854687 1643.828125 933.854687 C 1682.65625 933.854687 1714.101563 965.339062 1714.101563 1004.167188 Z M 1714.101563 1004.167188 " transform="matrix(0.1,0,0,-0.1,0,140.03)" />
      <path style="fill-rule:nonzero;fill:rgb(0%,0%,0%);fill-opacity:1;stroke-width:7.9701;stroke-linecap:butt;stroke-linejoin:miter;stroke:rgb(0%,0%,0%);stroke-opacity:1;stroke-miterlimit:10;" d="M 1622.734375 1021.745313 C 1622.734375 1025.6125 1619.570313 1028.776563 1615.703125 1028.776563 C 1611.835938 1028.776563 1608.671875 1025.6125 1608.671875 1021.745313 C 1608.671875 1017.878125 1611.835938 1014.714063 1615.703125 1014.714063 C 1619.570313 1014.714063 1622.734375 1017.878125 1622.734375 1021.745313 Z M 1622.734375 1021.745313 " transform="matrix(0.1,0,0,-0.1,0,140.03)" />
      <path style="fill-rule:nonzero;fill:rgb(0%,0%,0%);fill-opacity:1;stroke-width:7.9701;stroke-linecap:butt;stroke-linejoin:miter;stroke:rgb(0%,0%,0%);stroke-opacity:1;stroke-miterlimit:10;" d="M 1678.984375 1021.745313 C 1678.984375 1025.6125 1675.820313 1028.776563 1671.953125 1028.776563 C 1668.046875 1028.776563 1664.921875 1025.6125 1664.921875 1021.745313 C 1664.921875 1017.878125 1668.046875 1014.714063 1671.953125 1014.714063 C 1675.820313 1014.714063 1678.984375 1017.878125 1678.984375 1021.745313 Z M 1678.984375 1021.745313 " transform="matrix(0.1,0,0,-0.1,0,140.03)" />
      <path style="fill:none;stroke-width:7.9701;stroke-linecap:butt;stroke-linejoin:miter;stroke:rgb(0%,0%,0%);stroke-opacity:1;stroke-miterlimit:10;" d="M 1608.671875 977.8 C 1628.046875 958.425 1659.570313 958.425 1678.984375 977.8 " transform="matrix(0.1,0,0,-0.1,0,140.03)" />
      <path style="fill-rule:nonzero;fill:rgb(39.988708%,75.976563%,39.988708%);fill-opacity:1;stroke-width:7.9701;stroke-linecap:butt;stroke-linejoin:miter;stroke:rgb(0%,0%,0%);stroke-opacity:1;stroke-miterlimit:10;" d="M 1714.101563 1201.003125 C 1714.101563 1239.83125 1682.65625 1271.276563 1643.828125 1271.276563 C 1605 1271.276563 1573.515625 1239.83125 1573.515625 1201.003125 C 1573.515625 1162.175 1605 1130.690625 1643.828125 1130.690625 C 1682.65625 1130.690625 1714.101563 1162.175 1714.101563 1201.003125 Z M 1714.101563 1201.003125 " transform="matrix(0.1,0,0,-0.1,0,140.03)" />
      <path style="fill-rule:nonzero;fill:rgb(0%,0%,0%);fill-opacity:1;stroke-width:7.9701;stroke-linecap:butt;stroke-linejoin:miter;stroke:rgb(0%,0%,0%);stroke-opacity:1;stroke-miterlimit:10;" d="M 1622.734375 1218.58125 C 1622.734375 1222.448438 1619.570313 1225.6125 1615.703125 1225.6125 C 1611.835938 1225.6125 1608.671875 1222.448438 1608.671875 1218.58125 C 1608.671875 1214.675 1611.835938 1211.55 1615.703125 1211.55 C 1619.570313 1211.55 1622.734375 1214.675 1622.734375 1218.58125 Z M 1622.734375 1218.58125 " transform="matrix(0.1,0,0,-0.1,0,140.03)" />
      <path style="fill-rule:nonzero;fill:rgb(0%,0%,0%);fill-opacity:1;stroke-width:7.9701;stroke-linecap:butt;stroke-linejoin:miter;stroke:rgb(0%,0%,0%);stroke-opacity:1;stroke-miterlimit:10;" d="M 1678.984375 1218.58125 C 1678.984375 1222.448438 1675.820313 1225.6125 1671.953125 1225.6125 C 1668.046875 1225.6125 1664.921875 1222.448438 1664.921875 1218.58125 C 1664.921875 1214.675 1668.046875 1211.55 1671.953125 1211.55 C 1675.820313 1211.55 1678.984375 1214.675 1678.984375 1218.58125 Z M 1678.984375 1218.58125 " transform="matrix(0.1,0,0,-0.1,0,140.03)" />
      <path style="fill:none;stroke-width:7.9701;stroke-linecap:butt;stroke-linejoin:miter;stroke:rgb(0%,0%,0%);stroke-opacity:1;stroke-miterlimit:10;" d="M 1608.671875 1174.635938 C 1628.046875 1155.260938 1659.570313 1155.260938 1678.984375 1174.635938 " transform="matrix(0.1,0,0,-0.1,0,140.03)" />
      <path style="fill-rule:nonzero;fill:rgb(97.65625%,62.304688%,20.384216%);fill-opacity:1;stroke-width:7.9701;stroke-linecap:butt;stroke-linejoin:miter;stroke:rgb(0%,0%,0%);stroke-opacity:1;stroke-miterlimit:10;" d="M 1910.9375 216.8625 C 1910.9375 255.690625 1879.453125 287.135937 1840.664063 287.135937 C 1801.835938 287.135937 1770.351563 255.690625 1770.351563 216.8625 C 1770.351563 178.034375 1801.835938 146.55 1840.664063 146.55 C 1879.453125 146.55 1910.9375 178.034375 1910.9375 216.8625 Z M 1910.9375 216.8625 " transform="matrix(0.1,0,0,-0.1,0,140.03)" />
      <path style="fill-rule:nonzero;fill:rgb(0%,0%,0%);fill-opacity:1;stroke-width:7.9701;stroke-linecap:butt;stroke-linejoin:miter;stroke:rgb(0%,0%,0%);stroke-opacity:1;stroke-miterlimit:10;" d="M 1819.570313 234.440625 C 1819.570313 238.307812 1816.40625 241.471875 1812.539063 241.471875 C 1808.632813 241.471875 1805.507813 238.307812 1805.507813 234.440625 C 1805.507813 230.534375 1808.632813 227.409375 1812.539063 227.409375 C 1816.40625 227.409375 1819.570313 230.534375 1819.570313 234.440625 Z M 1819.570313 234.440625 " transform="matrix(0.1,0,0,-0.1,0,140.03)" />
      <path style="fill-rule:nonzero;fill:rgb(0%,0%,0%);fill-opacity:1;stroke-width:7.9701;stroke-linecap:butt;stroke-linejoin:miter;stroke:rgb(0%,0%,0%);stroke-opacity:1;stroke-miterlimit:10;" d="M 1875.78125 234.440625 C 1875.78125 238.307812 1872.65625 241.471875 1868.789063 241.471875 C 1864.882813 241.471875 1861.757813 238.307812 1861.757813 234.440625 C 1861.757813 230.534375 1864.882813 227.409375 1868.789063 227.409375 C 1872.65625 227.409375 1875.78125 230.534375 1875.78125 234.440625 Z M 1875.78125 234.440625 " transform="matrix(0.1,0,0,-0.1,0,140.03)" />
      <path style="fill:none;stroke-width:7.9701;stroke-linecap:butt;stroke-linejoin:miter;stroke:rgb(0%,0%,0%);stroke-opacity:1;stroke-miterlimit:10;" d="M 1805.507813 190.495312 C 1824.882813 171.120312 1856.40625 171.120312 1875.78125 190.495312 " transform="matrix(0.1,0,0,-0.1,0,140.03)" />
      <path style="fill-rule:nonzero;fill:rgb(97.65625%,62.304688%,20.384216%);fill-opacity:1;stroke-width:7.9701;stroke-linecap:butt;stroke-linejoin:miter;stroke:rgb(0%,0%,0%);stroke-opacity:1;stroke-miterlimit:10;" d="M 1910.9375 413.698437 C 1910.9375 452.4875 1879.453125 483.971875 1840.664063 483.971875 C 1801.835938 483.971875 1770.351563 452.4875 1770.351563 413.698437 C 1770.351563 374.870312 1801.835938 343.385937 1840.664063 343.385937 C 1879.453125 343.385937 1910.9375 374.870312 1910.9375 413.698437 Z M 1910.9375 413.698437 " transform="matrix(0.1,0,0,-0.1,0,140.03)" />
      <path style="fill-rule:nonzero;fill:rgb(0%,0%,0%);fill-opacity:1;stroke-width:7.9701;stroke-linecap:butt;stroke-linejoin:miter;stroke:rgb(0%,0%,0%);stroke-opacity:1;stroke-miterlimit:10;" d="M 1819.570313 431.2375 C 1819.570313 435.14375 1816.40625 438.26875 1812.539063 438.26875 C 1808.632813 438.26875 1805.507813 435.14375 1805.507813 431.2375 C 1805.507813 427.370312 1808.632813 424.20625 1812.539063 424.20625 C 1816.40625 424.20625 1819.570313 427.370312 1819.570313 431.2375 Z M 1819.570313 431.2375 " transform="matrix(0.1,0,0,-0.1,0,140.03)" />
      <path style="fill-rule:nonzero;fill:rgb(0%,0%,0%);fill-opacity:1;stroke-width:7.9701;stroke-linecap:butt;stroke-linejoin:miter;stroke:rgb(0%,0%,0%);stroke-opacity:1;stroke-miterlimit:10;" d="M 1875.78125 431.2375 C 1875.78125 435.14375 1872.65625 438.26875 1868.789063 438.26875 C 1864.882813 438.26875 1861.757813 435.14375 1861.757813 431.2375 C 1861.757813 427.370312 1864.882813 424.20625 1868.789063 424.20625 C 1872.65625 424.20625 1875.78125 427.370312 1875.78125 431.2375 Z M 1875.78125 431.2375 " transform="matrix(0.1,0,0,-0.1,0,140.03)" />
      <path style="fill:none;stroke-width:7.9701;stroke-linecap:butt;stroke-linejoin:miter;stroke:rgb(0%,0%,0%);stroke-opacity:1;stroke-miterlimit:10;" d="M 1805.507813 387.33125 C 1824.882813 367.917187 1856.40625 367.917187 1875.78125 387.33125 " transform="matrix(0.1,0,0,-0.1,0,140.03)" />
      <path style="fill-rule:nonzero;fill:rgb(97.65625%,62.304688%,20.384216%);fill-opacity:1;stroke-width:7.9701;stroke-linecap:butt;stroke-linejoin:miter;stroke:rgb(0%,0%,0%);stroke-opacity:1;stroke-miterlimit:10;" d="M 1910.9375 610.495312 C 1910.9375 649.323437 1879.453125 680.807812 1840.664063 680.807812 C 1801.835938 680.807812 1770.351563 649.323437 1770.351563 610.495312 C 1770.351563 571.667187 1801.835938 540.221875 1840.664063 540.221875 C 1879.453125 540.221875 1910.9375 571.667187 1910.9375 610.495312 Z M 1910.9375 610.495312 " transform="matrix(0.1,0,0,-0.1,0,140.03)" />
      <path style="fill-rule:nonzero;fill:rgb(0%,0%,0%);fill-opacity:1;stroke-width:7.9701;stroke-linecap:butt;stroke-linejoin:miter;stroke:rgb(0%,0%,0%);stroke-opacity:1;stroke-miterlimit:10;" d="M 1819.570313 628.073437 C 1819.570313 631.979687 1816.40625 635.104687 1812.539063 635.104687 C 1808.632813 635.104687 1805.507813 631.979687 1805.507813 628.073437 C 1805.507813 624.20625 1808.632813 621.042187 1812.539063 621.042187 C 1816.40625 621.042187 1819.570313 624.20625 1819.570313 628.073437 Z M 1819.570313 628.073437 " transform="matrix(0.1,0,0,-0.1,0,140.03)" />
      <path style="fill-rule:nonzero;fill:rgb(0%,0%,0%);fill-opacity:1;stroke-width:7.9701;stroke-linecap:butt;stroke-linejoin:miter;stroke:rgb(0%,0%,0%);stroke-opacity:1;stroke-miterlimit:10;" d="M 1875.78125 628.073437 C 1875.78125 631.979687 1872.65625 635.104687 1868.789063 635.104687 C 1864.882813 635.104687 1861.757813 631.979687 1861.757813 628.073437 C 1861.757813 624.20625 1864.882813 621.042187 1868.789063 621.042187 C 1872.65625 621.042187 1875.78125 624.20625 1875.78125 628.073437 Z M 1875.78125 628.073437 " transform="matrix(0.1,0,0,-0.1,0,140.03)" />
      <path style="fill:none;stroke-width:7.9701;stroke-linecap:butt;stroke-linejoin:miter;stroke:rgb(0%,0%,0%);stroke-opacity:1;stroke-miterlimit:10;" d="M 1805.507813 584.167187 C 1824.882813 564.753125 1856.40625 564.753125 1875.78125 584.167187 " transform="matrix(0.1,0,0,-0.1,0,140.03)" />
      <path style="fill-rule:nonzero;fill:rgb(97.65625%,62.304688%,20.384216%);fill-opacity:1;stroke-width:7.9701;stroke-linecap:butt;stroke-linejoin:miter;stroke:rgb(0%,0%,0%);stroke-opacity:1;stroke-miterlimit:10;" d="M 1910.9375 807.33125 C 1910.9375 846.159375 1879.453125 877.64375 1840.664063 877.64375 C 1801.835938 877.64375 1770.351563 846.159375 1770.351563 807.33125 C 1770.351563 768.503125 1801.835938 737.057812 1840.664063 737.057812 C 1879.453125 737.057812 1910.9375 768.503125 1910.9375 807.33125 Z M 1910.9375 807.33125 " transform="matrix(0.1,0,0,-0.1,0,140.03)" />
      <path style="fill-rule:nonzero;fill:rgb(0%,0%,0%);fill-opacity:1;stroke-width:7.9701;stroke-linecap:butt;stroke-linejoin:miter;stroke:rgb(0%,0%,0%);stroke-opacity:1;stroke-miterlimit:10;" d="M 1819.570313 824.909375 C 1819.570313 828.776562 1816.40625 831.940625 1812.539063 831.940625 C 1808.632813 831.940625 1805.507813 828.776562 1805.507813 824.909375 C 1805.507813 821.042187 1808.632813 817.878125 1812.539063 817.878125 C 1816.40625 817.878125 1819.570313 821.042187 1819.570313 824.909375 Z M 1819.570313 824.909375 " transform="matrix(0.1,0,0,-0.1,0,140.03)" />
      <path style="fill-rule:nonzero;fill:rgb(0%,0%,0%);fill-opacity:1;stroke-width:7.9701;stroke-linecap:butt;stroke-linejoin:miter;stroke:rgb(0%,0%,0%);stroke-opacity:1;stroke-miterlimit:10;" d="M 1875.78125 824.909375 C 1875.78125 828.776562 1872.65625 831.940625 1868.789063 831.940625 C 1864.882813 831.940625 1861.757813 828.776562 1861.757813 824.909375 C 1861.757813 821.042187 1864.882813 817.878125 1868.789063 817.878125 C 1872.65625 817.878125 1875.78125 821.042187 1875.78125 824.909375 Z M 1875.78125 824.909375 " transform="matrix(0.1,0,0,-0.1,0,140.03)" />
      <path style="fill:none;stroke-width:7.9701;stroke-linecap:butt;stroke-linejoin:miter;stroke:rgb(0%,0%,0%);stroke-opacity:1;stroke-miterlimit:10;" d="M 1805.507813 780.964062 C 1824.882813 761.589062 1856.40625 761.589062 1875.78125 780.964062 " transform="matrix(0.1,0,0,-0.1,0,140.03)" />
      <path style="fill-rule:nonzero;fill:rgb(97.65625%,62.304688%,20.384216%);fill-opacity:1;stroke-width:7.9701;stroke-linecap:butt;stroke-linejoin:miter;stroke:rgb(0%,0%,0%);stroke-opacity:1;stroke-miterlimit:10;" d="M 1910.9375 1004.167188 C 1910.9375 1042.995313 1879.453125 1074.440625 1840.664063 1074.440625 C 1801.835938 1074.440625 1770.351563 1042.995313 1770.351563 1004.167188 C 1770.351563 965.339062 1801.835938 933.854687 1840.664063 933.854687 C 1879.453125 933.854687 1910.9375 965.339062 1910.9375 1004.167188 Z M 1910.9375 1004.167188 " transform="matrix(0.1,0,0,-0.1,0,140.03)" />
      <path style="fill-rule:nonzero;fill:rgb(0%,0%,0%);fill-opacity:1;stroke-width:7.9701;stroke-linecap:butt;stroke-linejoin:miter;stroke:rgb(0%,0%,0%);stroke-opacity:1;stroke-miterlimit:10;" d="M 1819.570313 1021.745313 C 1819.570313 1025.6125 1816.40625 1028.776563 1812.539063 1028.776563 C 1808.632813 1028.776563 1805.507813 1025.6125 1805.507813 1021.745313 C 1805.507813 1017.878125 1808.632813 1014.714063 1812.539063 1014.714063 C 1816.40625 1014.714063 1819.570313 1017.878125 1819.570313 1021.745313 Z M 1819.570313 1021.745313 " transform="matrix(0.1,0,0,-0.1,0,140.03)" />
      <path style="fill-rule:nonzero;fill:rgb(0%,0%,0%);fill-opacity:1;stroke-width:7.9701;stroke-linecap:butt;stroke-linejoin:miter;stroke:rgb(0%,0%,0%);stroke-opacity:1;stroke-miterlimit:10;" d="M 1875.78125 1021.745313 C 1875.78125 1025.6125 1872.65625 1028.776563 1868.789063 1028.776563 C 1864.882813 1028.776563 1861.757813 1025.6125 1861.757813 1021.745313 C 1861.757813 1017.878125 1864.882813 1014.714063 1868.789063 1014.714063 C 1872.65625 1014.714063 1875.78125 1017.878125 1875.78125 1021.745313 Z M 1875.78125 1021.745313 " transform="matrix(0.1,0,0,-0.1,0,140.03)" />
      <path style="fill:none;stroke-width:7.9701;stroke-linecap:butt;stroke-linejoin:miter;stroke:rgb(0%,0%,0%);stroke-opacity:1;stroke-miterlimit:10;" d="M 1805.507813 977.8 C 1824.882813 958.425 1856.40625 958.425 1875.78125 977.8 " transform="matrix(0.1,0,0,-0.1,0,140.03)" />
      <path style="fill-rule:nonzero;fill:rgb(97.65625%,62.304688%,20.384216%);fill-opacity:1;stroke-width:7.9701;stroke-linecap:butt;stroke-linejoin:miter;stroke:rgb(0%,0%,0%);stroke-opacity:1;stroke-miterlimit:10;" d="M 1910.9375 1201.003125 C 1910.9375 1239.83125 1879.453125 1271.276563 1840.664063 1271.276563 C 1801.835938 1271.276563 1770.351563 1239.83125 1770.351563 1201.003125 C 1770.351563 1162.175 1801.835938 1130.690625 1840.664063 1130.690625 C 1879.453125 1130.690625 1910.9375 1162.175 1910.9375 1201.003125 Z M 1910.9375 1201.003125 " transform="matrix(0.1,0,0,-0.1,0,140.03)" />
      <path style="fill-rule:nonzero;fill:rgb(0%,0%,0%);fill-opacity:1;stroke-width:7.9701;stroke-linecap:butt;stroke-linejoin:miter;stroke:rgb(0%,0%,0%);stroke-opacity:1;stroke-miterlimit:10;" d="M 1819.570313 1218.58125 C 1819.570313 1222.448438 1816.40625 1225.6125 1812.539063 1225.6125 C 1808.632813 1225.6125 1805.507813 1222.448438 1805.507813 1218.58125 C 1805.507813 1214.675 1808.632813 1211.55 1812.539063 1211.55 C 1816.40625 1211.55 1819.570313 1214.675 1819.570313 1218.58125 Z M 1819.570313 1218.58125 " transform="matrix(0.1,0,0,-0.1,0,140.03)" />
      <path style="fill-rule:nonzero;fill:rgb(0%,0%,0%);fill-opacity:1;stroke-width:7.9701;stroke-linecap:butt;stroke-linejoin:miter;stroke:rgb(0%,0%,0%);stroke-opacity:1;stroke-miterlimit:10;" d="M 1875.78125 1218.58125 C 1875.78125 1222.448438 1872.65625 1225.6125 1868.789063 1225.6125 C 1864.882813 1225.6125 1861.757813 1222.448438 1861.757813 1218.58125 C 1861.757813 1214.675 1864.882813 1211.55 1868.789063 1211.55 C 1872.65625 1211.55 1875.78125 1214.675 1875.78125 1218.58125 Z M 1875.78125 1218.58125 " transform="matrix(0.1,0,0,-0.1,0,140.03)" />
      <path style="fill:none;stroke-width:7.9701;stroke-linecap:butt;stroke-linejoin:miter;stroke:rgb(0%,0%,0%);stroke-opacity:1;stroke-miterlimit:10;" d="M 1805.507813 1174.635938 C 1824.882813 1155.260938 1856.40625 1155.260938 1875.78125 1174.635938 " transform="matrix(0.1,0,0,-0.1,0,140.03)" />
      <path style="fill-rule:nonzero;fill:rgb(39.988708%,75.976563%,39.988708%);fill-opacity:1;stroke-width:7.9701;stroke-linecap:butt;stroke-linejoin:miter;stroke:rgb(0%,0%,0%);stroke-opacity:1;stroke-miterlimit:10;" d="M 2107.773438 216.8625 C 2107.773438 255.690625 2076.289063 287.135937 2037.460938 287.135937 C 1998.632813 287.135937 1967.1875 255.690625 1967.1875 216.8625 C 1967.1875 178.034375 1998.632813 146.55 2037.460938 146.55 C 2076.289063 146.55 2107.773438 178.034375 2107.773438 216.8625 Z M 2107.773438 216.8625 " transform="matrix(0.1,0,0,-0.1,0,140.03)" />
      <path style="fill-rule:nonzero;fill:rgb(0%,0%,0%);fill-opacity:1;stroke-width:7.9701;stroke-linecap:butt;stroke-linejoin:miter;stroke:rgb(0%,0%,0%);stroke-opacity:1;stroke-miterlimit:10;" d="M 2016.40625 234.440625 C 2016.40625 238.307812 2013.242188 241.471875 2009.375 241.471875 C 2005.46875 241.471875 2002.34375 238.307812 2002.34375 234.440625 C 2002.34375 230.534375 2005.46875 227.409375 2009.375 227.409375 C 2013.242188 227.409375 2016.40625 230.534375 2016.40625 234.440625 Z M 2016.40625 234.440625 " transform="matrix(0.1,0,0,-0.1,0,140.03)" />
      <path style="fill-rule:nonzero;fill:rgb(0%,0%,0%);fill-opacity:1;stroke-width:7.9701;stroke-linecap:butt;stroke-linejoin:miter;stroke:rgb(0%,0%,0%);stroke-opacity:1;stroke-miterlimit:10;" d="M 2072.617188 234.440625 C 2072.617188 238.307812 2069.492188 241.471875 2065.585938 241.471875 C 2061.71875 241.471875 2058.554688 238.307812 2058.554688 234.440625 C 2058.554688 230.534375 2061.71875 227.409375 2065.585938 227.409375 C 2069.492188 227.409375 2072.617188 230.534375 2072.617188 234.440625 Z M 2072.617188 234.440625 " transform="matrix(0.1,0,0,-0.1,0,140.03)" />
      <path style="fill:none;stroke-width:7.9701;stroke-linecap:butt;stroke-linejoin:miter;stroke:rgb(0%,0%,0%);stroke-opacity:1;stroke-miterlimit:10;" d="M 2002.34375 190.495312 C 2021.71875 171.120312 2053.242188 171.120312 2072.617188 190.495312 " transform="matrix(0.1,0,0,-0.1,0,140.03)" />
      <path style="fill-rule:nonzero;fill:rgb(39.988708%,75.976563%,39.988708%);fill-opacity:1;stroke-width:7.9701;stroke-linecap:butt;stroke-linejoin:miter;stroke:rgb(0%,0%,0%);stroke-opacity:1;stroke-miterlimit:10;" d="M 2107.773438 413.698437 C 2107.773438 452.4875 2076.289063 483.971875 2037.460938 483.971875 C 1998.632813 483.971875 1967.1875 452.4875 1967.1875 413.698437 C 1967.1875 374.870312 1998.632813 343.385937 2037.460938 343.385937 C 2076.289063 343.385937 2107.773438 374.870312 2107.773438 413.698437 Z M 2107.773438 413.698437 " transform="matrix(0.1,0,0,-0.1,0,140.03)" />
      <path style="fill-rule:nonzero;fill:rgb(0%,0%,0%);fill-opacity:1;stroke-width:7.9701;stroke-linecap:butt;stroke-linejoin:miter;stroke:rgb(0%,0%,0%);stroke-opacity:1;stroke-miterlimit:10;" d="M 2016.40625 431.2375 C 2016.40625 435.14375 2013.242188 438.26875 2009.375 438.26875 C 2005.46875 438.26875 2002.34375 435.14375 2002.34375 431.2375 C 2002.34375 427.370312 2005.46875 424.20625 2009.375 424.20625 C 2013.242188 424.20625 2016.40625 427.370312 2016.40625 431.2375 Z M 2016.40625 431.2375 " transform="matrix(0.1,0,0,-0.1,0,140.03)" />
      <path style="fill-rule:nonzero;fill:rgb(0%,0%,0%);fill-opacity:1;stroke-width:7.9701;stroke-linecap:butt;stroke-linejoin:miter;stroke:rgb(0%,0%,0%);stroke-opacity:1;stroke-miterlimit:10;" d="M 2072.617188 431.2375 C 2072.617188 435.14375 2069.492188 438.26875 2065.585938 438.26875 C 2061.71875 438.26875 2058.554688 435.14375 2058.554688 431.2375 C 2058.554688 427.370312 2061.71875 424.20625 2065.585938 424.20625 C 2069.492188 424.20625 2072.617188 427.370312 2072.617188 431.2375 Z M 2072.617188 431.2375 " transform="matrix(0.1,0,0,-0.1,0,140.03)" />
      <path style="fill:none;stroke-width:7.9701;stroke-linecap:butt;stroke-linejoin:miter;stroke:rgb(0%,0%,0%);stroke-opacity:1;stroke-miterlimit:10;" d="M 2002.34375 387.33125 C 2021.71875 367.917187 2053.242188 367.917187 2072.617188 387.33125 " transform="matrix(0.1,0,0,-0.1,0,140.03)" />
      <path style="fill-rule:nonzero;fill:rgb(39.988708%,75.976563%,39.988708%);fill-opacity:1;stroke-width:7.9701;stroke-linecap:butt;stroke-linejoin:miter;stroke:rgb(0%,0%,0%);stroke-opacity:1;stroke-miterlimit:10;" d="M 2107.773438 610.495312 C 2107.773438 649.323437 2076.289063 680.807812 2037.460938 680.807812 C 1998.632813 680.807812 1967.1875 649.323437 1967.1875 610.495312 C 1967.1875 571.667187 1998.632813 540.221875 2037.460938 540.221875 C 2076.289063 540.221875 2107.773438 571.667187 2107.773438 610.495312 Z M 2107.773438 610.495312 " transform="matrix(0.1,0,0,-0.1,0,140.03)" />
      <path style="fill-rule:nonzero;fill:rgb(0%,0%,0%);fill-opacity:1;stroke-width:7.9701;stroke-linecap:butt;stroke-linejoin:miter;stroke:rgb(0%,0%,0%);stroke-opacity:1;stroke-miterlimit:10;" d="M 2016.40625 628.073437 C 2016.40625 631.979687 2013.242188 635.104687 2009.375 635.104687 C 2005.46875 635.104687 2002.34375 631.979687 2002.34375 628.073437 C 2002.34375 624.20625 2005.46875 621.042187 2009.375 621.042187 C 2013.242188 621.042187 2016.40625 624.20625 2016.40625 628.073437 Z M 2016.40625 628.073437 " transform="matrix(0.1,0,0,-0.1,0,140.03)" />
      <path style="fill-rule:nonzero;fill:rgb(0%,0%,0%);fill-opacity:1;stroke-width:7.9701;stroke-linecap:butt;stroke-linejoin:miter;stroke:rgb(0%,0%,0%);stroke-opacity:1;stroke-miterlimit:10;" d="M 2072.617188 628.073437 C 2072.617188 631.979687 2069.492188 635.104687 2065.585938 635.104687 C 2061.71875 635.104687 2058.554688 631.979687 2058.554688 628.073437 C 2058.554688 624.20625 2061.71875 621.042187 2065.585938 621.042187 C 2069.492188 621.042187 2072.617188 624.20625 2072.617188 628.073437 Z M 2072.617188 628.073437 " transform="matrix(0.1,0,0,-0.1,0,140.03)" />
      <path style="fill:none;stroke-width:7.9701;stroke-linecap:butt;stroke-linejoin:miter;stroke:rgb(0%,0%,0%);stroke-opacity:1;stroke-miterlimit:10;" d="M 2002.34375 584.167187 C 2021.71875 564.753125 2053.242188 564.753125 2072.617188 584.167187 " transform="matrix(0.1,0,0,-0.1,0,140.03)" />
      <path style="fill-rule:nonzero;fill:rgb(39.988708%,75.976563%,39.988708%);fill-opacity:1;stroke-width:7.9701;stroke-linecap:butt;stroke-linejoin:miter;stroke:rgb(0%,0%,0%);stroke-opacity:1;stroke-miterlimit:10;" d="M 2107.773438 807.33125 C 2107.773438 846.159375 2076.289063 877.64375 2037.460938 877.64375 C 1998.632813 877.64375 1967.1875 846.159375 1967.1875 807.33125 C 1967.1875 768.503125 1998.632813 737.057812 2037.460938 737.057812 C 2076.289063 737.057812 2107.773438 768.503125 2107.773438 807.33125 Z M 2107.773438 807.33125 " transform="matrix(0.1,0,0,-0.1,0,140.03)" />
      <path style="fill-rule:nonzero;fill:rgb(0%,0%,0%);fill-opacity:1;stroke-width:7.9701;stroke-linecap:butt;stroke-linejoin:miter;stroke:rgb(0%,0%,0%);stroke-opacity:1;stroke-miterlimit:10;" d="M 2016.40625 824.909375 C 2016.40625 828.776562 2013.242188 831.940625 2009.375 831.940625 C 2005.46875 831.940625 2002.34375 828.776562 2002.34375 824.909375 C 2002.34375 821.042187 2005.46875 817.878125 2009.375 817.878125 C 2013.242188 817.878125 2016.40625 821.042187 2016.40625 824.909375 Z M 2016.40625 824.909375 " transform="matrix(0.1,0,0,-0.1,0,140.03)" />
      <path style="fill-rule:nonzero;fill:rgb(0%,0%,0%);fill-opacity:1;stroke-width:7.9701;stroke-linecap:butt;stroke-linejoin:miter;stroke:rgb(0%,0%,0%);stroke-opacity:1;stroke-miterlimit:10;" d="M 2072.617188 824.909375 C 2072.617188 828.776562 2069.492188 831.940625 2065.585938 831.940625 C 2061.71875 831.940625 2058.554688 828.776562 2058.554688 824.909375 C 2058.554688 821.042187 2061.71875 817.878125 2065.585938 817.878125 C 2069.492188 817.878125 2072.617188 821.042187 2072.617188 824.909375 Z M 2072.617188 824.909375 " transform="matrix(0.1,0,0,-0.1,0,140.03)" />
      <path style="fill:none;stroke-width:7.9701;stroke-linecap:butt;stroke-linejoin:miter;stroke:rgb(0%,0%,0%);stroke-opacity:1;stroke-miterlimit:10;" d="M 2002.34375 780.964062 C 2021.71875 761.589062 2053.242188 761.589062 2072.617188 780.964062 " transform="matrix(0.1,0,0,-0.1,0,140.03)" />
      <path style="fill-rule:nonzero;fill:rgb(39.988708%,75.976563%,39.988708%);fill-opacity:1;stroke-width:7.9701;stroke-linecap:butt;stroke-linejoin:miter;stroke:rgb(0%,0%,0%);stroke-opacity:1;stroke-miterlimit:10;" d="M 2107.773438 1004.167188 C 2107.773438 1042.995313 2076.289063 1074.440625 2037.460938 1074.440625 C 1998.632813 1074.440625 1967.1875 1042.995313 1967.1875 1004.167188 C 1967.1875 965.339062 1998.632813 933.854687 2037.460938 933.854687 C 2076.289063 933.854687 2107.773438 965.339062 2107.773438 1004.167188 Z M 2107.773438 1004.167188 " transform="matrix(0.1,0,0,-0.1,0,140.03)" />
      <path style="fill-rule:nonzero;fill:rgb(0%,0%,0%);fill-opacity:1;stroke-width:7.9701;stroke-linecap:butt;stroke-linejoin:miter;stroke:rgb(0%,0%,0%);stroke-opacity:1;stroke-miterlimit:10;" d="M 2016.40625 1021.745313 C 2016.40625 1025.6125 2013.242188 1028.776563 2009.375 1028.776563 C 2005.46875 1028.776563 2002.34375 1025.6125 2002.34375 1021.745313 C 2002.34375 1017.878125 2005.46875 1014.714063 2009.375 1014.714063 C 2013.242188 1014.714063 2016.40625 1017.878125 2016.40625 1021.745313 Z M 2016.40625 1021.745313 " transform="matrix(0.1,0,0,-0.1,0,140.03)" />
      <path style="fill-rule:nonzero;fill:rgb(0%,0%,0%);fill-opacity:1;stroke-width:7.9701;stroke-linecap:butt;stroke-linejoin:miter;stroke:rgb(0%,0%,0%);stroke-opacity:1;stroke-miterlimit:10;" d="M 2072.617188 1021.745313 C 2072.617188 1025.6125 2069.492188 1028.776563 2065.585938 1028.776563 C 2061.71875 1028.776563 2058.554688 1025.6125 2058.554688 1021.745313 C 2058.554688 1017.878125 2061.71875 1014.714063 2065.585938 1014.714063 C 2069.492188 1014.714063 2072.617188 1017.878125 2072.617188 1021.745313 Z M 2072.617188 1021.745313 " transform="matrix(0.1,0,0,-0.1,0,140.03)" />
      <path style="fill:none;stroke-width:7.9701;stroke-linecap:butt;stroke-linejoin:miter;stroke:rgb(0%,0%,0%);stroke-opacity:1;stroke-miterlimit:10;" d="M 2002.34375 977.8 C 2021.71875 958.425 2053.242188 958.425 2072.617188 977.8 " transform="matrix(0.1,0,0,-0.1,0,140.03)" />
      <path style="fill-rule:nonzero;fill:rgb(39.988708%,75.976563%,39.988708%);fill-opacity:1;stroke-width:7.9701;stroke-linecap:butt;stroke-linejoin:miter;stroke:rgb(0%,0%,0%);stroke-opacity:1;stroke-miterlimit:10;" d="M 2107.773438 1201.003125 C 2107.773438 1239.83125 2076.289063 1271.276563 2037.460938 1271.276563 C 1998.632813 1271.276563 1967.1875 1239.83125 1967.1875 1201.003125 C 1967.1875 1162.175 1998.632813 1130.690625 2037.460938 1130.690625 C 2076.289063 1130.690625 2107.773438 1162.175 2107.773438 1201.003125 Z M 2107.773438 1201.003125 " transform="matrix(0.1,0,0,-0.1,0,140.03)" />
      <path style="fill-rule:nonzero;fill:rgb(0%,0%,0%);fill-opacity:1;stroke-width:7.9701;stroke-linecap:butt;stroke-linejoin:miter;stroke:rgb(0%,0%,0%);stroke-opacity:1;stroke-miterlimit:10;" d="M 2016.40625 1218.58125 C 2016.40625 1222.448438 2013.242188 1225.6125 2009.375 1225.6125 C 2005.46875 1225.6125 2002.34375 1222.448438 2002.34375 1218.58125 C 2002.34375 1214.675 2005.46875 1211.55 2009.375 1211.55 C 2013.242188 1211.55 2016.40625 1214.675 2016.40625 1218.58125 Z M 2016.40625 1218.58125 " transform="matrix(0.1,0,0,-0.1,0,140.03)" />
      <path style="fill-rule:nonzero;fill:rgb(0%,0%,0%);fill-opacity:1;stroke-width:7.9701;stroke-linecap:butt;stroke-linejoin:miter;stroke:rgb(0%,0%,0%);stroke-opacity:1;stroke-miterlimit:10;" d="M 2072.617188 1218.58125 C 2072.617188 1222.448438 2069.492188 1225.6125 2065.585938 1225.6125 C 2061.71875 1225.6125 2058.554688 1222.448438 2058.554688 1218.58125 C 2058.554688 1214.675 2061.71875 1211.55 2065.585938 1211.55 C 2069.492188 1211.55 2072.617188 1214.675 2072.617188 1218.58125 Z M 2072.617188 1218.58125 " transform="matrix(0.1,0,0,-0.1,0,140.03)" />
      <path style="fill:none;stroke-width:7.9701;stroke-linecap:butt;stroke-linejoin:miter;stroke:rgb(0%,0%,0%);stroke-opacity:1;stroke-miterlimit:10;" d="M 2002.34375 1174.635938 C 2021.71875 1155.260938 2053.242188 1155.260938 2072.617188 1174.635938 " transform="matrix(0.1,0,0,-0.1,0,140.03)" />
      <path style="fill:none;stroke-width:7.9701;stroke-linecap:butt;stroke-linejoin:miter;stroke:rgb(39.988708%,75.976563%,39.988708%);stroke-opacity:1;stroke-miterlimit:10;" d="M 128.984375 128.971875 L 348.632813 128.971875 L 348.632813 348.659375 L 128.984375 348.659375 Z M 128.984375 128.971875 " transform="matrix(0.1,0,0,-0.1,0,140.03)" />
      <path style=" stroke:none;fill-rule:nonzero;fill:rgb(0%,0%,0%);fill-opacity:1;" d="M 49.363281 119.058594 L 46.453125 116.136719 L 49.363281 113.203125 L 48.78125 112.632813 L 45.847656 115.542969 L 42.9375 112.632813 L 42.34375 113.214844 L 45.253906 116.136719 L 42.34375 119.070313 L 42.925781 119.652344 L 45.847656 116.730469 L 48.78125 119.652344 L 49.363281 119.058594 " />
      <path style=" stroke:none;fill-rule:nonzero;fill:rgb(0%,0%,0%);fill-opacity:1;" d="M 62.269531 118.40625 L 62.269531 117.476563 L 60.898438 117.476563 L 60.898438 111.855469 L 60.078125 111.855469 L 55.976563 117.558594 L 55.976563 118.40625 L 59.699219 118.40625 L 59.699219 120.53125 L 60.898438 120.53125 L 60.898438 118.40625 Z M 59.699219 117.476563 L 56.714844 117.476563 L 56.714844 117.421875 L 59.648438 113.320313 L 59.699219 113.320313 L 59.699219 117.476563 " />
      <path style=" stroke:none;fill-rule:nonzero;fill:rgb(0%,0%,0%);fill-opacity:1;" d="M 75.050781 116.132813 L 75.050781 115.21875 L 67.035156 115.21875 L 67.035156 116.132813 Z M 75.050781 118.875 L 75.050781 117.976563 L 67.035156 117.976563 L 67.035156 118.875 L 75.050781 118.875 " />
      <path style=" stroke:none;fill-rule:nonzero;fill:rgb(0%,0%,0%);fill-opacity:1;" d="M 85.839844 118.378906 L 85.449219 118.378906 C 85.140625 119.183594 84.964844 119.46875 84.253906 119.46875 L 82.382813 119.46875 L 81.441406 119.507813 L 81.441406 119.441406 L 83.21875 117.757813 C 84.644531 116.320313 85.410156 115.390625 85.410156 114.195313 C 85.410156 112.78125 84.347656 111.867188 82.828125 111.867188 C 81.523438 111.867188 80.609375 112.621094 80.191406 113.925781 L 80.515625 114.0625 C 81.011719 113.050781 81.601563 112.742188 82.476563 112.742188 C 83.515625 112.742188 84.160156 113.390625 84.160156 114.398438 C 84.160156 115.808594 83.484375 116.65625 82.15625 118.027344 L 80.109375 120.070313 L 80.109375 120.53125 L 85.410156 120.53125 L 85.839844 118.378906 " />
      <path style=" stroke:none;fill-rule:nonzero;fill:rgb(0%,0%,0%);fill-opacity:1;" d="M 92.769531 118.40625 L 92.769531 117.476563 L 91.398438 117.476563 L 91.398438 111.855469 L 90.578125 111.855469 L 86.476563 117.558594 L 86.476563 118.40625 L 90.199219 118.40625 L 90.199219 120.53125 L 91.398438 120.53125 L 91.398438 118.40625 Z M 90.199219 117.476563 L 87.214844 117.476563 L 87.214844 117.421875 L 90.148438 113.320313 L 90.199219 113.320313 L 90.199219 117.476563 " />
    </g>
  </svg>