<svg class="displayed_equation" xmlns="http://www.w3.org/2000/svg" xmlns:xlink="http://www.w3.org/1999/xlink" width="99.59pt" height="453.82pt" viewBox="0 0 99.59 453.82" version="1.1">
    <g id="svg657185689097tikz_00001surface1">
      <path style="fill-rule:nonzero;fill:rgb(41.184998%,72.851563%,42.358398%);fill-opacity:1;stroke-width:7.9701;stroke-linecap:butt;stroke-linejoin:miter;stroke:rgb(0%,0%,0%);stroke-opacity:1;stroke-miterlimit:10;" d="M 128.984375 128.98125 L 424.179688 128.98125 L 424.179688 424.176562 L 128.984375 424.176562 Z M 128.984375 128.98125 " transform="matrix(0.1,0,0,-0.1,0,453.82)" />
      <path style="fill-rule:nonzero;fill:rgb(41.184998%,72.851563%,42.358398%);fill-opacity:1;stroke-width:7.9701;stroke-linecap:butt;stroke-linejoin:miter;stroke:rgb(0%,0%,0%);stroke-opacity:1;stroke-miterlimit:10;" d="M 128.984375 571.754687 L 424.179688 571.754687 L 424.179688 866.95 L 128.984375 866.95 Z M 128.984375 571.754687 " transform="matrix(0.1,0,0,-0.1,0,453.82)" />
      <path style="fill-rule:nonzero;fill:rgb(41.184998%,72.851563%,42.358398%);fill-opacity:1;stroke-width:7.9701;stroke-linecap:butt;stroke-linejoin:miter;stroke:rgb(0%,0%,0%);stroke-opacity:1;stroke-miterlimit:10;" d="M 128.984375 1014.567187 L 424.179688 1014.567187 L 424.179688 1309.7625 L 128.984375 1309.7625 Z M 128.984375 1014.567187 " transform="matrix(0.1,0,0,-0.1,0,453.82)" />
      <path style="fill-rule:nonzero;fill:rgb(41.184998%,72.851563%,42.358398%);fill-opacity:1;stroke-width:7.9701;stroke-linecap:butt;stroke-linejoin:miter;stroke:rgb(0%,0%,0%);stroke-opacity:1;stroke-miterlimit:10;" d="M 128.984375 1457.340625 L 424.179688 1457.340625 L 424.179688 1752.535937 L 128.984375 1752.535937 Z M 128.984375 1457.340625 " transform="matrix(0.1,0,0,-0.1,0,453.82)" />
      <path style="fill-rule:nonzero;fill:rgb(41.184998%,72.851563%,42.358398%);fill-opacity:1;stroke-width:7.9701;stroke-linecap:butt;stroke-linejoin:miter;stroke:rgb(0%,0%,0%);stroke-opacity:1;stroke-miterlimit:10;" d="M 128.984375 1900.114062 L 424.179688 1900.114062 L 424.179688 2195.309375 L 128.984375 2195.309375 Z M 128.984375 1900.114062 " transform="matrix(0.1,0,0,-0.1,0,453.82)" />
      <path style="fill-rule:nonzero;fill:rgb(41.184998%,72.851563%,42.358398%);fill-opacity:1;stroke-width:7.9701;stroke-linecap:butt;stroke-linejoin:miter;stroke:rgb(0%,0%,0%);stroke-opacity:1;stroke-miterlimit:10;" d="M 128.984375 2342.926562 L 424.179688 2342.926562 L 424.179688 2638.082812 L 128.984375 2638.082812 Z M 128.984375 2342.926562 " transform="matrix(0.1,0,0,-0.1,0,453.82)" />
      <path style="fill-rule:nonzero;fill:rgb(41.184998%,72.851563%,42.358398%);fill-opacity:1;stroke-width:7.9701;stroke-linecap:butt;stroke-linejoin:miter;stroke:rgb(0%,0%,0%);stroke-opacity:1;stroke-miterlimit:10;" d="M 128.984375 2785.7 L 424.179688 2785.7 L 424.179688 3080.895312 L 128.984375 3080.895312 Z M 128.984375 2785.7 " transform="matrix(0.1,0,0,-0.1,0,453.82)" />
      <path style="fill-rule:nonzero;fill:rgb(41.184998%,72.851563%,42.358398%);fill-opacity:1;stroke-width:7.9701;stroke-linecap:butt;stroke-linejoin:miter;stroke:rgb(0%,0%,0%);stroke-opacity:1;stroke-miterlimit:10;" d="M 128.984375 3228.473437 L 424.179688 3228.473437 L 424.179688 3523.66875 L 128.984375 3523.66875 Z M 128.984375 3228.473437 " transform="matrix(0.1,0,0,-0.1,0,453.82)" />
      <path style="fill-rule:nonzero;fill:rgb(41.184998%,72.851563%,42.358398%);fill-opacity:1;stroke-width:7.9701;stroke-linecap:butt;stroke-linejoin:miter;stroke:rgb(0%,0%,0%);stroke-opacity:1;stroke-miterlimit:10;" d="M 128.984375 3671.285937 L 424.179688 3671.285937 L 424.179688 3966.442187 L 128.984375 3966.442187 Z M 128.984375 3671.285937 " transform="matrix(0.1,0,0,-0.1,0,453.82)" />
      <path style="fill-rule:nonzero;fill:rgb(41.184998%,72.851563%,42.358398%);fill-opacity:1;stroke-width:7.9701;stroke-linecap:butt;stroke-linejoin:miter;stroke:rgb(0%,0%,0%);stroke-opacity:1;stroke-miterlimit:10;" d="M 128.984375 4114.059375 L 424.179688 4114.059375 L 424.179688 4409.254687 L 128.984375 4409.254687 Z M 128.984375 4114.059375 " transform="matrix(0.1,0,0,-0.1,0,453.82)" />
      <path style="fill-rule:nonzero;fill:rgb(41.184998%,72.851563%,42.358398%);fill-opacity:1;stroke-width:7.9701;stroke-linecap:butt;stroke-linejoin:miter;stroke:rgb(0%,0%,0%);stroke-opacity:1;stroke-miterlimit:10;" d="M 571.757813 128.98125 L 866.953125 128.98125 L 866.953125 424.176562 L 571.757813 424.176562 Z M 571.757813 128.98125 " transform="matrix(0.1,0,0,-0.1,0,453.82)" />
      <path style="fill-rule:nonzero;fill:rgb(41.184998%,72.851563%,42.358398%);fill-opacity:1;stroke-width:7.9701;stroke-linecap:butt;stroke-linejoin:miter;stroke:rgb(0%,0%,0%);stroke-opacity:1;stroke-miterlimit:10;" d="M 571.757813 571.754687 L 866.953125 571.754687 L 866.953125 866.95 L 571.757813 866.95 Z M 571.757813 571.754687 " transform="matrix(0.1,0,0,-0.1,0,453.82)" />
      <path style="fill-rule:nonzero;fill:rgb(41.184998%,72.851563%,42.358398%);fill-opacity:1;stroke-width:7.9701;stroke-linecap:butt;stroke-linejoin:miter;stroke:rgb(0%,0%,0%);stroke-opacity:1;stroke-miterlimit:10;" d="M 571.757813 1014.567187 L 866.953125 1014.567187 L 866.953125 1309.7625 L 571.757813 1309.7625 Z M 571.757813 1014.567187 " transform="matrix(0.1,0,0,-0.1,0,453.82)" />
      <path style="fill-rule:nonzero;fill:rgb(41.184998%,72.851563%,42.358398%);fill-opacity:1;stroke-width:7.9701;stroke-linecap:butt;stroke-linejoin:miter;stroke:rgb(0%,0%,0%);stroke-opacity:1;stroke-miterlimit:10;" d="M 571.757813 1457.340625 L 866.953125 1457.340625 L 866.953125 1752.535937 L 571.757813 1752.535937 Z M 571.757813 1457.340625 " transform="matrix(0.1,0,0,-0.1,0,453.82)" />
      <path style="fill-rule:nonzero;fill:rgb(41.184998%,72.851563%,42.358398%);fill-opacity:1;stroke-width:7.9701;stroke-linecap:butt;stroke-linejoin:miter;stroke:rgb(0%,0%,0%);stroke-opacity:1;stroke-miterlimit:10;" d="M 571.757813 1900.114062 L 866.953125 1900.114062 L 866.953125 2195.309375 L 571.757813 2195.309375 Z M 571.757813 1900.114062 " transform="matrix(0.1,0,0,-0.1,0,453.82)" />
      <path style="fill-rule:nonzero;fill:rgb(41.184998%,72.851563%,42.358398%);fill-opacity:1;stroke-width:7.9701;stroke-linecap:butt;stroke-linejoin:miter;stroke:rgb(0%,0%,0%);stroke-opacity:1;stroke-miterlimit:10;" d="M 571.757813 2342.926562 L 866.953125 2342.926562 L 866.953125 2638.082812 L 571.757813 2638.082812 Z M 571.757813 2342.926562 " transform="matrix(0.1,0,0,-0.1,0,453.82)" />
      <path style="fill-rule:nonzero;fill:rgb(41.184998%,72.851563%,42.358398%);fill-opacity:1;stroke-width:7.9701;stroke-linecap:butt;stroke-linejoin:miter;stroke:rgb(0%,0%,0%);stroke-opacity:1;stroke-miterlimit:10;" d="M 571.757813 2785.7 L 866.953125 2785.7 L 866.953125 3080.895312 L 571.757813 3080.895312 Z M 571.757813 2785.7 " transform="matrix(0.1,0,0,-0.1,0,453.82)" />
      <path style="fill-rule:nonzero;fill:rgb(41.184998%,72.851563%,42.358398%);fill-opacity:1;stroke-width:7.9701;stroke-linecap:butt;stroke-linejoin:miter;stroke:rgb(0%,0%,0%);stroke-opacity:1;stroke-miterlimit:10;" d="M 571.757813 3228.473437 L 866.953125 3228.473437 L 866.953125 3523.66875 L 571.757813 3523.66875 Z M 571.757813 3228.473437 " transform="matrix(0.1,0,0,-0.1,0,453.82)" />
      <path style="fill-rule:nonzero;fill:rgb(41.184998%,72.851563%,42.358398%);fill-opacity:1;stroke-width:7.9701;stroke-linecap:butt;stroke-linejoin:miter;stroke:rgb(0%,0%,0%);stroke-opacity:1;stroke-miterlimit:10;" d="M 571.757813 3671.285937 L 866.953125 3671.285937 L 866.953125 3966.442187 L 571.757813 3966.442187 Z M 571.757813 3671.285937 " transform="matrix(0.1,0,0,-0.1,0,453.82)" />
      <path style="fill-rule:nonzero;fill:rgb(41.184998%,72.851563%,42.358398%);fill-opacity:1;stroke-width:7.9701;stroke-linecap:butt;stroke-linejoin:miter;stroke:rgb(0%,0%,0%);stroke-opacity:1;stroke-miterlimit:10;" d="M 571.757813 4114.059375 L 866.953125 4114.059375 L 866.953125 4409.254687 L 571.757813 4409.254687 Z M 571.757813 4114.059375 " transform="matrix(0.1,0,0,-0.1,0,453.82)" />
    </g>
  </svg>