<svg class="displayed_equation" xmlns="http://www.w3.org/2000/svg" xmlns:xlink="http://www.w3.org/1999/xlink" width="523.48pt" height="54.24pt" viewBox="0 0 523.48 54.24" version="1.1">
    <g id="svg139124686362tikz_00004surface16">
      <path style="fill-rule:nonzero;fill:rgb(69.139099%,83.396912%,93.75%);fill-opacity:1;stroke-width:7.9701;stroke-linecap:butt;stroke-linejoin:miter;stroke:rgb(0%,0%,0%);stroke-opacity:1;stroke-miterlimit:10;" d="M 128.984375 129.001562 L 839.960938 129.001562 L 839.960938 413.376562 L 128.984375 413.376562 Z M 128.984375 129.001562 " transform="matrix(0.1,0,0,-0.1,0,54.24)" />
      <path style=" stroke:none;fill-rule:nonzero;fill:rgb(0%,0%,0%);fill-opacity:1;" d="M 50.707031 23.855469 L 50.921875 22.765625 L 47.238281 22.765625 L 46.40625 26.277344 L 46.566406 26.480469 C 46.753906 26.480469 46.820313 26.480469 47.171875 26.503906 C 49.027344 26.601563 50.078125 27.152344 50.078125 28.832031 C 50.078125 30.230469 49.226563 30.742188 48.273438 30.742188 C 47.414063 30.742188 46.96875 30.082031 46.429688 30.082031 C 46.09375 30.082031 45.894531 30.351563 45.894531 30.660156 C 45.894531 31.160156 46.40625 31.414063 47.441406 31.414063 C 49.578125 31.414063 51.058594 30.367188 51.058594 28.292969 C 51.058594 26.183594 49.402344 25.550781 47.816406 25.429688 L 47.183594 25.390625 L 47.546875 23.855469 L 50.707031 23.855469 " />
      <path style="fill-rule:nonzero;fill:rgb(69.139099%,83.396912%,93.75%);fill-opacity:1;stroke-width:7.9701;stroke-linecap:butt;stroke-linejoin:miter;stroke:rgb(0%,0%,0%);stroke-opacity:1;stroke-miterlimit:10;" d="M 839.960938 129.001562 L 1550.9375 129.001562 L 1550.9375 413.376562 L 839.960938 413.376562 Z M 839.960938 129.001562 " transform="matrix(0.1,0,0,-0.1,0,54.24)" />
      <path style=" stroke:none;fill-rule:nonzero;fill:rgb(0%,0%,0%);fill-opacity:1;" d="M 121.808594 23.855469 L 122.023438 22.765625 L 118.339844 22.765625 L 117.503906 26.277344 L 117.664063 26.480469 C 117.855469 26.480469 117.921875 26.480469 118.273438 26.503906 C 120.128906 26.601563 121.175781 27.152344 121.175781 28.832031 C 121.175781 30.230469 120.328125 30.742188 119.371094 30.742188 C 118.511719 30.742188 118.070313 30.082031 117.53125 30.082031 C 117.195313 30.082031 116.992188 30.351563 116.992188 30.660156 C 116.992188 31.160156 117.503906 31.414063 118.539063 31.414063 C 120.679688 31.414063 122.15625 30.367188 122.15625 28.292969 C 122.15625 26.183594 120.503906 25.550781 118.917969 25.429688 L 118.285156 25.390625 L 118.648438 23.855469 L 121.808594 23.855469 " />
      <path style="fill-rule:nonzero;fill:rgb(69.139099%,83.396912%,93.75%);fill-opacity:1;stroke-width:7.9701;stroke-linecap:butt;stroke-linejoin:miter;stroke:rgb(0%,0%,0%);stroke-opacity:1;stroke-miterlimit:10;" d="M 1550.9375 129.001562 L 2261.953125 129.001562 L 2261.953125 413.376562 L 1550.9375 413.376562 Z M 1550.9375 129.001562 " transform="matrix(0.1,0,0,-0.1,0,54.24)" />
      <path style=" stroke:none;fill-rule:nonzero;fill:rgb(0%,0%,0%);fill-opacity:1;" d="M 192.90625 23.855469 L 193.121094 22.765625 L 189.4375 22.765625 L 188.605469 26.277344 L 188.765625 26.480469 C 188.953125 26.480469 189.023438 26.480469 189.371094 26.503906 C 191.226563 26.601563 192.277344 27.152344 192.277344 28.832031 C 192.277344 30.230469 191.429688 30.742188 190.472656 30.742188 C 189.613281 30.742188 189.167969 30.082031 188.632813 30.082031 C 188.296875 30.082031 188.09375 30.351563 188.09375 30.660156 C 188.09375 31.160156 188.605469 31.414063 189.640625 31.414063 C 191.777344 31.414063 193.257813 30.367188 193.257813 28.292969 C 193.257813 26.183594 191.601563 25.550781 190.015625 25.429688 L 189.382813 25.390625 L 189.746094 23.855469 L 192.90625 23.855469 " />
      <path style="fill-rule:nonzero;fill:rgb(69.139099%,83.396912%,93.75%);fill-opacity:1;stroke-width:7.9701;stroke-linecap:butt;stroke-linejoin:miter;stroke:rgb(0%,0%,0%);stroke-opacity:1;stroke-miterlimit:10;" d="M 2261.914063 129.001562 L 2972.929688 129.001562 L 2972.929688 413.376562 L 2261.914063 413.376562 Z M 2261.914063 129.001562 " transform="matrix(0.1,0,0,-0.1,0,54.24)" />
      <path style=" stroke:none;fill-rule:nonzero;fill:rgb(0%,0%,0%);fill-opacity:1;" d="M 264.007813 23.855469 L 264.222656 22.765625 L 260.539063 22.765625 L 259.703125 26.277344 L 259.867188 26.480469 C 260.054688 26.480469 260.121094 26.480469 260.472656 26.503906 C 262.328125 26.601563 263.378906 27.152344 263.378906 28.832031 C 263.378906 30.230469 262.527344 30.742188 261.574219 30.742188 C 260.714844 30.742188 260.269531 30.082031 259.730469 30.082031 C 259.394531 30.082031 259.195313 30.351563 259.195313 30.660156 C 259.195313 31.160156 259.703125 31.414063 260.742188 31.414063 C 262.878906 31.414063 264.359375 30.367188 264.359375 28.292969 C 264.359375 26.183594 262.703125 25.550781 261.117188 25.429688 L 260.484375 25.390625 L 260.847656 23.855469 L 264.007813 23.855469 " />
      <path style="fill-rule:nonzero;fill:rgb(69.139099%,83.396912%,93.75%);fill-opacity:1;stroke-width:7.9701;stroke-linecap:butt;stroke-linejoin:miter;stroke:rgb(0%,0%,0%);stroke-opacity:1;stroke-miterlimit:10;" d="M 2972.929688 129.001562 L 3683.90625 129.001562 L 3683.90625 413.376562 L 2972.929688 413.376562 Z M 2972.929688 129.001562 " transform="matrix(0.1,0,0,-0.1,0,54.24)" />
      <path style=" stroke:none;fill-rule:nonzero;fill:rgb(0%,0%,0%);fill-opacity:1;" d="M 335.109375 23.855469 L 335.324219 22.765625 L 331.640625 22.765625 L 330.804688 26.277344 L 330.964844 26.480469 C 331.15625 26.480469 331.222656 26.480469 331.570313 26.503906 C 333.425781 26.601563 334.476563 27.152344 334.476563 28.832031 C 334.476563 30.230469 333.628906 30.742188 332.671875 30.742188 C 331.8125 30.742188 331.367188 30.082031 330.832031 30.082031 C 330.496094 30.082031 330.292969 30.351563 330.292969 30.660156 C 330.292969 31.160156 330.804688 31.414063 331.839844 31.414063 C 333.976563 31.414063 335.457031 30.367188 335.457031 28.292969 C 335.457031 26.183594 333.804688 25.550781 332.21875 25.429688 L 331.585938 25.390625 L 331.949219 23.855469 L 335.109375 23.855469 " />
      <path style="fill-rule:nonzero;fill:rgb(69.139099%,83.396912%,93.75%);fill-opacity:1;stroke-width:7.9701;stroke-linecap:butt;stroke-linejoin:miter;stroke:rgb(0%,0%,0%);stroke-opacity:1;stroke-miterlimit:10;" d="M 3683.90625 129.001562 L 4394.882813 129.001562 L 4394.882813 413.376562 L 3683.90625 413.376562 Z M 3683.90625 129.001562 " transform="matrix(0.1,0,0,-0.1,0,54.24)" />
      <path style=" stroke:none;fill-rule:nonzero;fill:rgb(0%,0%,0%);fill-opacity:1;" d="M 406.207031 23.855469 L 406.421875 22.765625 L 402.738281 22.765625 L 401.90625 26.277344 L 402.066406 26.480469 C 402.253906 26.480469 402.320313 26.480469 402.671875 26.503906 C 404.527344 26.601563 405.578125 27.152344 405.578125 28.832031 C 405.578125 30.230469 404.726563 30.742188 403.773438 30.742188 C 402.914063 30.742188 402.46875 30.082031 401.929688 30.082031 C 401.59375 30.082031 401.394531 30.351563 401.394531 30.660156 C 401.394531 31.160156 401.90625 31.414063 402.941406 31.414063 C 405.078125 31.414063 406.558594 30.367188 406.558594 28.292969 C 406.558594 26.183594 404.902344 25.550781 403.316406 25.429688 L 402.683594 25.390625 L 403.046875 23.855469 L 406.207031 23.855469 " />
      <path style="fill-rule:nonzero;fill:rgb(69.139099%,83.396912%,93.75%);fill-opacity:1;stroke-width:7.9701;stroke-linecap:butt;stroke-linejoin:miter;stroke:rgb(0%,0%,0%);stroke-opacity:1;stroke-miterlimit:10;" d="M 4394.882813 129.001562 L 5105.859375 129.001562 L 5105.859375 413.376562 L 4394.882813 413.376562 Z M 4394.882813 129.001562 " transform="matrix(0.1,0,0,-0.1,0,54.24)" />
      <path style=" stroke:none;fill-rule:nonzero;fill:rgb(0%,0%,0%);fill-opacity:1;" d="M 477.308594 23.855469 L 477.523438 22.765625 L 473.839844 22.765625 L 473.003906 26.277344 L 473.164063 26.480469 C 473.355469 26.480469 473.421875 26.480469 473.773438 26.503906 C 475.628906 26.601563 476.675781 27.152344 476.675781 28.832031 C 476.675781 30.230469 475.828125 30.742188 474.871094 30.742188 C 474.011719 30.742188 473.570313 30.082031 473.03125 30.082031 C 472.695313 30.082031 472.492188 30.351563 472.492188 30.660156 C 472.492188 31.160156 473.003906 31.414063 474.039063 31.414063 C 476.179688 31.414063 477.65625 30.367188 477.65625 28.292969 C 477.65625 26.183594 476.003906 25.550781 474.417969 25.429688 L 473.785156 25.390625 L 474.148438 23.855469 L 477.308594 23.855469 " />
    </g>
  </svg>