<svg class="displayed_equation" xmlns="http://www.w3.org/2000/svg" xmlns:xlink="http://www.w3.org/1999/xlink" width="473.65pt" height="55.65pt" viewBox="0 0 473.65 55.65" version="1.1">
    <g id="svg139124686362tikz_00001surface1">
      <path style="fill-rule:nonzero;fill:rgb(69.139099%,83.396912%,93.75%);fill-opacity:1;stroke-width:7.9701;stroke-linecap:butt;stroke-linejoin:miter;stroke:rgb(0%,0%,0%);stroke-opacity:1;stroke-miterlimit:10;" d="M 128.984375 129 L 1024.6875 129 L 1024.6875 427.554688 L 128.984375 427.554688 Z M 128.984375 129 " transform="matrix(0.1,0,0,-0.1,0,55.65)" />
      <path style=" stroke:none;fill-rule:nonzero;fill:rgb(0%,0%,0%);fill-opacity:1;" d="M 59.980469 23.363281 C 57.089844 23.484375 55.003906 25.351563 55.003906 28.59375 C 55.003906 30.570313 55.878906 32.210938 57.882813 32.210938 C 59.578125 32.210938 60.546875 31.148438 60.546875 29.320313 C 60.546875 27.558594 59.589844 26.496094 58.125 26.496094 C 57.425781 26.496094 56.929688 26.792969 56.375 27.328125 L 56.28125 27.316406 C 56.617188 25.351563 58.125 24.035156 60.007813 23.75 Z M 59.375 29.429688 C 59.375 31.136719 58.835938 31.742188 57.9375 31.742188 C 56.765625 31.742188 56.214844 30.542969 56.214844 28.875 C 56.214844 27.707031 56.941406 27.273438 57.722656 27.273438 C 58.835938 27.273438 59.375 28.21875 59.375 29.429688 " />
      <path style="fill-rule:nonzero;fill:rgb(69.139099%,83.396912%,93.75%);fill-opacity:1;stroke-width:7.9701;stroke-linecap:butt;stroke-linejoin:miter;stroke:rgb(0%,0%,0%);stroke-opacity:1;stroke-miterlimit:10;" d="M 1024.6875 129 L 1920.429688 129 L 1920.429688 427.554688 L 1024.6875 427.554688 Z M 1024.6875 129 " transform="matrix(0.1,0,0,-0.1,0,55.65)" />
      <path style=" stroke:none;fill-rule:nonzero;fill:rgb(0%,0%,0%);fill-opacity:1;" d="M 149.480469 23.363281 C 146.589844 23.484375 144.503906 25.351563 144.503906 28.59375 C 144.503906 30.570313 145.378906 32.210938 147.382813 32.210938 C 149.078125 32.210938 150.046875 31.148438 150.046875 29.320313 C 150.046875 27.558594 149.089844 26.496094 147.625 26.496094 C 146.925781 26.496094 146.429688 26.792969 145.878906 27.328125 L 145.78125 27.316406 C 146.117188 25.351563 147.625 24.035156 149.507813 23.75 Z M 148.878906 29.429688 C 148.878906 31.136719 148.339844 31.742188 147.4375 31.742188 C 146.265625 31.742188 145.714844 30.542969 145.714844 28.875 C 145.714844 27.707031 146.441406 27.273438 147.222656 27.273438 C 148.339844 27.273438 148.878906 28.21875 148.878906 29.429688 " />
      <path style="fill-rule:nonzero;fill:rgb(69.139099%,83.396912%,93.75%);fill-opacity:1;stroke-width:7.9701;stroke-linecap:butt;stroke-linejoin:miter;stroke:rgb(0%,0%,0%);stroke-opacity:1;stroke-miterlimit:10;" d="M 1920.390625 129 L 2816.132813 129 L 2816.132813 427.554688 L 1920.390625 427.554688 Z M 1920.390625 129 " transform="matrix(0.1,0,0,-0.1,0,55.65)" />
      <path style=" stroke:none;fill-rule:nonzero;fill:rgb(0%,0%,0%);fill-opacity:1;" d="M 239.082031 23.363281 C 236.1875 23.484375 234.105469 25.351563 234.105469 28.59375 C 234.105469 30.570313 234.980469 32.210938 236.984375 32.210938 C 238.679688 32.210938 239.644531 31.148438 239.644531 29.320313 C 239.644531 27.558594 238.691406 26.496094 237.226563 26.496094 C 236.527344 26.496094 236.027344 26.792969 235.476563 27.328125 L 235.382813 27.316406 C 235.71875 25.351563 237.226563 24.035156 239.109375 23.75 Z M 238.476563 29.429688 C 238.476563 31.136719 237.9375 31.742188 237.039063 31.742188 C 235.867188 31.742188 235.316406 30.542969 235.316406 28.875 C 235.316406 27.707031 236.042969 27.273438 236.820313 27.273438 C 237.9375 27.273438 238.476563 28.21875 238.476563 29.429688 " />
      <path style="fill-rule:nonzero;fill:rgb(69.139099%,83.396912%,93.75%);fill-opacity:1;stroke-width:7.9701;stroke-linecap:butt;stroke-linejoin:miter;stroke:rgb(0%,0%,0%);stroke-opacity:1;stroke-miterlimit:10;" d="M 2816.132813 129 L 3711.835938 129 L 3711.835938 427.554688 L 2816.132813 427.554688 Z M 2816.132813 129 " transform="matrix(0.1,0,0,-0.1,0,55.65)" />
      <path style=" stroke:none;fill-rule:nonzero;fill:rgb(0%,0%,0%);fill-opacity:1;" d="M 328.679688 23.363281 C 325.789063 23.484375 323.703125 25.351563 323.703125 28.59375 C 323.703125 30.570313 324.578125 32.210938 326.582031 32.210938 C 328.277344 32.210938 329.246094 31.148438 329.246094 29.320313 C 329.246094 27.558594 328.289063 26.496094 326.824219 26.496094 C 326.128906 26.496094 325.628906 26.792969 325.078125 27.328125 L 324.984375 27.316406 C 325.320313 25.351563 326.824219 24.035156 328.707031 23.75 Z M 328.078125 29.429688 C 328.078125 31.136719 327.539063 31.742188 326.636719 31.742188 C 325.46875 31.742188 324.914063 30.542969 324.914063 28.875 C 324.914063 27.707031 325.640625 27.273438 326.421875 27.273438 C 327.539063 27.273438 328.078125 28.21875 328.078125 29.429688 " />
      <path style="fill-rule:nonzero;fill:rgb(69.139099%,83.396912%,93.75%);fill-opacity:1;stroke-width:7.9701;stroke-linecap:butt;stroke-linejoin:miter;stroke:rgb(0%,0%,0%);stroke-opacity:1;stroke-miterlimit:10;" d="M 3711.835938 129 L 4607.578125 129 L 4607.578125 427.554688 L 3711.835938 427.554688 Z M 3711.835938 129 " transform="matrix(0.1,0,0,-0.1,0,55.65)" />
      <path style=" stroke:none;fill-rule:nonzero;fill:rgb(0%,0%,0%);fill-opacity:1;" d="M 418.179688 23.363281 C 415.289063 23.484375 413.203125 25.351563 413.203125 28.59375 C 413.203125 30.570313 414.078125 32.210938 416.082031 32.210938 C 417.777344 32.210938 418.746094 31.148438 418.746094 29.320313 C 418.746094 27.558594 417.789063 26.496094 416.324219 26.496094 C 415.628906 26.496094 415.128906 26.792969 414.578125 27.328125 L 414.484375 27.316406 C 414.820313 25.351563 416.324219 24.035156 418.207031 23.75 Z M 417.578125 29.429688 C 417.578125 31.136719 417.039063 31.742188 416.136719 31.742188 C 414.96875 31.742188 414.414063 30.542969 414.414063 28.875 C 414.414063 27.707031 415.140625 27.273438 415.921875 27.273438 C 417.039063 27.273438 417.578125 28.21875 417.578125 29.429688 " />
    </g>
  </svg>