<svg class="displayed_equation" xmlns="http://www.w3.org/2000/svg" xmlns:xlink="http://www.w3.org/1999/xlink" width="523.5pt" height="53.45pt" viewBox="0 0 523.5 53.45" version="1.1">
    <g id="svg139124686362tikz_00002surface6">
      <path style="fill-rule:nonzero;fill:rgb(69.139099%,83.396912%,93.75%);fill-opacity:1;stroke-width:7.9701;stroke-linecap:butt;stroke-linejoin:miter;stroke:rgb(0%,0%,0%);stroke-opacity:1;stroke-miterlimit:10;" d="M 128.984375 128.992188 L 958.476563 128.992188 L 958.476563 405.476563 L 128.984375 405.476563 Z M 128.984375 128.992188 " transform="matrix(0.1,0,0,-0.1,0,53.45)" />
      <path style=" stroke:none;fill-rule:nonzero;fill:rgb(0%,0%,0%);fill-opacity:1;" d="M 56.582031 22.261719 C 53.6875 22.382813 51.605469 24.253906 51.605469 27.492188 C 51.605469 29.46875 52.480469 31.109375 54.484375 31.109375 C 56.179688 31.109375 57.144531 30.046875 57.144531 28.21875 C 57.144531 26.457031 56.191406 25.394531 54.726563 25.394531 C 54.027344 25.394531 53.527344 25.691406 52.976563 26.230469 L 52.882813 26.214844 C 53.21875 24.253906 54.726563 22.933594 56.609375 22.652344 Z M 55.976563 28.328125 C 55.976563 30.035156 55.4375 30.640625 54.539063 30.640625 C 53.367188 30.640625 52.816406 29.445313 52.816406 27.777344 C 52.816406 26.605469 53.542969 26.175781 54.320313 26.175781 C 55.4375 26.175781 55.976563 27.117188 55.976563 28.328125 " />
      <path style="fill-rule:nonzero;fill:rgb(69.139099%,83.396912%,93.75%);fill-opacity:1;stroke-width:7.9701;stroke-linecap:butt;stroke-linejoin:miter;stroke:rgb(0%,0%,0%);stroke-opacity:1;stroke-miterlimit:10;" d="M 958.476563 128.992188 L 1788.007813 128.992188 L 1788.007813 405.476563 L 958.476563 405.476563 Z M 958.476563 128.992188 " transform="matrix(0.1,0,0,-0.1,0,53.45)" />
      <path style=" stroke:none;fill-rule:nonzero;fill:rgb(0%,0%,0%);fill-opacity:1;" d="M 139.582031 22.261719 C 136.6875 22.382813 134.605469 24.253906 134.605469 27.492188 C 134.605469 29.46875 135.480469 31.109375 137.484375 31.109375 C 139.179688 31.109375 140.144531 30.046875 140.144531 28.21875 C 140.144531 26.457031 139.191406 25.394531 137.726563 25.394531 C 137.027344 25.394531 136.527344 25.691406 135.976563 26.230469 L 135.882813 26.214844 C 136.21875 24.253906 137.726563 22.933594 139.609375 22.652344 Z M 138.976563 28.328125 C 138.976563 30.035156 138.4375 30.640625 137.539063 30.640625 C 136.367188 30.640625 135.816406 29.445313 135.816406 27.777344 C 135.816406 26.605469 136.542969 26.175781 137.320313 26.175781 C 138.4375 26.175781 138.976563 27.117188 138.976563 28.328125 " />
      <path style="fill-rule:nonzero;fill:rgb(69.139099%,83.396912%,93.75%);fill-opacity:1;stroke-width:7.9701;stroke-linecap:butt;stroke-linejoin:miter;stroke:rgb(0%,0%,0%);stroke-opacity:1;stroke-miterlimit:10;" d="M 1788.007813 128.992188 L 2617.5 128.992188 L 2617.5 405.476563 L 1788.007813 405.476563 Z M 1788.007813 128.992188 " transform="matrix(0.1,0,0,-0.1,0,53.45)" />
      <path style=" stroke:none;fill-rule:nonzero;fill:rgb(0%,0%,0%);fill-opacity:1;" d="M 222.480469 22.261719 C 219.589844 22.382813 217.503906 24.253906 217.503906 27.492188 C 217.503906 29.46875 218.378906 31.109375 220.382813 31.109375 C 222.078125 31.109375 223.046875 30.046875 223.046875 28.21875 C 223.046875 26.457031 222.089844 25.394531 220.625 25.394531 C 219.925781 25.394531 219.429688 25.691406 218.878906 26.230469 L 218.78125 26.214844 C 219.117188 24.253906 220.625 22.933594 222.507813 22.652344 Z M 221.878906 28.328125 C 221.878906 30.035156 221.339844 30.640625 220.4375 30.640625 C 219.265625 30.640625 218.714844 29.445313 218.714844 27.777344 C 218.714844 26.605469 219.441406 26.175781 220.222656 26.175781 C 221.339844 26.175781 221.878906 27.117188 221.878906 28.328125 " />
      <path style="fill-rule:nonzero;fill:rgb(69.139099%,83.396912%,93.75%);fill-opacity:1;stroke-width:7.9701;stroke-linecap:butt;stroke-linejoin:miter;stroke:rgb(0%,0%,0%);stroke-opacity:1;stroke-miterlimit:10;" d="M 2617.539063 128.992188 L 3447.03125 128.992188 L 3447.03125 405.476563 L 2617.539063 405.476563 Z M 2617.539063 128.992188 " transform="matrix(0.1,0,0,-0.1,0,53.45)" />
      <path style=" stroke:none;fill-rule:nonzero;fill:rgb(0%,0%,0%);fill-opacity:1;" d="M 305.480469 22.261719 C 302.589844 22.382813 300.503906 24.253906 300.503906 27.492188 C 300.503906 29.46875 301.378906 31.109375 303.382813 31.109375 C 305.078125 31.109375 306.046875 30.046875 306.046875 28.21875 C 306.046875 26.457031 305.089844 25.394531 303.625 25.394531 C 302.925781 25.394531 302.429688 25.691406 301.878906 26.230469 L 301.78125 26.214844 C 302.117188 24.253906 303.625 22.933594 305.507813 22.652344 Z M 304.878906 28.328125 C 304.878906 30.035156 304.339844 30.640625 303.4375 30.640625 C 302.265625 30.640625 301.714844 29.445313 301.714844 27.777344 C 301.714844 26.605469 302.441406 26.175781 303.222656 26.175781 C 304.339844 26.175781 304.878906 27.117188 304.878906 28.328125 " />
      <path style="fill-rule:nonzero;fill:rgb(69.139099%,83.396912%,93.75%);fill-opacity:1;stroke-width:7.9701;stroke-linecap:butt;stroke-linejoin:miter;stroke:rgb(0%,0%,0%);stroke-opacity:1;stroke-miterlimit:10;" d="M 3447.03125 128.992188 L 4276.523438 128.992188 L 4276.523438 405.476563 L 3447.03125 405.476563 Z M 3447.03125 128.992188 " transform="matrix(0.1,0,0,-0.1,0,53.45)" />
      <path style=" stroke:none;fill-rule:nonzero;fill:rgb(0%,0%,0%);fill-opacity:1;" d="M 388.382813 22.261719 C 385.488281 22.382813 383.40625 24.253906 383.40625 27.492188 C 383.40625 29.46875 384.28125 31.109375 386.28125 31.109375 C 387.976563 31.109375 388.945313 30.046875 388.945313 28.21875 C 388.945313 26.457031 387.992188 25.394531 386.523438 25.394531 C 385.828125 25.394531 385.328125 25.691406 384.777344 26.230469 L 384.683594 26.214844 C 385.019531 24.253906 386.523438 22.933594 388.40625 22.652344 Z M 387.777344 28.328125 C 387.777344 30.035156 387.238281 30.640625 386.339844 30.640625 C 385.167969 30.640625 384.617188 29.445313 384.617188 27.777344 C 384.617188 26.605469 385.34375 26.175781 386.121094 26.175781 C 387.238281 26.175781 387.777344 27.117188 387.777344 28.328125 " />
      <path style="fill-rule:nonzero;fill:rgb(69.139099%,83.396912%,93.75%);fill-opacity:1;stroke-width:7.9701;stroke-linecap:butt;stroke-linejoin:miter;stroke:rgb(0%,0%,0%);stroke-opacity:1;stroke-miterlimit:10;" d="M 4276.523438 128.992188 L 5106.054688 128.992188 L 5106.054688 405.476563 L 4276.523438 405.476563 Z M 4276.523438 128.992188 " transform="matrix(0.1,0,0,-0.1,0,53.45)" />
      <path style=" stroke:none;fill-rule:nonzero;fill:rgb(0%,0%,0%);fill-opacity:1;" d="M 471.382813 22.261719 C 468.488281 22.382813 466.40625 24.253906 466.40625 27.492188 C 466.40625 29.46875 467.28125 31.109375 469.28125 31.109375 C 470.976563 31.109375 471.945313 30.046875 471.945313 28.21875 C 471.945313 26.457031 470.992188 25.394531 469.523438 25.394531 C 468.828125 25.394531 468.328125 25.691406 467.777344 26.230469 L 467.683594 26.214844 C 468.019531 24.253906 469.523438 22.933594 471.40625 22.652344 Z M 470.777344 28.328125 C 470.777344 30.035156 470.238281 30.640625 469.339844 30.640625 C 468.167969 30.640625 467.617188 29.445313 467.617188 27.777344 C 467.617188 26.605469 468.34375 26.175781 469.121094 26.175781 C 470.238281 26.175781 470.777344 27.117188 470.777344 28.328125 " />
    </g>
  </svg>