<svg class="displayed_equation" xmlns="http://www.w3.org/2000/svg" xmlns:xlink="http://www.w3.org/1999/xlink" width="393.96pt" height="55.25pt" viewBox="0 0 393.96 55.25" version="1.1">
    <g id="svg139124686362tikz_00003surface11">
      <path style="fill-rule:nonzero;fill:rgb(69.139099%,83.396912%,93.75%);fill-opacity:1;stroke-width:7.9701;stroke-linecap:butt;stroke-linejoin:miter;stroke:rgb(0%,0%,0%);stroke-opacity:1;stroke-miterlimit:10;" d="M 128.984375 128.984375 L 865.3125 128.984375 L 865.3125 423.515625 L 128.984375 423.515625 Z M 128.984375 128.984375 " transform="matrix(0.1,0,0,-0.1,0,55.25)" />
      <path style=" stroke:none;fill-rule:nonzero;fill:rgb(0%,0%,0%);fill-opacity:1;" d="M 52.007813 24.367188 L 52.222656 23.277344 L 48.539063 23.277344 L 47.703125 26.789063 L 47.867188 26.988281 C 48.054688 26.988281 48.121094 26.988281 48.472656 27.015625 C 50.328125 27.109375 51.375 27.660156 51.375 29.34375 C 51.375 30.742188 50.527344 31.253906 49.574219 31.253906 C 48.710938 31.253906 48.269531 30.59375 47.730469 30.59375 C 47.394531 30.59375 47.195313 30.863281 47.195313 31.171875 C 47.195313 31.667969 47.703125 31.925781 48.742188 31.925781 C 50.878906 31.925781 52.359375 30.875 52.359375 28.804688 C 52.359375 26.695313 50.703125 26.0625 49.117188 25.941406 L 48.484375 25.898438 L 48.847656 24.367188 L 52.007813 24.367188 " />
      <path style="fill-rule:nonzero;fill:rgb(69.139099%,83.396912%,93.75%);fill-opacity:1;stroke-width:7.9701;stroke-linecap:butt;stroke-linejoin:miter;stroke:rgb(0%,0%,0%);stroke-opacity:1;stroke-miterlimit:10;" d="M 865.3125 128.984375 L 1601.640625 128.984375 L 1601.640625 423.515625 L 865.3125 423.515625 Z M 865.3125 128.984375 " transform="matrix(0.1,0,0,-0.1,0,55.25)" />
      <path style=" stroke:none;fill-rule:nonzero;fill:rgb(0%,0%,0%);fill-opacity:1;" d="M 125.609375 24.367188 L 125.824219 23.277344 L 122.140625 23.277344 L 121.304688 26.789063 L 121.464844 26.988281 C 121.65625 26.988281 121.722656 26.988281 122.070313 27.015625 C 123.925781 27.109375 124.976563 27.660156 124.976563 29.34375 C 124.976563 30.742188 124.128906 31.253906 123.171875 31.253906 C 122.3125 31.253906 121.867188 30.59375 121.332031 30.59375 C 120.996094 30.59375 120.792969 30.863281 120.792969 31.171875 C 120.792969 31.667969 121.304688 31.925781 122.339844 31.925781 C 124.476563 31.925781 125.957031 30.875 125.957031 28.804688 C 125.957031 26.695313 124.304688 26.0625 122.71875 25.941406 L 122.085938 25.898438 L 122.449219 24.367188 L 125.609375 24.367188 " />
      <path style="fill-rule:nonzero;fill:rgb(69.139099%,83.396912%,93.75%);fill-opacity:1;stroke-width:7.9701;stroke-linecap:butt;stroke-linejoin:miter;stroke:rgb(0%,0%,0%);stroke-opacity:1;stroke-miterlimit:10;" d="M 1601.640625 128.984375 L 2337.96875 128.984375 L 2337.96875 423.515625 L 1601.640625 423.515625 Z M 1601.640625 128.984375 " transform="matrix(0.1,0,0,-0.1,0,55.25)" />
      <path style=" stroke:none;fill-rule:nonzero;fill:rgb(0%,0%,0%);fill-opacity:1;" d="M 199.308594 24.367188 L 199.523438 23.277344 L 195.839844 23.277344 L 195.003906 26.789063 L 195.164063 26.988281 C 195.355469 26.988281 195.421875 26.988281 195.773438 27.015625 C 197.628906 27.109375 198.675781 27.660156 198.675781 29.34375 C 198.675781 30.742188 197.828125 31.253906 196.871094 31.253906 C 196.011719 31.253906 195.570313 30.59375 195.03125 30.59375 C 194.695313 30.59375 194.492188 30.863281 194.492188 31.171875 C 194.492188 31.667969 195.003906 31.925781 196.039063 31.925781 C 198.179688 31.925781 199.65625 30.875 199.65625 28.804688 C 199.65625 26.695313 198.003906 26.0625 196.417969 25.941406 L 195.785156 25.898438 L 196.148438 24.367188 L 199.308594 24.367188 " />
      <path style="fill-rule:nonzero;fill:rgb(69.139099%,83.396912%,93.75%);fill-opacity:1;stroke-width:7.9701;stroke-linecap:butt;stroke-linejoin:miter;stroke:rgb(0%,0%,0%);stroke-opacity:1;stroke-miterlimit:10;" d="M 2337.96875 128.984375 L 3074.296875 128.984375 L 3074.296875 423.515625 L 2337.96875 423.515625 Z M 2337.96875 128.984375 " transform="matrix(0.1,0,0,-0.1,0,55.25)" />
      <path style=" stroke:none;fill-rule:nonzero;fill:rgb(0%,0%,0%);fill-opacity:1;" d="M 272.90625 24.367188 L 273.121094 23.277344 L 269.4375 23.277344 L 268.605469 26.789063 L 268.765625 26.988281 C 268.953125 26.988281 269.023438 26.988281 269.371094 27.015625 C 271.226563 27.109375 272.277344 27.660156 272.277344 29.34375 C 272.277344 30.742188 271.429688 31.253906 270.472656 31.253906 C 269.613281 31.253906 269.167969 30.59375 268.632813 30.59375 C 268.296875 30.59375 268.09375 30.863281 268.09375 31.171875 C 268.09375 31.667969 268.605469 31.925781 269.640625 31.925781 C 271.777344 31.925781 273.257813 30.875 273.257813 28.804688 C 273.257813 26.695313 271.601563 26.0625 270.015625 25.941406 L 269.382813 25.898438 L 269.746094 24.367188 L 272.90625 24.367188 " />
      <path style="fill-rule:nonzero;fill:rgb(69.139099%,83.396912%,93.75%);fill-opacity:1;stroke-width:7.9701;stroke-linecap:butt;stroke-linejoin:miter;stroke:rgb(0%,0%,0%);stroke-opacity:1;stroke-miterlimit:10;" d="M 3074.296875 128.984375 L 3810.625 128.984375 L 3810.625 423.515625 L 3074.296875 423.515625 Z M 3074.296875 128.984375 " transform="matrix(0.1,0,0,-0.1,0,55.25)" />
      <path style=" stroke:none;fill-rule:nonzero;fill:rgb(0%,0%,0%);fill-opacity:1;" d="M 346.507813 24.367188 L 346.722656 23.277344 L 343.039063 23.277344 L 342.203125 26.789063 L 342.367188 26.988281 C 342.554688 26.988281 342.621094 26.988281 342.972656 27.015625 C 344.828125 27.109375 345.878906 27.660156 345.878906 29.34375 C 345.878906 30.742188 345.027344 31.253906 344.074219 31.253906 C 343.214844 31.253906 342.769531 30.59375 342.230469 30.59375 C 341.894531 30.59375 341.695313 30.863281 341.695313 31.171875 C 341.695313 31.667969 342.203125 31.925781 343.242188 31.925781 C 345.378906 31.925781 346.859375 30.875 346.859375 28.804688 C 346.859375 26.695313 345.203125 26.0625 343.617188 25.941406 L 342.984375 25.898438 L 343.347656 24.367188 L 346.507813 24.367188 " />
    </g>
  </svg>